<?xml version="1.0" encoding="utf-8"?>
<!-- Generator: Adobe Illustrator 23.1.1, SVG Export Plug-In . SVG Version: 6.00 Build 0)  -->
<svg version="1.1" id="Livello_1" xmlns="http://www.w3.org/2000/svg" xmlns:xlink="http://www.w3.org/1999/xlink" x="0px" y="0px"
	 viewBox="0 0 209.2 147.4" style="enable-background:new 0 0 209.2 147.4;" xml:space="preserve">
<style type="text/css">
	.st0{fill-rule:evenodd;clip-rule:evenodd;}
</style>
<g>
	<circle class="st0" cx="75.2" cy="37.3" r="4.6"/>
	<path class="st0" d="M75.2,74.6c2.3,0,4.6-0.7,4.6-2.2v-26c0-3-9.1-3-9.1,0v19.5c0,1.6-1.3,2.9-2.9,2.9s-2.9-1.3-2.9-2.9V53.3
		c0-5.1-4.1-9.2-9.2-9.2H37.4V21.6c0-3-9.1-3-9.1,0v50.8c0,3,9.1,3,9.1,0V49.7H51c2.5,0,4.7,2,4.7,4.5v11.1c0,5.1,4,9.3,9.1,9.3
		L75.2,74.6z"/>
</g>
<path class="st0" d="M98.5,8.6H32.1l-22.6,21v66.2h66.4l22.6-21V8.6L98.5,8.6z M30.5,0h76.7v78.5l-27.8,25.9H1V25.9L28.8,0H30.5z"/>
<path class="st0" d="M30.4,76.7c0,0.1,0,0.3-0.1,0.4s-0.1,0.2-0.2,0.3c-0.1,0.1-0.2,0.2-0.3,0.2c-0.1,0.1-0.3,0.1-0.4,0.1
	s-0.3,0-0.4-0.1s-0.2-0.1-0.3-0.2c-0.1-0.1-0.2-0.2-0.2-0.3c-0.1-0.1-0.1-0.3-0.1-0.4s0-0.3,0.1-0.4s0.1-0.2,0.2-0.3
	c0.1-0.1,0.2-0.2,0.3-0.2c0.1-0.1,0.3-0.1,0.4-0.1s0.3,0,0.4,0.1s0.2,0.1,0.3,0.2c0.1,0.1,0.2,0.2,0.2,0.3
	C30.4,76.4,30.4,76.6,30.4,76.7z"/>
<rect x="28.6" y="78.5" class="st0" width="1.5" height="8.5"/>
<path class="st0" d="M31.5,87v-8.5h0.9c0.2,0,0.3,0.1,0.4,0.3l0.1,0.9c0.4-0.4,0.8-0.7,1.2-1c0.5-0.3,1-0.4,1.6-0.4
	c0.5,0,0.9,0.1,1.2,0.2c0.4,0.2,0.7,0.4,0.9,0.7c0.2,0.3,0.4,0.6,0.5,1s0.2,0.8,0.2,1.3V87H37v-5.4c0-0.6-0.1-1.1-0.4-1.5
	c-0.3-0.4-0.7-0.5-1.4-0.5c-0.4,0-0.9,0.1-1.2,0.3c-0.4,0.2-0.7,0.5-1.1,0.9V87H31.5z"/>
<path class="st0" d="M42.1,87.1c-0.7,0-1.2-0.2-1.6-0.6C40.2,86.2,40,85.7,40,85v-5.2h-1c-0.1,0-0.2,0-0.2-0.1
	c-0.1-0.1-0.1-0.1-0.1-0.2v-0.6l1.4-0.2l0.3-2.6c0-0.1,0-0.2,0.1-0.2c0.1-0.1,0.1-0.1,0.2-0.1h0.8v2.9H44v1.1h-2.4v5.1
	c0,0.4,0.1,0.6,0.3,0.8c0.2,0.2,0.4,0.3,0.7,0.3c0.2,0,0.3,0,0.4-0.1c0.1,0,0.2-0.1,0.3-0.1c0.1-0.1,0.2-0.1,0.2-0.1
	c0.1,0,0.1-0.1,0.2-0.1c0.1,0,0.1,0,0.2,0.1l0.4,0.7c-0.3,0.2-0.6,0.4-0.9,0.6C42.9,87.1,42.5,87.1,42.1,87.1z"/>
<path class="st0" d="M47.9,78.3c0.5,0,1,0.1,1.4,0.3c0.4,0.2,0.8,0.4,1.1,0.7c0.3,0.3,0.6,0.7,0.7,1.2c0.2,0.5,0.3,1,0.3,1.6
	c0,0.2,0,0.4-0.1,0.5s-0.1,0.1-0.3,0.1h-5.7c0,0.5,0.1,1,0.2,1.4c0.1,0.4,0.3,0.7,0.6,1c0.2,0.3,0.5,0.5,0.8,0.6s0.7,0.2,1.1,0.2
	c0.4,0,0.7,0,1-0.1s0.5-0.2,0.7-0.3c0.2-0.1,0.4-0.2,0.5-0.3c0.1-0.1,0.2-0.1,0.3-0.1s0.2,0,0.3,0.1l0.4,0.6
	c-0.2,0.2-0.4,0.4-0.7,0.6s-0.5,0.3-0.8,0.4S49.1,87,48.8,87c-0.3,0.1-0.6,0.1-0.9,0.1c-0.6,0-1.1-0.1-1.6-0.3
	c-0.5-0.2-0.9-0.5-1.3-0.9c-0.4-0.4-0.6-0.9-0.8-1.4c-0.2-0.6-0.3-1.2-0.3-2c0-0.6,0.1-1.2,0.3-1.7s0.4-1,0.8-1.3
	c0.3-0.4,0.8-0.7,1.3-0.9C46.8,78.4,47.3,78.3,47.9,78.3L47.9,78.3z M48,79.4c-0.7,0-1.3,0.2-1.7,0.6s-0.7,1-0.8,1.7h4.6
	c0-0.3,0-0.7-0.1-1s-0.2-0.5-0.4-0.7s-0.4-0.4-0.7-0.5C48.6,79.5,48.3,79.4,48,79.4z"/>
<path class="st0" d="M52.1,87v-8.5H53c0.2,0,0.3,0,0.3,0.1c0.1,0.1,0.1,0.2,0.1,0.3l0.1,1.4c0.3-0.6,0.7-1.1,1.1-1.5
	c0.4-0.4,0.9-0.5,1.5-0.5c0.2,0,0.4,0,0.6,0.1c0.2,0.1,0.4,0.1,0.5,0.2L57,79.7c0,0.1-0.1,0.2-0.3,0.2c-0.1,0-0.2,0-0.4-0.1
	s-0.4-0.1-0.7-0.1c-0.5,0-1,0.2-1.3,0.5c-0.4,0.3-0.6,0.8-0.9,1.4V87H52.1z"/>
<path class="st0" d="M59.6,76.7c0,0.1,0,0.3-0.1,0.4s-0.1,0.2-0.2,0.3c-0.1,0.1-0.2,0.2-0.3,0.2s-0.3,0.1-0.4,0.1s-0.3,0-0.4-0.1
	c-0.1-0.1-0.2-0.1-0.3-0.2s-0.2-0.2-0.2-0.3c-0.1-0.1-0.1-0.3-0.1-0.4s0-0.3,0.1-0.4s0.1-0.2,0.2-0.3c0.1-0.1,0.2-0.2,0.3-0.2
	c0.1-0.1,0.3-0.1,0.4-0.1s0.3,0,0.4,0.1c0.1,0.1,0.2,0.1,0.3,0.2s0.2,0.2,0.2,0.3C59.6,76.4,59.6,76.6,59.6,76.7z"/>
<rect x="57.8" y="78.5" class="st0" width="1.5" height="8.5"/>
<path class="st0" d="M64.1,78.3c0.6,0,1.2,0.1,1.7,0.3c0.5,0.2,0.9,0.5,1.3,0.9s0.6,0.8,0.8,1.4c0.2,0.5,0.3,1.1,0.3,1.8
	c0,0.7-0.1,1.3-0.3,1.8c-0.2,0.5-0.5,1-0.8,1.4c-0.4,0.4-0.8,0.7-1.3,0.9c-0.5,0.2-1.1,0.3-1.7,0.3s-1.2-0.1-1.7-0.3
	c-0.5-0.2-0.9-0.5-1.3-0.9c-0.4-0.4-0.6-0.8-0.8-1.4C60.1,84,60,83.4,60,82.7c0-0.7,0.1-1.3,0.3-1.8s0.5-1,0.8-1.4
	c0.4-0.4,0.8-0.7,1.3-0.9C62.9,78.4,63.5,78.3,64.1,78.3L64.1,78.3z M64.1,86c0.8,0,1.5-0.3,1.9-0.8c0.4-0.6,0.6-1.4,0.6-2.4
	S66.4,81,66,80.4s-1-0.9-1.9-0.9c-0.4,0-0.8,0.1-1.1,0.2s-0.6,0.4-0.8,0.6c-0.2,0.3-0.4,0.6-0.5,1s-0.2,0.9-0.2,1.4s0.1,1,0.2,1.4
	s0.3,0.7,0.5,1s0.5,0.5,0.8,0.6C63.3,85.9,63.7,86,64.1,86z"/>
<path class="st0" d="M68.7,87v-8.5h0.9c0.2,0,0.3,0,0.3,0.1c0.1,0.1,0.1,0.2,0.1,0.3l0.1,1.4c0.3-0.6,0.7-1.1,1.1-1.5
	s0.9-0.5,1.5-0.5c0.2,0,0.4,0,0.6,0.1s0.4,0.1,0.5,0.2l-0.2,1.1c0,0.1-0.1,0.2-0.3,0.2c-0.1,0-0.2,0-0.4-0.1
	c-0.2-0.1-0.4-0.1-0.7-0.1c-0.5,0-1,0.2-1.3,0.5c-0.4,0.3-0.6,0.8-0.9,1.4V87H68.7z"/>
<path class="st0" d="M79.3,79.9c-0.1,0.1-0.2,0.2-0.3,0.2c-0.1,0-0.2,0-0.3-0.1c-0.1-0.1-0.2-0.1-0.4-0.2c-0.2-0.1-0.3-0.1-0.6-0.2
	c-0.2-0.1-0.5-0.1-0.8-0.1s-0.5,0-0.7,0.1s-0.4,0.2-0.5,0.3c-0.1,0.1-0.3,0.2-0.3,0.4c-0.1,0.1-0.1,0.3-0.1,0.5s0.1,0.4,0.2,0.5
	s0.3,0.3,0.5,0.4s0.4,0.2,0.7,0.3c0.3,0.1,0.5,0.2,0.8,0.3c0.3,0.1,0.5,0.2,0.8,0.3c0.3,0.1,0.5,0.3,0.7,0.4
	c0.2,0.2,0.4,0.4,0.5,0.6s0.2,0.5,0.2,0.9s-0.1,0.8-0.2,1.1c-0.1,0.3-0.3,0.6-0.6,0.9c-0.3,0.2-0.6,0.4-1,0.6
	c-0.4,0.1-0.9,0.2-1.4,0.2c-0.6,0-1.1-0.1-1.6-0.3c-0.5-0.2-0.9-0.4-1.2-0.7l0.4-0.6c0-0.1,0.1-0.1,0.2-0.2c0.1,0,0.1-0.1,0.2-0.1
	s0.2,0,0.3,0.1c0.1,0.1,0.2,0.2,0.4,0.3c0.2,0.1,0.4,0.2,0.6,0.3c0.2,0.1,0.5,0.1,0.9,0.1c0.3,0,0.5,0,0.8-0.1
	c0.2-0.1,0.4-0.2,0.5-0.3c0.1-0.1,0.3-0.3,0.3-0.4c0.1-0.2,0.1-0.4,0.1-0.5c0-0.2-0.1-0.4-0.2-0.6s-0.3-0.3-0.5-0.4
	s-0.4-0.2-0.7-0.3c-0.3-0.1-0.5-0.2-0.8-0.3c-0.3-0.1-0.6-0.2-0.8-0.3c-0.3-0.1-0.5-0.3-0.7-0.4c-0.2-0.2-0.4-0.4-0.5-0.6
	c-0.1-0.3-0.2-0.6-0.2-0.9s0.1-0.6,0.2-0.9s0.3-0.6,0.6-0.8c0.3-0.2,0.6-0.4,1-0.5s0.8-0.2,1.3-0.2c0.6,0,1.1,0.1,1.5,0.3
	c0.4,0.2,0.8,0.4,1.2,0.7L79.3,79.9z"/>
<path class="st0" d="M97.9,93h4.9c0.9,0,1.8,0.2,2.7,0.5c0.9,0.3,1.7,0.8,2.5,1.4c0.7,0.6,1.3,1.4,1.8,2.3s0.7,2,0.7,3.2
	s-0.2,2.3-0.7,3.2c-0.5,0.9-1.1,1.7-1.8,2.3c-0.7,0.6-1.6,1.1-2.5,1.4s-1.8,0.5-2.7,0.5h-4.9V93L97.9,93z M99.4,106.4h3
	c1.1,0,2.1-0.2,2.9-0.5s1.5-0.8,2-1.4s0.9-1.2,1.2-1.9c0.3-0.7,0.4-1.5,0.4-2.2c0-0.8-0.1-1.5-0.4-2.2s-0.7-1.4-1.2-1.9
	c-0.5-0.6-1.2-1-2-1.4c-0.8-0.3-1.8-0.5-2.9-0.5h-3V106.4L99.4,106.4z M115.1,106.4h7.9v1.3h-9.3V93h9.1v1.3h-7.6v5h7.1v1.3h-7.1
	L115.1,106.4L115.1,106.4z M133,95.4c-0.3-0.4-0.7-0.8-1.2-1.1c-0.5-0.3-1.1-0.4-1.8-0.4c-0.4,0-0.7,0.1-1.1,0.2
	c-0.4,0.1-0.7,0.3-1,0.5s-0.5,0.5-0.7,0.9c-0.2,0.3-0.3,0.8-0.3,1.2c0,0.5,0.1,0.9,0.3,1.2c0.2,0.3,0.4,0.6,0.7,0.8
	c0.3,0.2,0.6,0.4,1,0.5s0.8,0.3,1.2,0.4c0.5,0.2,1,0.3,1.5,0.5s1,0.4,1.4,0.8c0.4,0.3,0.8,0.7,1,1.2c0.3,0.5,0.4,1.1,0.4,1.8
	c0,0.7-0.1,1.4-0.4,1.9c-0.3,0.5-0.6,1-1.1,1.3c-0.4,0.3-1,0.6-1.5,0.8c-0.6,0.2-1.1,0.2-1.7,0.2c-0.4,0-0.9,0-1.3-0.1
	c-0.4-0.1-0.9-0.2-1.3-0.4c-0.4-0.2-0.8-0.4-1.1-0.7c-0.3-0.3-0.6-0.6-0.9-1l1.3-1c0.3,0.5,0.8,1,1.3,1.3c0.6,0.4,1.2,0.5,2,0.5
	c0.4,0,0.8-0.1,1.1-0.2c0.4-0.1,0.7-0.3,1-0.5s0.6-0.5,0.8-0.9s0.3-0.8,0.3-1.2c0-0.5-0.1-0.9-0.3-1.3c-0.2-0.3-0.5-0.6-0.8-0.8
	c-0.3-0.2-0.7-0.4-1.1-0.6c-0.4-0.2-0.9-0.3-1.3-0.5c-0.5-0.2-1-0.3-1.4-0.5c-0.5-0.2-0.9-0.4-1.3-0.8c-0.4-0.3-0.7-0.7-0.9-1.1
	c-0.2-0.5-0.3-1-0.3-1.7s0.1-1.3,0.4-1.8s0.7-0.9,1.1-1.3c0.5-0.3,1-0.6,1.5-0.7c0.6-0.2,1.1-0.2,1.6-0.2c1,0,1.8,0.2,2.5,0.5
	c0.7,0.4,1.2,0.8,1.6,1.3L133,95.4L133,95.4z M139,107.7h-1.5V93h1.5V107.7L139,107.7z M154.1,95.7c-0.5-0.5-1.1-1-1.8-1.3
	s-1.5-0.4-2.4-0.4s-1.8,0.2-2.5,0.5c-0.8,0.3-1.4,0.8-1.9,1.4s-0.9,1.3-1.2,2c-0.3,0.8-0.4,1.6-0.4,2.4c0,0.9,0.1,1.7,0.4,2.4
	c0.3,0.8,0.7,1.4,1.2,2s1.2,1,1.9,1.4c0.8,0.3,1.6,0.5,2.5,0.5c0.8,0,1.6-0.1,2.3-0.3c0.7-0.2,1.2-0.4,1.7-0.7v-4.5h-3.4V100h4.9
	v6.6c-0.8,0.5-1.7,0.8-2.6,1.1c-0.9,0.2-1.9,0.4-2.9,0.4c-1.1,0-2.1-0.2-3.1-0.6c-0.9-0.4-1.7-0.9-2.4-1.6s-1.2-1.5-1.6-2.4
	c-0.4-0.9-0.6-2-0.6-3.1s0.2-2.1,0.6-3.1c0.4-0.9,0.9-1.8,1.6-2.4c0.7-0.7,1.5-1.2,2.4-1.6s1.9-0.6,3-0.6c1.2,0,2.2,0.2,3.1,0.5
	c0.9,0.4,1.6,0.8,2.2,1.5L154.1,95.7L154.1,95.7z M169.5,105.5L169.5,105.5V93h1.5v14.7h-1.9l-8.5-12.6l0,0v12.6h-1.5V93h1.9
	L169.5,105.5L169.5,105.5z M110.3,125.2c-0.2,0.4-0.5,0.7-0.9,1.1c-0.4,0.3-0.8,0.6-1.2,0.9c-0.5,0.3-1,0.5-1.5,0.6
	c-0.6,0.1-1.2,0.2-1.8,0.2c-1.1,0-2.1-0.2-3.1-0.6c-0.9-0.4-1.7-0.9-2.4-1.6c-0.7-0.7-1.2-1.5-1.6-2.4s-0.6-2-0.6-3.1
	s0.2-2.1,0.6-3.1c0.4-0.9,0.9-1.8,1.6-2.4c0.7-0.7,1.5-1.2,2.4-1.6s1.9-0.6,3-0.6c0.5,0,1.1,0.1,1.6,0.2s1,0.3,1.5,0.5
	s0.9,0.4,1.2,0.7c0.4,0.3,0.7,0.6,0.9,1l-1.2,0.9c-0.2-0.2-0.4-0.5-0.6-0.7c-0.3-0.2-0.6-0.4-0.9-0.6s-0.7-0.3-1.1-0.4
	s-0.8-0.2-1.3-0.2c-1,0-1.8,0.2-2.6,0.5c-0.8,0.3-1.4,0.8-1.9,1.4s-0.9,1.3-1.2,2c-0.3,0.8-0.4,1.6-0.4,2.4c0,0.9,0.1,1.7,0.4,2.4
	c0.3,0.8,0.7,1.4,1.2,2s1.2,1,1.9,1.4c0.8,0.3,1.6,0.5,2.5,0.5c0.8,0,1.6-0.2,2.4-0.5s1.4-0.9,1.9-1.7L110.3,125.2L110.3,125.2z
	 M127.1,120.2c0,1.1-0.2,2.1-0.6,3.1c-0.4,0.9-0.9,1.8-1.6,2.4c-0.7,0.7-1.5,1.2-2.4,1.6s-1.9,0.6-3,0.6s-2.1-0.2-3-0.6
	s-1.7-0.9-2.4-1.6c-0.7-0.7-1.2-1.5-1.6-2.4s-0.6-2-0.6-3.1s0.2-2.1,0.6-3.1c0.4-0.9,0.9-1.8,1.6-2.4c0.7-0.7,1.5-1.2,2.4-1.6
	s1.9-0.6,3-0.6s2.1,0.2,3,0.6s1.7,0.9,2.4,1.6c0.7,0.7,1.2,1.5,1.6,2.4C126.9,118.1,127.1,119.1,127.1,120.2L127.1,120.2z
	 M125.5,120.2c0-0.9-0.1-1.7-0.4-2.4c-0.3-0.8-0.7-1.5-1.2-2c-0.5-0.6-1.2-1-1.9-1.4c-0.8-0.3-1.6-0.5-2.5-0.5s-1.8,0.2-2.5,0.5
	c-0.8,0.3-1.4,0.8-1.9,1.4s-0.9,1.3-1.2,2c-0.3,0.8-0.4,1.6-0.4,2.4c0,0.9,0.1,1.7,0.4,2.4c0.3,0.8,0.7,1.4,1.2,2s1.2,1,1.9,1.4
	c0.8,0.3,1.6,0.5,2.5,0.5s1.8-0.2,2.5-0.5c0.8-0.3,1.4-0.8,1.9-1.4s0.9-1.3,1.2-2C125.4,121.9,125.5,121.1,125.5,120.2L125.5,120.2z
	 M140.6,125.4L140.6,125.4v-12.5h1.5v14.7h-1.9l-8.5-12.6l0,0v12.6h-1.5v-14.7h1.9L140.6,125.4L140.6,125.4z M156.4,125.4
	L156.4,125.4v-12.5h1.5v14.7H156l-8.5-12.6l0,0v12.6H146v-14.7h1.9L156.4,125.4L156.4,125.4z M163.4,126.2h7.9v1.3H162v-14.7h9.1
	v1.3h-7.6v5h7.1v1.3h-7.1L163.4,126.2L163.4,126.2z M186.5,125.2c-0.2,0.4-0.5,0.7-0.9,1.1c-0.4,0.3-0.8,0.6-1.2,0.9
	c-0.5,0.3-1,0.5-1.5,0.6c-0.6,0.1-1.2,0.2-1.8,0.2c-1.1,0-2.1-0.2-3.1-0.6c-0.9-0.4-1.7-0.9-2.4-1.6s-1.2-1.5-1.6-2.4
	c-0.4-0.9-0.6-2-0.6-3.1s0.2-2.1,0.6-3.1c0.4-0.9,0.9-1.8,1.6-2.4c0.7-0.7,1.5-1.2,2.4-1.6s1.9-0.6,3-0.6c0.5,0,1.1,0.1,1.6,0.2
	s1,0.3,1.5,0.5s0.9,0.4,1.2,0.7c0.4,0.3,0.7,0.6,0.9,1l-1.2,0.9c-0.2-0.2-0.4-0.5-0.6-0.7c-0.3-0.2-0.6-0.4-0.9-0.6
	c-0.3-0.2-0.7-0.3-1.1-0.4c-0.4-0.1-0.8-0.2-1.3-0.2c-1,0-1.8,0.2-2.6,0.5s-1.4,0.8-1.9,1.4s-0.9,1.3-1.2,2
	c-0.3,0.8-0.4,1.6-0.4,2.4c0,0.9,0.1,1.7,0.4,2.4c0.3,0.8,0.7,1.4,1.2,2s1.2,1,1.9,1.4c0.8,0.3,1.6,0.5,2.5,0.5
	c0.8,0,1.6-0.2,2.4-0.5c0.8-0.3,1.4-0.9,1.9-1.7L186.5,125.2L186.5,125.2z M193.6,127.5h-1.5v-13.3h-4.9v-1.3h11.3v1.3h-4.9
	L193.6,127.5L193.6,127.5z M207.8,115.2c-0.3-0.4-0.7-0.8-1.2-1.1c-0.5-0.3-1.1-0.4-1.8-0.4c-0.4,0-0.7,0.1-1.1,0.2
	c-0.4,0.1-0.7,0.3-1,0.5s-0.5,0.5-0.7,0.9c-0.2,0.3-0.3,0.8-0.3,1.2c0,0.5,0.1,0.9,0.3,1.2c0.2,0.3,0.4,0.6,0.7,0.8
	c0.3,0.2,0.6,0.4,1,0.5s0.8,0.3,1.2,0.4c0.5,0.2,1,0.3,1.5,0.5s1,0.4,1.4,0.8c0.4,0.3,0.8,0.7,1,1.2c0.3,0.5,0.4,1.1,0.4,1.8
	c0,0.7-0.1,1.4-0.4,1.9c-0.3,0.5-0.6,1-1.1,1.3c-0.4,0.3-1,0.6-1.5,0.8c-0.6,0.2-1.1,0.2-1.7,0.2c-0.4,0-0.9,0-1.3-0.1
	c-0.4-0.1-0.9-0.2-1.3-0.4c-0.4-0.2-0.8-0.4-1.1-0.7c-0.3-0.3-0.6-0.6-0.9-1l1.3-1c0.3,0.5,0.8,1,1.3,1.3c0.6,0.4,1.2,0.5,2,0.5
	c0.4,0,0.8-0.1,1.1-0.2c0.4-0.1,0.7-0.3,1-0.5s0.6-0.5,0.8-0.9s0.3-0.8,0.3-1.2c0-0.5-0.1-0.9-0.3-1.3c-0.2-0.3-0.5-0.6-0.8-0.8
	c-0.3-0.2-0.7-0.4-1.1-0.6c-0.4-0.2-0.9-0.3-1.3-0.5c-0.5-0.2-1-0.3-1.4-0.5c-0.5-0.2-0.9-0.4-1.3-0.8c-0.4-0.3-0.7-0.7-0.9-1.1
	c-0.2-0.5-0.3-1-0.3-1.7s0.1-1.3,0.4-1.8c0.3-0.5,0.7-0.9,1.1-1.3c0.5-0.3,1-0.6,1.5-0.7c0.6-0.2,1.1-0.2,1.6-0.2
	c1,0,1.8,0.2,2.5,0.5c0.7,0.4,1.2,0.8,1.6,1.3L207.8,115.2L207.8,115.2z M99.4,146.1h6.8v1.3h-8.3v-14.7h1.5V146.1L99.4,146.1z
	 M110,147.4h-1.5v-14.7h1.5V147.4L110,147.4z M115.4,147.4h-1.5v-14.7h8.8v1.3h-7.4v5.1h6.8v1.3h-6.8L115.4,147.4L115.4,147.4z
	 M127,146.1h7.9v1.3h-9.3v-14.7h9.1v1.3H127v5h7.1v1.3H127V146.1z"/>
</svg>
