<svg width="1084" height="322" viewBox="0 0 1084 322" fill="none" xmlns="http://www.w3.org/2000/svg">
<path d="M1076.33 283.141C1076.33 287.182 1075.53 291.183 1073.99 294.915C1072.44 298.648 1070.17 302.039 1067.31 304.895C1064.45 307.75 1061.06 310.015 1057.32 311.558C1053.59 313.101 1049.58 313.894 1045.54 313.889H37.9758C29.8094 313.898 21.974 310.663 16.1927 304.897C10.4115 299.131 7.15774 291.305 7.14709 283.141V37.9336C7.15773 29.7657 10.4102 21.9359 16.1903 16.1633C21.9704 10.3908 29.8057 7.14732 37.9758 7.1452H1045.53C1049.58 7.1452 1053.58 7.94163 1057.32 9.48899C1061.05 11.0364 1064.45 13.3043 1067.31 16.1634C1070.17 19.0225 1072.43 22.4166 1073.98 26.152C1075.53 29.8874 1076.32 33.8908 1076.32 37.9336L1076.33 283.141Z" fill="white"/>
<path d="M1045.54 321.043H37.9758C27.9157 321.04 18.2674 317.049 11.1479 309.943C4.02834 302.837 0.0191415 293.198 0 283.141L0 37.9416C0.0148824 27.8793 4.02143 18.2337 11.1407 11.1208C18.26 4.00786 27.9107 0.008493 37.9758 0L1045.53 0C1055.6 0.0127308 1065.25 4.01346 1072.36 11.1254C1079.48 18.2374 1083.49 27.8806 1083.51 37.9416V283.141C1083.53 304.047 1066.46 321.043 1045.54 321.043Z" fill="#A6A6A6"/>
<path d="M1076.33 283.141C1076.33 287.182 1075.53 291.183 1073.99 294.915C1072.44 298.648 1070.17 302.039 1067.31 304.895C1064.45 307.75 1061.06 310.015 1057.32 311.558C1053.59 313.101 1049.58 313.894 1045.54 313.889H37.9758C29.8094 313.898 21.974 310.663 16.1927 304.897C10.4115 299.131 7.15774 291.305 7.14709 283.141V37.9336C7.15773 29.7657 10.4102 21.9359 16.1903 16.1633C21.9704 10.3908 29.8057 7.14732 37.9758 7.1452H1045.53C1049.58 7.1452 1053.58 7.94163 1057.32 9.48899C1061.05 11.0364 1064.45 13.3043 1067.31 16.1634C1070.17 19.0225 1072.43 22.4166 1073.98 26.152C1075.53 29.8874 1076.32 33.8908 1076.32 37.9336L1076.33 283.141Z" fill="black"/>
<path d="M1045.54 0H505.859L717.243 321.043H1045.54C1055.6 321.034 1065.25 317.037 1072.37 309.927C1079.49 302.818 1083.5 293.177 1083.52 283.117V37.9416C1083.5 27.8799 1079.49 18.2355 1072.37 11.1231C1065.26 4.01066 1055.61 0.0106127 1045.54 0Z" fill="url(#paint0_linear_1_50)"/>
<path d="M380.334 78.4789C380.334 84.8981 378.729 90.5148 374.717 94.5268C369.903 99.3411 364.286 101.748 357.065 101.748C349.843 101.748 344.226 99.3411 339.412 94.5268C334.598 89.7124 332.191 84.0957 332.191 76.8742C332.191 69.6526 334.598 64.0359 339.412 59.2215C344.226 54.4072 349.843 52 357.065 52C360.274 52 363.484 52.8024 366.693 54.4072C369.903 56.012 372.31 57.6167 373.915 60.0239L369.903 64.0359C366.693 60.0239 362.681 58.4191 357.065 58.4191C352.25 58.4191 347.436 60.0239 344.226 64.0359C340.214 67.2455 338.61 72.0598 338.61 77.6766C338.61 83.2933 340.214 88.1077 344.226 91.3172C348.238 94.5268 352.25 96.934 357.065 96.934C362.681 96.934 366.693 95.3292 370.705 91.3172C373.113 88.9101 374.717 85.7005 374.717 81.6885H357.065V75.2694H380.334V78.4789ZM417.244 58.4191H395.58V73.6646H415.639V79.2813H395.58V94.5268H417.244V100.946H389.16V52.8024H417.244V58.4191ZM443.723 100.946H437.304V58.4191H423.663V52.8024H457.364V58.4191H443.723V100.946ZM480.633 100.946V52.8024H487.052V100.946H480.633ZM514.334 100.946H507.914V58.4191H494.274V52.8024H527.172V58.4191H513.531V100.946H514.334ZM590.561 94.5268C585.746 99.3411 580.13 101.748 572.908 101.748C565.687 101.748 560.07 99.3411 555.256 94.5268C550.441 89.7124 548.034 84.0957 548.034 76.8742C548.034 69.6526 550.441 64.0359 555.256 59.2215C560.07 54.4072 565.687 52 572.908 52C580.13 52 585.746 54.4072 590.561 59.2215C595.375 64.0359 597.782 69.6526 597.782 76.8742C597.782 84.0957 595.375 89.7124 590.561 94.5268ZM560.07 90.5148C563.28 93.7244 568.094 96.1316 572.908 96.1316C577.723 96.1316 582.537 94.5268 585.747 90.5148C588.956 87.3053 591.363 82.4909 591.363 76.8742C591.363 71.2574 589.758 66.4431 585.747 63.2335C582.537 60.0239 577.723 57.6167 572.908 57.6167C568.094 57.6167 563.28 59.2215 560.07 63.2335C556.86 66.4431 554.453 71.2574 554.453 76.8742C554.453 82.4909 556.058 87.3053 560.07 90.5148ZM606.609 100.946V52.8024H613.83L637.1 90.5148V52.8024H643.519V100.946H637.1L612.225 61.6287V100.946H606.609Z" fill="white" stroke="white" stroke-width="1.18519" stroke-miterlimit="10"/>
<path d="M546.429 171.556C527.172 171.556 511.926 186 511.926 206.059C511.926 225.317 527.172 240.562 546.429 240.562C565.687 240.562 580.932 226.119 580.932 206.059C580.932 185.197 565.687 171.556 546.429 171.556ZM546.429 226.119C535.998 226.119 527.172 217.293 527.172 205.257C527.172 193.221 535.998 184.395 546.429 184.395C556.86 184.395 565.687 192.419 565.687 205.257C565.687 217.293 556.86 226.119 546.429 226.119ZM471.807 171.556C452.549 171.556 437.304 186 437.304 206.059C437.304 225.317 452.549 240.562 471.807 240.562C491.064 240.562 506.31 226.119 506.31 206.059C506.31 185.197 491.064 171.556 471.807 171.556ZM471.807 226.119C461.376 226.119 452.549 217.293 452.549 205.257C452.549 193.221 461.376 184.395 471.807 184.395C482.238 184.395 491.064 192.419 491.064 205.257C491.064 217.293 482.238 226.119 471.807 226.119ZM382.741 181.988V196.431H417.244C416.442 204.455 413.232 210.874 409.22 214.886C404.406 219.7 396.382 225.317 382.741 225.317C361.077 225.317 345.029 208.467 345.029 186.802C345.029 165.137 361.879 148.287 382.741 148.287C393.975 148.287 402.801 153.101 409.22 158.718L419.651 148.287C410.825 140.263 399.591 133.844 383.544 133.844C354.657 133.844 329.783 157.916 329.783 186.802C329.783 215.688 354.657 239.76 383.544 239.76C399.591 239.76 410.825 234.945 420.454 224.514C430.082 214.886 433.292 201.245 433.292 190.814C433.292 187.604 433.292 184.395 432.49 181.988H382.741ZM747.027 193.221C743.818 185.197 735.794 171.556 718.141 171.556C700.489 171.556 686.046 185.197 686.046 206.059C686.046 225.317 700.489 240.562 719.746 240.562C734.991 240.562 744.62 230.934 747.83 225.317L736.596 217.293C732.584 222.91 727.77 226.922 719.746 226.922C711.722 226.922 706.908 223.712 702.896 216.49L748.632 197.233L747.027 193.221ZM700.489 204.455C700.489 191.616 710.92 184.395 718.141 184.395C723.758 184.395 729.375 187.604 730.98 191.616L700.489 204.455ZM662.776 237.353H678.022V137.054H662.776V237.353ZM638.704 178.778C634.692 174.766 628.273 170.754 620.249 170.754C603.399 170.754 587.351 186 587.351 205.257C587.351 224.514 602.597 238.957 620.249 238.957C628.273 238.957 634.692 234.945 637.902 230.934H638.704V235.748C638.704 248.586 631.483 255.808 620.249 255.808C611.423 255.808 605.004 249.389 603.399 243.772L590.561 249.389C594.573 258.215 604.202 269.448 621.052 269.448C638.704 269.448 653.147 259.017 653.147 234.143V173.161H638.704V178.778ZM621.052 226.119C610.621 226.119 601.794 217.293 601.794 205.257C601.794 193.221 610.621 184.395 621.052 184.395C631.483 184.395 639.507 193.221 639.507 205.257C639.507 217.293 631.483 226.119 621.052 226.119ZM816.836 137.054H780.728V237.353H795.973V199.64H816.836C833.686 199.64 849.734 187.604 849.734 168.347C849.734 149.09 833.686 137.054 816.836 137.054ZM817.638 185.197H795.973V150.694H817.638C828.871 150.694 835.291 160.323 835.291 167.545C834.488 176.371 828.069 185.197 817.638 185.197ZM909.913 170.754C898.68 170.754 887.446 175.568 883.434 186L897.075 191.616C900.284 186 905.099 184.395 910.715 184.395C918.739 184.395 925.961 189.209 926.763 197.233V198.035C924.356 196.431 917.937 194.023 911.518 194.023C897.075 194.023 882.632 202.047 882.632 216.49C882.632 230.131 894.668 238.957 907.506 238.957C917.937 238.957 922.751 234.143 926.763 229.329H927.566V237.353H942.009V198.838C940.404 181.185 926.763 170.754 909.913 170.754ZM908.308 226.119C903.494 226.119 896.272 223.712 896.272 217.293C896.272 209.269 905.099 206.862 912.32 206.862C918.739 206.862 921.949 208.467 925.961 210.071C924.356 219.7 916.332 226.119 908.308 226.119ZM992.559 173.161L975.709 216.49H974.907L957.254 173.161H941.206L967.685 234.143L952.44 267.844H967.685L1008.61 173.161H992.559ZM857.758 237.353H873.003V137.054H857.758V237.353Z" fill="white"/>
<path d="M83.4488 56.8144C81.0416 59.2216 80.2393 63.2335 80.2393 68.0479V245.377C80.2393 250.191 81.844 254.203 84.2512 256.61L85.0536 257.412L184.55 157.916V156.311L83.4488 56.8144Z" fill="url(#paint1_linear_1_50)"/>
<path d="M216.646 191.616L183.748 158.718V156.311L216.646 123.413L217.448 124.215L256.766 146.682C267.999 153.101 267.999 163.533 256.766 169.952L216.646 191.616Z" fill="url(#paint2_linear_1_50)"/>
<path d="M217.448 190.814L183.748 157.113L83.4489 257.413C87.4608 261.424 93.0776 261.424 100.299 258.215L217.448 190.814Z" fill="url(#paint3_linear_1_50)"/>
<path d="M217.448 123.413L100.299 56.8144C93.0776 52.8024 87.4608 53.6048 83.4489 57.6168L183.748 157.113L217.448 123.413Z" fill="url(#paint4_linear_1_50)"/>
<path opacity="0.2" d="M216.646 190.012L100.299 255.808C93.88 259.82 88.2632 259.017 84.2512 255.808L83.4489 256.61L84.2512 257.412C88.2632 260.622 93.88 261.424 100.299 257.412L216.646 190.012Z" fill="black"/>
<path opacity="0.12" d="M83.4488 255.808C81.0416 253.401 80.2393 249.389 80.2393 244.574V245.377C80.2393 250.191 81.844 254.203 84.2512 256.61V255.808H83.4488ZM256.766 167.545L216.646 190.012L217.448 190.814L256.766 168.347C262.382 165.137 264.79 161.125 264.79 157.113C264.79 161.125 261.58 164.335 256.766 167.545Z" fill="black"/>
<path opacity="0.25" d="M100.299 57.6168L256.766 146.682C261.58 149.892 264.79 153.101 264.79 157.113C264.79 153.101 262.382 149.09 256.766 145.88L100.299 56.8144C89.0656 50.3952 80.2393 55.2096 80.2393 68.0479V68.8503C80.2393 56.8144 89.0656 51.1976 100.299 57.6168Z" fill="white"/>
<defs>
<linearGradient id="paint0_linear_1_50" x1="794.679" y1="321.895" x2="794.679" y2="-835.94" gradientUnits="userSpaceOnUse">
<stop stop-color="#1A1A1A" stop-opacity="0.1"/>
<stop offset="0.123" stop-color="#212121" stop-opacity="0.151"/>
<stop offset="0.308" stop-color="#353535" stop-opacity="0.227"/>
<stop offset="0.532" stop-color="#575757" stop-opacity="0.318"/>
<stop offset="0.783" stop-color="#858585" stop-opacity="0.421"/>
<stop offset="1" stop-color="#B3B3B3" stop-opacity="0.51"/>
</linearGradient>
<linearGradient id="paint1_linear_1_50" x1="174.922" y1="66.5233" x2="40.256" y2="201.181" gradientUnits="userSpaceOnUse">
<stop stop-color="#00A0FF"/>
<stop offset="0.007" stop-color="#00A1FF"/>
<stop offset="0.26" stop-color="#00BEFF"/>
<stop offset="0.512" stop-color="#00D2FF"/>
<stop offset="0.76" stop-color="#00DFFF"/>
<stop offset="1" stop-color="#00E3FF"/>
</linearGradient>
<linearGradient id="paint2_linear_1_50" x1="271.481" y1="157.121" x2="77.3265" y2="157.121" gradientUnits="userSpaceOnUse">
<stop stop-color="#FFE000"/>
<stop offset="0.409" stop-color="#FFBD00"/>
<stop offset="0.775" stop-color="#FFA500"/>
<stop offset="1" stop-color="#FF9C00"/>
</linearGradient>
<linearGradient id="paint3_linear_1_50" x1="199.21" y1="175.536" x2="16.6016" y2="358.145" gradientUnits="userSpaceOnUse">
<stop stop-color="#FF3A44"/>
<stop offset="1" stop-color="#C31162"/>
</linearGradient>
<linearGradient id="paint4_linear_1_50" x1="58.5506" y1="-1.95285" x2="140.098" y2="79.5943" gradientUnits="userSpaceOnUse">
<stop stop-color="#32A071"/>
<stop offset="0.069" stop-color="#2DA771"/>
<stop offset="0.476" stop-color="#15CF74"/>
<stop offset="0.801" stop-color="#06E775"/>
<stop offset="1" stop-color="#00F076"/>
</linearGradient>
</defs>
</svg>
