<?xml version="1.0" encoding="UTF-8"?>
<svg xmlns="http://www.w3.org/2000/svg" width="49" height="49" viewBox="0 0 49 49" fill="none">
  <path d="M4.26615 20.1675C6.47752 19.6734 8.49546 19.6246 10.1113 20.0278C11.641 20.4094 12.7698 21.1661 13.4712 22.2784C12.7187 24.2633 12.1694 26.3561 11.8287 28.5458L4.26615 20.1675ZM4.26615 20.1675V20.2012V20.2016H4.11624L4.26615 20.1675ZM15.2394 38.4757L15.3089 38.4062L18.1418 35.574L13.4209 30.8538L10.588 33.6859L15.2394 38.4757ZM15.2394 38.4757C15.1527 38.5351 15.0505 38.5669 14.9426 38.5669C14.8017 38.5669 14.6697 38.5123 14.57 38.4126L10.5879 34.4312C10.3829 34.2261 10.3827 33.8916 10.5879 33.686L15.2394 38.4757ZM46.8506 3.81287L46.701 3.80121C46.6987 3.83133 46.6989 3.85993 46.7002 3.88633C46.4628 6.68246 45.8273 10.0367 44.6678 13.5128L35.487 4.3333C38.9512 3.17701 42.2935 2.54164 45.0802 2.30266C45.1102 2.304 45.1412 2.30375 45.1738 2.30101L45.1745 2.30094C45.5906 2.26374 45.998 2.41133 46.2934 2.70669L46.3994 2.60062L46.2934 2.70669C46.5822 2.99547 46.7306 3.39466 46.701 3.802L46.8506 3.81287ZM46.8506 3.81287C46.8486 3.83844 46.849 3.86362 46.8506 3.88839V3.81287ZM45.1996 0.851836L45.199 0.842279L45.0464 0.854987C42.9556 1.02912 39.6394 1.49631 35.7051 2.73687C31.9628 3.91648 28.5197 5.5219 25.4717 7.50877C24.9612 7.84148 24.464 8.18445 23.9793 8.53666C23.9028 8.51224 23.8209 8.50008 23.7358 8.503C23.3415 8.51648 22.9498 8.51769 22.5328 8.51809L22.5327 8.51809L22.53 8.5181C20.6238 8.5213 18.4431 8.52497 15.4375 9.89035L15.4996 10.0269L15.4375 9.89035C12.0775 11.417 8.16369 14.445 3.47583 19.1326C3.19347 19.415 3.19347 19.8723 3.47584 20.1546C3.61166 20.2905 3.78836 20.3609 3.96615 20.3661V20.3903L4.15 20.3477C6.40508 19.8254 8.45259 19.7685 10.075 20.1733L10.075 20.1733C11.5458 20.5402 12.6247 21.2564 13.3042 22.296C12.5445 24.3154 11.9937 26.4452 11.6573 28.6735L11.6313 28.8458H11.6525C11.6667 29.0083 11.7355 29.1674 11.8606 29.2925C11.8606 29.2925 11.8606 29.2925 11.8606 29.2926L12.3995 29.8317L9.56659 32.6643C8.79751 33.4332 8.79751 34.6845 9.56659 35.4534L9.84811 35.7349L6.82176 38.7604C6.53933 39.0428 6.53947 39.5001 6.82165 39.7827L6.82175 39.7828C6.96291 39.924 7.1482 39.9946 7.333 39.9946C7.5178 39.9946 7.7031 39.924 7.84425 39.7828L10.8706 36.7569L12.2449 38.131L9.21856 41.1569C8.9362 41.4392 8.9362 41.8966 9.21856 42.1789C9.35972 42.32 9.54501 42.3906 9.72981 42.3906C9.91461 42.3906 10.0999 42.32 10.2411 42.1789L13.2675 39.153L13.549 39.4345C13.9216 39.807 14.4173 40.0122 14.9438 40.0122C15.4708 40.0122 15.9664 39.8066 16.339 39.4345L16.339 39.4345C16.3662 39.4073 16.3897 39.379 16.4103 39.3505L19.1657 36.5954L19.7046 37.1343C19.8293 37.259 19.9885 37.3286 20.1513 37.3431V37.3636L20.3237 37.3375C22.5711 36.9982 24.7185 36.4408 26.7534 35.6712C27.665 36.3543 28.3004 37.3767 28.6389 38.7334C29.0435 40.3555 28.9869 42.4028 28.4645 44.6572L28.4219 44.841H28.4465C28.4514 45.0188 28.5215 45.1952 28.6571 45.3311L28.6572 45.3313C28.7984 45.4724 28.9837 45.543 29.1685 45.543C29.3533 45.543 29.5386 45.4724 29.6797 45.3313C34.368 40.6441 37.3965 36.7309 38.9234 33.3713C40.289 30.3662 40.2927 28.1858 40.2958 26.2803V26.2776V26.2775C40.2962 25.9159 40.297 25.5738 40.3061 25.2319C40.7199 24.6716 41.1206 24.0945 41.5075 23.5001L41.3818 23.4182L41.5075 23.5001C43.4944 20.4476 45.0984 17.0006 46.2761 13.2549L46.133 13.2099L46.2761 13.2549C47.514 9.31723 47.9781 6.00214 48.1495 3.91241L48.162 3.75999L48.1498 3.75922C48.166 2.98479 47.8668 2.23578 47.3156 1.6847C46.7532 1.12232 45.9892 0.823578 45.1996 0.851836ZM3.58189 20.0486C3.68846 20.1551 3.82655 20.2109 3.96615 20.216L3.58189 19.2387C3.35812 19.4624 3.35812 19.8248 3.58189 20.0486ZM6.1432 18.547C10.6035 14.2979 13.8122 12.1565 16.3306 11.0747C18.7167 10.0498 20.4907 9.97228 22.1464 9.9642C20.0151 11.7467 18.1748 13.74 16.6529 15.9206C15.5911 17.4416 14.6832 19.0571 13.9312 20.7583C13.0595 19.8065 11.8667 19.1303 10.4238 18.7705L10.4238 18.7704C9.16637 18.4571 7.71356 18.3846 6.1432 18.547ZM33.0904 32.3326L33.0904 32.3326C35.1887 30.8664 37.1135 29.106 38.8442 27.0745C38.8198 28.6782 38.6661 30.4297 37.6142 32.7579C36.4957 35.2333 34.3579 38.3684 30.2637 42.6648C30.4263 41.0945 30.3541 39.6416 30.0403 38.3841C29.7049 37.0403 29.0951 35.9136 28.2437 35.0608C29.9482 34.3069 31.5664 33.3972 33.0904 32.3326ZM44.1332 15.0228C41.3072 22.5579 35.9777 30.3427 26.903 34.0558L26.8059 34.0072L26.7421 34.1205C24.8209 34.8927 22.7327 35.4833 20.4648 35.852L13.1422 28.5306C15.2697 15.4489 24.8131 8.30717 33.9775 4.86861L44.1332 15.0228Z" fill="#5458F6" stroke="#5458F6" stroke-width="0.3"></path>
  <path d="M34.7669 14.0168C33.5371 12.7872 31.9014 12.1098 30.1625 12.1098L25.6641 14.1228L25.5581 14.0168C25.5581 14.0168 25.5581 14.0168 25.5581 14.0168C24.3284 15.2463 23.6508 16.8818 23.6508 18.6205C23.6508 20.3595 24.3283 21.9947 25.5581 23.2243C26.7878 24.4538 28.4235 25.1313 30.1625 25.1313C31.9017 25.1313 33.5371 24.4538 34.7669 23.2243C35.9966 21.9947 36.6742 20.3592 36.6742 18.6205C36.6742 16.8818 35.9966 15.2463 34.7669 14.0168ZM33.7448 22.2026C32.7879 23.1593 31.5161 23.6861 30.1625 23.6861C28.8089 23.6861 27.5375 23.1594 26.5802 22.2025C24.6052 20.2278 24.6052 17.0142 26.5802 15.0392C27.5371 14.0825 28.8088 13.5556 30.1625 13.5556C31.5161 13.5556 32.7875 14.0824 33.7448 15.0392C35.7197 17.0143 35.7197 20.2279 33.7448 22.2026Z" fill="#5458F6" stroke="#5458F6" stroke-width="0.3"></path>
  <path d="M7.37132 34.4759L7.37128 34.4759C6.00123 34.6342 4.87682 35.34 4.02543 36.5877C3.1135 37.9244 2.60748 39.7597 2.40315 41.5953C2.20392 43.3852 2.29341 45.1582 2.56168 46.4393C3.84299 46.7076 5.61629 46.797 7.40642 46.5978C9.24229 46.3935 11.0779 45.8876 12.4148 44.9758C13.6622 44.1245 14.3681 43.0003 14.5265 41.6304C14.572 41.2342 14.9305 40.9493 15.3274 40.9956M7.37132 34.4759L14.6755 41.6477C14.7115 41.3336 14.9956 41.1079 15.3101 41.1446C15.6246 41.181 15.85 41.4651 15.812 41.7791M7.37132 34.4759C7.76759 34.43 8.05207 34.0716 8.00617 33.6752L7.85786 33.6923M7.37132 34.4759L7.85786 33.6923M15.3274 40.9956C15.3274 40.9956 15.3275 40.9957 15.3275 40.9957L15.3101 41.1446L15.3273 40.9956C15.3273 40.9956 15.3274 40.9956 15.3274 40.9956ZM15.3274 40.9956C15.7237 41.0415 16.0087 41.3997 15.961 41.7967M15.961 41.7967C15.961 41.7966 15.961 41.7964 15.961 41.7963L15.812 41.7791M15.961 41.7967C15.7521 43.6055 14.8282 45.0785 13.228 46.1702C11.085 47.6321 8.05117 48.1504 5.46634 48.1504C4.03859 48.1504 2.73734 47.9921 1.78432 47.7417M15.961 41.7967C15.961 41.7968 15.9609 41.797 15.9609 41.7971L15.812 41.7791M15.812 41.7791L1.78432 47.7417M1.78432 47.7417L1.7852 47.7419L1.78523 47.7418L1.78529 47.7418M1.78432 47.7417L1.79032 47.7428C1.79068 47.7428 1.79032 47.7428 1.78952 47.7426C1.78856 47.7425 1.787 47.7422 1.78529 47.7418M1.78529 47.7418C1.78527 47.7418 1.78525 47.7418 1.78523 47.7418M1.78529 47.7418L1.78523 47.7418M1.78523 47.7418L1.78524 47.7418L1.78523 47.7418ZM1.7625 47.7358C1.74661 47.7313 1.73029 47.7261 1.71348 47.7199L1.71316 47.7198C1.71014 47.7188 1.70042 47.7154 1.6912 47.7116C1.67962 47.7071 1.66765 47.7017 1.66025 47.6984C1.65862 47.6977 1.65721 47.6971 1.65607 47.6966L1.65261 47.695L1.65263 47.695C1.65238 47.6949 1.65195 47.6947 1.65137 47.6944C1.64769 47.6927 1.63788 47.6882 1.62813 47.683C1.61455 47.6763 1.60254 47.6692 1.59518 47.6648C1.59515 47.6648 1.59512 47.6648 1.59509 47.6648L1.59382 47.664L1.7625 47.7358ZM1.7625 47.7358C1.7637 47.7362 1.76503 47.7366 1.76644 47.7371C1.76649 47.7371 1.76655 47.7371 1.7666 47.7371M1.7625 47.7358L1.7666 47.7371M1.7666 47.7371L1.76655 47.7373L1.7687 47.7378C1.76887 47.7378 1.76904 47.7379 1.76921 47.7379L1.76921 47.7379L1.76958 47.738C1.77209 47.7388 1.77496 47.7395 1.77815 47.7403L1.7666 47.7371ZM7.85786 33.6923L8.00617 33.6752C7.96028 33.2788 7.60173 32.9945 7.20498 33.0404L7.20498 33.0404M7.85786 33.6923L7.20498 33.0404M7.20498 33.0404C5.39619 33.2495 3.92247 34.1736 2.83056 35.7734L2.83054 35.7734M7.20498 33.0404L2.83054 35.7734M2.83054 35.7734C1.69579 37.4364 1.1304 39.6341 0.933399 41.7382C0.736498 43.8413 0.905886 45.8697 1.25675 47.2089M2.83054 35.7734L1.25675 47.2089M1.25675 47.2089C1.25699 47.21 1.25727 47.2113 1.25759 47.2126M1.25675 47.2089L1.25759 47.2126M1.25759 47.2126L1.2574 47.2127L1.25821 47.2151L1.25759 47.2126ZM1.40825 47.5079C1.39947 47.4973 1.38986 47.4854 1.38026 47.4724C1.37748 47.4688 1.37218 47.4619 1.36711 47.4543L1.49168 47.3712L1.36711 47.4543L1.36645 47.4533C1.35884 47.4419 1.34898 47.4271 1.33936 47.4109L1.3381 47.4088L1.33809 47.4088L1.33352 47.4019L1.33381 47.4017C1.31369 47.3666 1.29466 47.3277 1.27954 47.2845C1.27608 47.2757 1.27383 47.2682 1.27258 47.264L1.27073 47.2575C1.27045 47.2565 1.27035 47.2562 1.27035 47.2562L1.2699 47.2548L1.26991 47.2548L1.26665 47.2443L1.26177 47.2281L1.25986 47.2211C1.25965 47.2203 1.25952 47.2199 1.25945 47.2196L1.40825 47.5079ZM1.40825 47.5079L1.40739 47.5068L1.52348 47.4118L1.40825 47.5079ZM1.40825 47.5079L1.41499 47.5159L1.41817 47.5196L1.41813 47.5196L1.42075 47.5227C1.43199 47.5357 1.44333 47.547 1.45079 47.5545L1.45178 47.5555L1.45179 47.5555L1.45235 47.556C1.45648 47.5602 1.46285 47.5665 1.47007 47.5731L1.4708 47.5738C1.48113 47.5832 1.4916 47.5921 1.50223 47.6007M1.40825 47.5079L1.50223 47.6007M1.50223 47.6007L1.50274 47.6012L1.5076 47.6053C1.51099 47.6082 1.51641 47.6126 1.52313 47.6174L1.50223 47.6007ZM1.25524 47.201L1.25538 47.2018L1.25524 47.201Z" fill="#5458F6" stroke="#5458F6" stroke-width="0.3"></path>
</svg>
