<?xml version="1.0" encoding="UTF-8"?>
<svg xmlns="http://www.w3.org/2000/svg" width="49" height="58" viewBox="0 0 49 58" fill="none">
  <path d="M47.5354 56.0304H46.903L46.9026 39.2211C46.9026 38.679 46.5411 38.3174 45.9989 38.3174H44.3722V0.903672C44.3722 0.361558 44.0107 0 43.4685 0H25.0327C24.4906 0 24.1291 0.361548 24.1291 0.903672V19.1584L21.9602 18.0741V5.06075C21.9602 4.51864 21.5987 4.15708 21.0565 4.15708H5.06088C4.51877 4.15708 4.15721 4.51863 4.15721 5.06075V31.6296H2.44016C1.89805 31.6296 1.53649 31.9912 1.53649 32.5333V56.0304L0.903673 56.0309C0.361559 56.0309 0 56.3924 0 56.9345C0 57.4767 0.361548 57.8382 0.903673 57.8382H47.5358C48.0779 57.8382 48.4395 57.4767 48.4395 56.9345C48.4399 56.392 48.0784 56.0309 47.5362 56.0309L47.5354 56.0304ZM45.0953 56.0304H42.5648V52.506C42.5648 50.3372 40.8478 48.6201 38.6789 48.6201C36.5101 48.6201 34.793 50.3372 34.793 52.506V56.0304H32.3529V40.1243H45.0052V56.0304H45.0953ZM30.6355 24.0392V56.0304H17.8927C17.8927 52.506 17.8927 69.4965 17.8024 18.2546L30.6355 24.0392ZM40.7572 56.0304H36.6001V52.506C36.6001 51.3311 37.5037 50.4274 38.6787 50.4274C39.8537 50.4274 40.7573 51.3311 40.7573 52.506L40.7572 56.0304ZM25.9364 19.9715V1.80628H42.5647V38.3168H32.443V23.4959C32.443 23.1344 32.2624 22.8635 31.9009 22.6826L25.9364 19.9715ZM5.96366 5.96336H20.1518V17.2598L17.3501 15.9946C17.0788 15.9043 16.7177 15.9043 16.4464 16.0849C16.1752 16.2654 15.9946 16.5367 15.9946 16.808L15.995 31.6288H5.96348L5.96366 5.96336ZM3.34298 33.4365H15.9953V56.0294H3.34298V33.4365Z" fill="#5458F6"></path>
  <path d="M13.554 43.9199H5.87242C5.33031 43.9199 4.96875 44.2815 4.96875 44.8236C4.96875 45.3657 5.3303 45.7273 5.87242 45.7273H13.554C14.0961 45.7273 14.4577 45.3657 14.4577 44.8236C14.4577 44.3718 14.0059 43.9199 13.554 43.9199Z" fill="#5458F6"></path>
  <path d="M13.554 47.9863H5.87242C5.33031 47.9863 4.96875 48.3479 4.96875 48.89C4.96875 49.4321 5.3303 49.7937 5.87242 49.7937H13.554C14.0961 49.7937 14.4577 49.4321 14.4577 48.89C14.4577 48.3479 14.0059 47.9863 13.554 47.9863Z" fill="#5458F6"></path>
  <path d="M13.554 51.9629H5.87242C5.33031 51.9629 4.96875 52.3244 4.96875 52.8666C4.96875 53.4087 5.3303 53.7702 5.87242 53.7702H13.554C14.0961 53.7702 14.4577 53.4087 14.4577 52.8666C14.4577 52.3244 14.0059 51.9629 13.554 51.9629Z" fill="#5458F6"></path>
  <path d="M21.3255 54.3134C21.8677 54.3134 22.2292 53.9519 22.2292 53.4098V52.4154C22.2292 51.8733 21.8677 51.5117 21.3255 51.5117C20.7834 51.5117 20.4219 51.8733 20.4219 52.4154V53.4093C20.4219 53.9519 20.8737 54.3134 21.3255 54.3134Z" fill="#5458F6"></path>
  <path d="M27.1109 54.3134C27.6531 54.3134 28.0146 53.9519 28.0146 53.4098V52.4154C28.0146 51.8733 27.6531 51.5117 27.1109 51.5117C26.5688 51.5117 26.2073 51.8733 26.2073 52.4154V53.4093C26.2073 53.9519 26.5688 54.3134 27.1109 54.3134Z" fill="#5458F6"></path>
  <path d="M21.3255 49.9771C21.8677 49.9771 22.2292 49.6155 22.2292 49.0734V48.0795C22.2292 47.5373 21.8677 47.1758 21.3255 47.1758C20.7834 47.1758 20.4219 47.5373 20.4219 48.0795V49.0734C20.4219 49.5252 20.8737 49.9771 21.3255 49.9771Z" fill="#5458F6"></path>
  <path d="M27.1107 49.9771C27.6528 49.9771 28.0144 49.6155 28.0144 49.0734V48.0795C28.0144 47.5373 27.6528 47.1758 27.1107 47.1758C26.5686 47.1758 26.207 47.5373 26.207 48.0795V49.0734C26.207 49.5252 26.5686 49.9771 27.1107 49.9771Z" fill="#5458F6"></path>
  <path d="M5.87242 37.7741H13.554C14.0961 37.7741 14.4577 37.4126 14.4577 36.8705C14.4577 36.3284 14.0961 35.9668 13.554 35.9668H5.87242C5.33031 35.9668 4.96875 36.3283 4.96875 36.8705C4.96875 37.3223 5.3303 37.7741 5.87242 37.7741Z" fill="#5458F6"></path>
  <path d="M13.554 39.9453H5.87242C5.33031 39.9453 4.96875 40.3069 4.96875 40.849C4.96875 41.3911 5.3303 41.7527 5.87242 41.7527H13.554C14.0961 41.7527 14.4577 41.3911 14.4577 40.849C14.4577 40.3069 14.0059 39.9453 13.554 39.9453Z" fill="#5458F6"></path>
  <path d="M21.3255 45.6372C21.8677 45.6372 22.2292 45.2757 22.2292 44.7336V43.7396C22.2292 43.1975 21.8677 42.8359 21.3255 42.8359C20.7834 42.8359 20.4219 43.1975 20.4219 43.7396V44.7336C20.4219 45.1854 20.8737 45.6372 21.3255 45.6372Z" fill="#5458F6"></path>
  <path d="M27.1107 45.6372C27.6528 45.6372 28.0144 45.2757 28.0144 44.7336V43.7396C28.0144 43.1975 27.6528 42.8359 27.1107 42.8359C26.5686 42.8359 26.207 43.1975 26.207 43.7396V44.7336C26.207 45.1854 26.5686 45.6372 27.1107 45.6372Z" fill="#5458F6"></path>
  <path d="M21.3255 41.2075C21.8677 41.2075 22.2292 40.846 22.2292 40.3039V39.3099C22.2292 38.7678 21.8677 38.4062 21.3255 38.4062C20.7834 38.4062 20.4219 38.7678 20.4219 39.3099V40.3039C20.4219 40.846 20.8737 41.2075 21.3255 41.2075Z" fill="#5458F6"></path>
  <path d="M27.1107 41.2075C27.6528 41.2075 28.0144 40.846 28.0144 40.3039V39.3099C28.0144 38.7678 27.6528 38.4062 27.1107 38.4062C26.5686 38.4062 26.207 38.7678 26.207 39.3099V40.3039C26.207 40.846 26.5686 41.2075 27.1107 41.2075Z" fill="#5458F6"></path>
  <path d="M21.3255 36.8716C21.8677 36.8716 22.2292 36.5101 22.2292 35.9679V34.974C22.2292 34.4319 21.8677 34.0703 21.3255 34.0703C20.7834 34.0703 20.4219 34.4319 20.4219 34.974V35.9679C20.4219 36.51 20.8737 36.8716 21.3255 36.8716Z" fill="#5458F6"></path>
  <path d="M27.1107 36.8716C27.6528 36.8716 28.0144 36.5101 28.0144 35.9679V34.974C28.0144 34.4319 27.6528 34.0703 27.1107 34.0703C26.5686 34.0703 26.207 34.4319 26.207 34.974V35.9679C26.207 36.51 26.5686 36.8716 27.1107 36.8716Z" fill="#5458F6"></path>
  <path d="M21.3255 32.5318C21.8677 32.5318 22.2292 32.1702 22.2292 31.6281V30.6341C22.2292 30.092 21.8677 29.7305 21.3255 29.7305C20.7834 29.7305 20.4219 30.092 20.4219 30.6341V31.6281C20.4219 32.1706 20.8737 32.5318 21.3255 32.5318Z" fill="#5458F6"></path>
  <path d="M27.1107 32.5318C27.6528 32.5318 28.0144 32.1702 28.0144 31.6281V30.6341C28.0144 30.092 27.6528 29.7305 27.1107 29.7305C26.5686 29.7305 26.207 30.092 26.207 30.6341V31.6281C26.207 32.1706 26.5686 32.5318 27.1107 32.5318Z" fill="#5458F6"></path>
  <path d="M21.3255 28.1958C21.8677 28.1958 22.2292 27.8343 22.2292 27.2922V26.2982C22.2292 25.7561 21.8677 25.3945 21.3255 25.3945C20.7834 25.3945 20.4219 25.7561 20.4219 26.2982V27.2922C20.4219 27.744 20.8737 28.1958 21.3255 28.1958Z" fill="#5458F6"></path>
  <path d="M27.1107 28.1958C27.6528 28.1958 28.0144 27.8343 28.0144 27.2922V26.2982C28.0144 25.7561 27.6528 25.3945 27.1107 25.3945C26.5686 25.3945 26.207 25.7561 26.207 26.2982V27.2922C26.207 27.744 26.5686 28.1958 27.1107 28.1958Z" fill="#5458F6"></path>
  <path d="M21.3255 23.8579C21.8677 23.8579 22.2292 23.4964 22.2292 22.9543V21.9603C22.2292 21.4182 21.8677 21.0566 21.3255 21.0566C20.7834 21.0566 20.4219 21.4182 20.4219 21.9603V22.9543C20.4219 23.4061 20.8737 23.8579 21.3255 23.8579Z" fill="#5458F6"></path>
  <path d="M29.6396 4.51782H28.6456C28.1035 4.51782 27.7419 4.87937 27.7419 5.42149C27.7419 5.96361 28.1035 6.32517 28.6456 6.32517H29.6396C30.1817 6.32517 30.5432 5.96362 30.5432 5.42149C30.5432 4.96966 30.0914 4.51782 29.6396 4.51782Z" fill="#5458F6"></path>
  <path d="M33.7982 6.32492H34.7922C35.3343 6.32492 35.6958 5.96338 35.6958 5.42125C35.6958 4.87914 35.3343 4.51758 34.7922 4.51758H33.7982C33.2561 4.51758 32.8945 4.87913 32.8945 5.42125C32.8945 5.96336 33.2561 6.32492 33.7982 6.32492Z" fill="#5458F6"></path>
  <path d="M38.8568 6.32492H39.8507C40.3929 6.32492 40.7544 5.96338 40.7544 5.42125C40.7544 4.87914 40.3929 4.51758 39.8507 4.51758H38.8568C38.3147 4.51758 37.9531 4.87913 37.9531 5.42125C37.9531 5.96336 38.405 6.32492 38.8568 6.32492Z" fill="#5458F6"></path>
  <path d="M29.6396 8.22266H28.6456C28.1035 8.22266 27.7419 8.5842 27.7419 9.12633C27.7419 9.66844 28.1035 10.03 28.6456 10.03L29.6396 10.0304C30.1817 10.0304 30.5432 9.66887 30.5432 9.12674C30.5432 8.5842 30.0914 8.22266 29.6396 8.22266V8.22266Z" fill="#5458F6"></path>
  <path d="M33.7982 10.03H34.7922C35.3343 10.03 35.6958 9.66845 35.6958 9.12633C35.6958 8.5842 35.3343 8.22266 34.7922 8.22266H33.7982C33.2561 8.22266 32.8945 8.5842 32.8945 9.12633C32.8945 9.57816 33.2561 10.03 33.7982 10.03Z" fill="#5458F6"></path>
  <path d="M38.8568 10.03H39.8507C40.3929 10.03 40.7544 9.66845 40.7544 9.12633C40.7544 8.5842 40.3929 8.22266 39.8507 8.22266H38.8568C38.3147 8.22266 37.9531 8.5842 37.9531 9.12633C37.9531 9.57816 38.405 10.03 38.8568 10.03Z" fill="#5458F6"></path>
  <path d="M29.6398 11.8398H28.6459C28.1037 11.8398 27.7422 12.2014 27.7422 12.7435C27.7422 13.2856 28.1037 13.6472 28.6459 13.6472H29.6398C30.1819 13.6472 30.5435 13.2856 30.5435 12.7435C30.5435 12.2917 30.0916 11.8398 29.6398 11.8398Z" fill="#5458F6"></path>
  <path d="M33.7982 13.6472H34.7922C35.3343 13.6472 35.6958 13.2856 35.6958 12.7435C35.6958 12.2014 35.3343 11.8398 34.7922 11.8398H33.7982C33.2561 11.8398 32.8945 12.2014 32.8945 12.7435C32.8945 13.2856 33.2561 13.6472 33.7982 13.6472Z" fill="#5458F6"></path>
  <path d="M38.8568 13.6472H39.8507C40.3929 13.6472 40.7544 13.2856 40.7544 12.7435C40.7544 12.2014 40.3929 11.8398 39.8507 11.8398H38.8568C38.3147 11.8398 37.9531 12.2014 37.9531 12.7435C37.9531 13.2856 38.405 13.6472 38.8568 13.6472Z" fill="#5458F6"></path>
  <path d="M29.6398 15.5449H28.6459C28.1037 15.5449 27.7422 15.9065 27.7422 16.4486C27.7422 16.9907 28.1037 17.3523 28.6459 17.3523H29.6398C30.1819 17.3523 30.5435 16.9907 30.5435 16.4486C30.5435 15.9061 30.0916 15.5449 29.6398 15.5449Z" fill="#5458F6"></path>
  <path d="M33.7982 17.3503H34.7922C35.3343 17.3503 35.6958 16.9888 35.6958 16.4466C35.6958 15.9045 35.3343 15.543 34.7922 15.543H33.7982C33.2561 15.543 32.8945 15.9045 32.8945 16.4466C32.8945 16.8985 33.2561 17.3503 33.7982 17.3503Z" fill="#5458F6"></path>
  <path d="M38.8568 17.3503H39.8507C40.3929 17.3503 40.7544 16.9888 40.7544 16.4466C40.7544 15.9045 40.3929 15.543 39.8507 15.543H38.8568C38.3147 15.543 37.9531 15.9045 37.9531 16.4466C37.9531 16.8985 38.405 17.3503 38.8568 17.3503Z" fill="#5458F6"></path>
  <path d="M29.6398 19.1582H28.6459C28.1037 19.1582 27.7422 19.5198 27.7422 20.0619C27.7422 20.604 28.1037 20.9655 28.6459 20.9655H29.6398C30.1819 20.9655 30.5435 20.604 30.5435 20.0619C30.5435 19.5198 30.0916 19.1582 29.6398 19.1582Z" fill="#5458F6"></path>
  <path d="M33.7982 20.9655H34.7922C35.3343 20.9655 35.6958 20.604 35.6958 20.0619C35.6958 19.5197 35.3343 19.1582 34.7922 19.1582H33.7982C33.2561 19.1582 32.8945 19.5197 32.8945 20.0619C32.8945 20.604 33.2561 20.9655 33.7982 20.9655Z" fill="#5458F6"></path>
  <path d="M38.8568 20.9655H39.8507C40.3929 20.9655 40.7544 20.604 40.7544 20.0619C40.7544 19.5197 40.3929 19.1582 39.8507 19.1582H38.8568C38.3147 19.1582 37.9531 19.5197 37.9531 20.0619C37.9531 20.604 38.405 20.9655 38.8568 20.9655Z" fill="#5458F6"></path>
  <path d="M33.7982 24.5808H34.7922C35.3343 24.5808 35.6958 24.2192 35.6958 23.6771C35.6958 23.135 35.3343 22.7734 34.7922 22.7734H33.7982C33.2561 22.7734 32.8945 23.135 32.8945 23.6771C32.8945 24.2192 33.2561 24.5808 33.7982 24.5808Z" fill="#5458F6"></path>
  <path d="M38.8568 24.5808H39.8507C40.3929 24.5808 40.7544 24.2192 40.7544 23.6771C40.7544 23.135 40.3929 22.7734 39.8507 22.7734H38.8568C38.3147 22.7734 37.9531 23.135 37.9531 23.6771C37.9531 24.2192 38.405 24.5808 38.8568 24.5808Z" fill="#5458F6"></path>
  <path d="M33.7982 28.2859H34.7922C35.3343 28.2859 35.6958 27.9243 35.6958 27.3822C35.6958 26.8401 35.3343 26.4785 34.7922 26.4785H33.7982C33.2561 26.4785 32.8945 26.8401 32.8945 27.3822C32.8945 27.8336 33.2561 28.2859 33.7982 28.2859Z" fill="#5458F6"></path>
  <path d="M38.8568 28.2859H39.8507C40.3929 28.2859 40.7544 27.9243 40.7544 27.3822C40.7544 26.8401 40.3929 26.4785 39.8507 26.4785H38.8568C38.3147 26.4785 37.9531 26.8401 37.9531 27.3822C37.9531 27.8336 38.405 28.2859 38.8568 28.2859Z" fill="#5458F6"></path>
  <path d="M33.7982 31.9011H34.7922C35.3343 31.9011 35.6958 31.5395 35.6958 30.9974C35.6958 30.4553 35.3343 30.0938 34.7922 30.0938H33.7982C33.2561 30.0938 32.8945 30.4553 32.8945 30.9974C32.8945 31.5395 33.2561 31.9011 33.7982 31.9011Z" fill="#5458F6"></path>
  <path d="M38.8568 31.9011H39.8507C40.3929 31.9011 40.7544 31.5395 40.7544 30.9974C40.7544 30.4553 40.3929 30.0938 39.8507 30.0938H38.8568C38.3147 30.0938 37.9531 30.4553 37.9531 30.9974C37.9531 31.5395 38.405 31.9011 38.8568 31.9011Z" fill="#5458F6"></path>
  <path d="M33.7982 35.6062H34.7922C35.3343 35.6062 35.6958 35.2446 35.6958 34.7025C35.6958 34.1604 35.3343 33.7988 34.7922 33.7988H33.7982C33.2561 33.7988 32.8945 34.1604 32.8945 34.7025C32.8945 35.1543 33.2561 35.6062 33.7982 35.6062Z" fill="#5458F6"></path>
  <path d="M38.8568 35.6062H39.8507C40.3929 35.6062 40.7544 35.2446 40.7544 34.7025C40.7544 34.1604 40.3929 33.7988 39.8507 33.7988H38.8568C38.3147 33.7988 37.9531 34.1604 37.9531 34.7025C37.9531 35.1543 38.405 35.6062 38.8568 35.6062Z" fill="#5458F6"></path>
  <path d="M10.5747 8.22266H9.39977C8.85765 8.22266 8.49609 8.5842 8.49609 9.12633C8.49609 9.66844 8.85764 10.03 9.39977 10.03H10.5747C11.1168 10.03 11.4783 9.66845 11.4783 9.12633C11.4783 8.58421 11.1168 8.22266 10.5747 8.22266Z" fill="#5458F6"></path>
  <path d="M15.4505 10.03H16.6255C17.1676 10.03 17.5291 9.66845 17.5291 9.12633C17.5291 8.5842 17.1676 8.22266 16.6255 8.22266H15.4505C14.9084 8.22266 14.5469 8.5842 14.5469 9.12633C14.5469 9.57816 14.9987 10.03 15.4505 10.03Z" fill="#5458F6"></path>
  <path d="M10.5747 12.1074H9.39977C8.85765 12.1074 8.49609 12.469 8.49609 13.0111C8.49609 13.5532 8.85764 13.9148 9.39977 13.9148H10.5747C11.1168 13.9148 11.4783 13.5532 11.4783 13.0111C11.4783 12.5593 11.1168 12.1074 10.5747 12.1074Z" fill="#5458F6"></path>
  <path d="M17.5291 13.013C17.5291 12.4709 17.1676 12.1094 16.6255 12.1094H15.4505C14.9084 12.1094 14.5469 12.4709 14.5469 13.013C14.5469 13.5552 14.9084 13.9167 15.4505 13.9167H16.6255C17.1676 13.9167 17.5291 13.5552 17.5291 13.013Z" fill="#5458F6"></path>
  <path d="M10.5747 16.0859H9.39977C8.85765 16.0859 8.49609 16.4475 8.49609 16.9896C8.49609 17.5317 8.85764 17.8933 9.39977 17.8933H10.5747C11.1168 17.8933 11.4783 17.5317 11.4783 16.9896C11.4783 16.5378 11.1168 16.0859 10.5747 16.0859Z" fill="#5458F6"></path>
  <path d="M10.5747 20.0625H9.39977C8.85765 20.0625 8.49609 20.424 8.49609 20.9662C8.49609 21.5083 8.85764 21.8698 9.39977 21.8698H10.5747C11.1168 21.8698 11.4783 21.5083 11.4783 20.9662C11.4783 20.4241 11.1168 20.0625 10.5747 20.0625Z" fill="#5458F6"></path>
  <path d="M10.5747 24.0371H9.39977C8.85765 24.0371 8.49609 24.3987 8.49609 24.9408C8.49609 25.4829 8.85764 25.8445 9.39977 25.8445H10.5747C11.1168 25.8445 11.4783 25.4829 11.4783 24.9408C11.4783 24.3982 11.1168 24.0371 10.5747 24.0371Z" fill="#5458F6"></path>
  <path d="M10.5747 27.9238H9.39977C8.85765 27.9238 8.49609 28.2854 8.49609 28.8275C8.49609 29.3696 8.85764 29.7312 9.39977 29.7312H10.5747C11.1168 29.7312 11.4783 29.3696 11.4783 28.8275C11.4783 28.3757 11.1168 27.9238 10.5747 27.9238Z" fill="#5458F6"></path>
</svg>
