<?xml version="1.0" encoding="UTF-8"?>
<svg xmlns="http://www.w3.org/2000/svg" width="43" height="42" viewBox="0 0 43 42" fill="none">
  <path d="M10.2884 15.8571H5.8769C5.70406 15.8571 5.53829 15.9263 5.41607 16.0496C5.29385 16.1729 5.22519 16.34 5.22519 16.5144V20.9627C5.22519 21.137 5.29385 21.3042 5.41607 21.4275C5.53829 21.5507 5.70406 21.62 5.8769 21.62H10.2874C10.3732 21.6203 10.4582 21.6035 10.5376 21.5706C10.6169 21.5378 10.6891 21.4894 10.7498 21.4283C10.8106 21.3673 10.8588 21.2947 10.8917 21.2148C10.9246 21.1349 10.9416 21.0492 10.9416 20.9627V16.5144C10.9416 16.4279 10.9246 16.3423 10.8918 16.2625C10.859 16.1827 10.8108 16.1101 10.7502 16.0491C10.6895 15.988 10.6175 15.9396 10.5382 15.9067C10.459 15.8737 10.3741 15.8569 10.2884 15.8571ZM9.63717 20.3059H6.5291V17.1712H9.63717V20.3059ZM20.4058 15.8571H15.9952C15.8224 15.8571 15.6566 15.9263 15.5344 16.0496C15.4122 16.1729 15.3435 16.34 15.3435 16.5144V20.9627C15.3435 21.137 15.4122 21.3042 15.5344 21.4275C15.6566 21.5507 15.8224 21.62 15.9952 21.62H20.4058C20.4914 21.6201 20.5761 21.6031 20.6552 21.5701C20.7343 21.5371 20.8062 21.4887 20.8667 21.4276C20.9273 21.3666 20.9753 21.2941 21.008 21.2143C21.0407 21.1345 21.0575 21.049 21.0575 20.9627V16.5144C21.0575 16.34 20.9888 16.1729 20.8666 16.0496C20.7444 15.9263 20.5786 15.8571 20.4058 15.8571ZM19.7545 20.3059H16.6488V17.1712H19.7545V20.3059ZM10.2884 23.4815H5.8769C5.70406 23.4815 5.53829 23.5508 5.41607 23.674C5.29385 23.7973 5.22519 23.9645 5.22519 24.1388V28.5872C5.22519 28.7615 5.29385 28.9287 5.41607 29.0519C5.53829 29.1752 5.70406 29.2445 5.8769 29.2445H10.2874C10.3732 29.2448 10.4582 29.228 10.5376 29.1951C10.6169 29.1622 10.6891 29.1139 10.7498 29.0528C10.8106 28.9917 10.8588 28.9192 10.8917 28.8392C10.9246 28.7593 10.9416 28.6737 10.9416 28.5872V24.1388C10.9416 24.0524 10.9246 23.9668 10.8918 23.887C10.859 23.8071 10.8108 23.7346 10.7502 23.6735C10.6895 23.6125 10.6175 23.5641 10.5382 23.5312C10.459 23.4982 10.3741 23.4813 10.2884 23.4815ZM9.63717 27.9303H6.5291V24.7956H9.63717V27.9303ZM20.4058 23.4815H15.9952C15.8224 23.4815 15.6566 23.5508 15.5344 23.674C15.4122 23.7973 15.3435 23.9645 15.3435 24.1388V28.5872C15.3435 28.7615 15.4122 28.9287 15.5344 29.0519C15.6566 29.1752 15.8224 29.2445 15.9952 29.2445H20.4058C20.5786 29.2445 20.7444 29.1752 20.8666 29.0519C20.9888 28.9287 21.0575 28.7615 21.0575 28.5872V24.1388C21.0575 24.0525 21.0406 23.967 21.0079 23.8873C20.9751 23.8075 20.9271 23.7351 20.8666 23.674C20.8061 23.613 20.7342 23.5646 20.6552 23.5316C20.5761 23.4985 20.4913 23.4815 20.4058 23.4815ZM19.7545 27.9303H16.6488V24.7956H19.7545V27.9303ZM36.4 21.6479V5.15044C36.3991 4.39347 36.1006 3.66776 35.5699 3.1325C35.0392 2.59724 34.3196 2.29613 33.5691 2.29524H29.6416V1.94539C29.6409 1.42955 29.4375 0.935033 29.0758 0.570326C28.7141 0.205619 28.2237 0.000510083 27.7122 0H27.5345C27.0231 0.000637599 26.5329 0.205802 26.1713 0.570496C25.8097 0.935189 25.6063 1.42964 25.6056 1.94539V2.29524H20.218V1.94539C20.2175 1.42968 20.0142 0.935232 19.6526 0.570525C19.2911 0.205818 18.8009 0.000637844 18.2896 0H18.1119C17.6005 0.000637599 17.1102 0.205802 16.7486 0.570496C16.387 0.935189 16.1836 1.42964 16.183 1.94539V2.29524H10.7949V1.94539C10.7942 1.42964 10.5908 0.935189 10.2292 0.570496C9.86762 0.205802 9.37738 0.000637599 8.866 0H8.68826C8.17689 0.000637599 7.68664 0.205802 7.32505 0.570496C6.96345 0.935189 6.76003 1.42964 6.75939 1.94539V2.29524H2.8319C2.08116 2.29575 1.36129 2.5967 0.830342 3.13201C0.299394 3.66733 0.00075931 4.39326 0 5.15044V31.7112C0.000885149 32.4681 0.299379 33.1937 0.830003 33.7289C1.36063 34.264 2.08005 34.5651 2.83047 34.566H22.5492C23.071 36.2693 24.0124 37.8114 25.2854 39.0483C26.5584 40.2852 28.1215 41.1765 29.8286 41.639C31.5357 42.1014 33.3312 42.1199 35.0474 41.6927C36.7635 41.2656 38.3443 40.4067 39.6421 39.1963C40.9399 37.9859 41.9124 36.4635 42.4686 34.7713C43.0249 33.0791 43.1468 31.2723 42.823 29.5197C42.4992 27.7671 41.7403 26.1258 40.617 24.7492C39.4938 23.3727 38.043 22.3057 36.4 21.6479ZM26.9095 1.94539C26.9095 1.77805 26.9754 1.61755 27.0927 1.49918C27.21 1.38081 27.369 1.31424 27.535 1.31411H27.7122C27.8782 1.31424 28.0373 1.38079 28.1547 1.49915C28.272 1.61751 28.338 1.778 28.3381 1.94539V3.95969C28.3379 4.12704 28.2719 4.28746 28.1545 4.40579C28.0372 4.52412 27.8782 4.59071 27.7122 4.59097H27.5345C27.3686 4.59071 27.2096 4.5241 27.0924 4.40576C26.9751 4.28741 26.9092 4.12699 26.9091 3.95969L26.9095 1.94539ZM17.4859 1.94539C17.4861 1.778 17.5521 1.61751 17.6694 1.49915C17.7868 1.38079 17.9459 1.31424 18.1119 1.31411H18.2896C18.4555 1.31424 18.6146 1.38081 18.7319 1.49918C18.8492 1.61755 18.915 1.77805 18.915 1.94539V3.95969C18.9149 4.12699 18.849 4.28741 18.7317 4.40576C18.6145 4.5241 18.4555 4.59071 18.2896 4.59097H18.1119C17.9459 4.59084 17.7868 4.52429 17.6694 4.40593C17.5521 4.28757 17.4861 4.12707 17.4859 3.95969V1.94539ZM8.06235 1.94539C8.06247 1.778 8.12846 1.61751 8.24581 1.49915C8.36317 1.38079 8.5223 1.31424 8.68826 1.31411H8.866C9.03197 1.31424 9.1911 1.38079 9.30845 1.49915C9.42581 1.61751 9.49179 1.778 9.49192 1.94539V3.95969C9.49166 4.12704 9.42564 4.28746 9.30831 4.40579C9.19098 4.52412 9.03193 4.59071 8.866 4.59097H8.68826C8.52234 4.59071 8.36328 4.52412 8.24595 4.40579C8.12863 4.28746 8.0626 4.12704 8.06235 3.95969V1.94539ZM2.8319 33.2519C2.4264 33.2519 2.03751 33.0894 1.75077 32.8002C1.46404 32.511 1.30295 32.1188 1.30295 31.7098V11.3162H26.2311C26.3181 11.3186 26.4047 11.3034 26.4858 11.2714C26.5669 11.2395 26.6409 11.1914 26.7033 11.1302C26.7656 11.0689 26.8152 10.9957 26.8491 10.9148C26.883 10.8339 26.9004 10.747 26.9004 10.6592C26.9004 10.5713 26.883 10.4844 26.8491 10.4035C26.8152 10.3226 26.7656 10.2494 26.7033 10.1881C26.6409 10.1269 26.5669 10.0789 26.4858 10.0469C26.4047 10.015 26.3181 9.99973 26.2311 10.0021H1.30439V5.15044C1.30439 4.74146 1.46547 4.34924 1.75221 4.06005C2.03894 3.77086 2.42783 3.60839 2.83334 3.60839H6.76083V3.95873C6.76146 4.47448 6.96488 4.96893 7.32648 5.33362C7.68807 5.69831 8.17832 5.90348 8.6897 5.90412H8.86744C9.37881 5.90348 9.86906 5.69831 10.2307 5.33362C10.5922 4.96893 10.7957 4.47448 10.7963 3.95873V3.60839H16.183V3.95873C16.1836 4.47448 16.387 4.96893 16.7486 5.33362C17.1102 5.69831 17.6005 5.90348 18.1119 5.90412H18.2896C18.8009 5.90348 19.2911 5.6983 19.6526 5.33359C20.0142 4.96888 20.2175 4.47443 20.218 3.95873V3.60839H25.6061V3.95873C25.6067 4.47448 25.8102 4.96893 26.1718 5.33362C26.5333 5.69831 27.0236 5.90348 27.535 5.90412H27.7122C28.2236 5.90348 28.7139 5.69831 29.0754 5.33362C29.437 4.96893 29.6405 4.47448 29.6411 3.95873V3.60839H33.5686C33.9741 3.60839 34.363 3.77086 34.6497 4.06005C34.9365 4.34924 35.0975 4.74146 35.0975 5.15044V10.0021H29.3076C29.2206 9.99973 29.1339 10.015 29.0528 10.0469C28.9717 10.0789 28.8978 10.1269 28.8354 10.1881C28.773 10.2494 28.7234 10.3226 28.6895 10.4035C28.6557 10.4844 28.6382 10.5713 28.6382 10.6592C28.6382 10.747 28.6557 10.8339 28.6895 10.9148C28.7234 10.9957 28.773 11.0689 28.8354 11.1302C28.8978 11.1914 28.9717 11.2395 29.0528 11.2714C29.1339 11.3034 29.2206 11.3186 29.3076 11.3162H35.0966V21.2229C33.8149 20.8978 32.4837 20.8203 31.1734 20.9945C31.1734 20.9839 31.1734 20.9733 31.1734 20.9627V16.5144C31.1734 16.34 31.1047 16.1729 30.9825 16.0496C30.8603 15.9263 30.6945 15.8571 30.5217 15.8571H26.1126C25.9397 15.8571 25.774 15.9263 25.6517 16.0496C25.5295 16.1729 25.4608 16.34 25.4608 16.5144V20.9627C25.4608 21.137 25.5295 21.3042 25.6517 21.4275C25.774 21.5507 25.9397 21.62 26.1126 21.62H28.7548C26.5045 22.5027 24.6262 24.1431 23.4382 26.2631C22.2502 28.3831 21.8257 30.8522 22.2367 33.2519H2.8319ZM29.8719 20.3059H26.7662V17.1712H29.8719V20.3059ZM32.5423 40.6855C30.7314 40.6856 28.9612 40.1441 27.4556 39.1295C25.9499 38.1149 24.7763 36.6727 24.0833 34.9854C23.3902 33.2981 23.2089 31.4414 23.5622 29.6502C23.9154 27.8589 24.7874 26.2135 26.0679 24.9221C27.3483 23.6307 28.9797 22.7512 30.7558 22.3949C32.5318 22.0387 34.3727 22.2216 36.0457 22.9205C37.7187 23.6195 39.1486 24.8031 40.1546 26.3217C41.1605 27.8403 41.6974 29.6256 41.6973 31.452C41.6946 33.9 40.7291 36.247 39.0128 37.978C37.2965 39.709 34.9695 40.6827 32.5423 40.6855ZM39.8554 31.452C39.8554 31.6262 39.7868 31.7933 39.6647 31.9164C39.5426 32.0396 39.3769 32.1088 39.2042 32.1088H32.5423C32.3695 32.1088 32.2038 32.0396 32.0816 31.9165C31.9594 31.7933 31.8907 31.6262 31.8906 31.452V24.6024C31.8882 24.5146 31.9033 24.4273 31.935 24.3455C31.9667 24.2637 32.0143 24.1891 32.075 24.1262C32.1357 24.0632 32.2084 24.0132 32.2886 23.9791C32.3688 23.9449 32.455 23.9273 32.542 23.9273C32.6291 23.9273 32.7153 23.9449 32.7955 23.9791C32.8757 24.0132 32.9483 24.0632 33.0091 24.1262C33.0698 24.1891 33.1174 24.2637 33.1491 24.3455C33.1808 24.4273 33.1959 24.5146 33.1935 24.6024V30.7947H39.2042C39.377 30.7948 39.5426 30.8641 39.6647 30.9874C39.7868 31.1106 39.8554 31.2778 39.8554 31.452Z" fill="white"></path>
</svg>
