<?xml version="1.0" standalone="no"?>
<!DOCTYPE svg PUBLIC "-//W3C//DTD SVG 20010904//EN"
 "http://www.w3.org/TR/2001/REC-SVG-20010904/DTD/svg10.dtd">
<svg version="1.0" xmlns="http://www.w3.org/2000/svg"
 width="700.000000pt" height="700.000000pt" viewBox="0 0 700.000000 700.000000"
 preserveAspectRatio="xMidYMid meet">
<metadata>
Created by potrace 1.14, written by Peter Selinger 2001-2017
</metadata>
<g transform="translate(0.000000,700.000000) scale(0.100000,-0.100000)"
fill="#000000" stroke="none">
<path d="M2197 5112 l-1107 -1107 0 -1628 0 -1628 1353 4 c1221 3 1361 5 1450
20 474 83 819 228 1132 476 386 306 663 757 800 1301 38 151 78 369 97 535 17
148 17 735 0 875 -118 964 -541 1639 -1249 1994 -347 175 -749 266 -1171 266
l-197 0 -1108 -1108z m1173 88 c215 -19 469 -84 614 -157 100 -50 223 -139
306 -223 283 -284 420 -701 437 -1330 7 -251 -4 -392 -42 -586 -64 -318 -184
-566 -369 -761 -172 -182 -355 -281 -638 -346 -88 -20 -125 -21 -735 -24
l-643 -4 0 1720 0 1721 478 0 c262 0 529 -5 592 -10z"/>
</g>
</svg>
