<svg id="Layer_1" data-name="Layer 1" xmlns="http://www.w3.org/2000/svg" viewBox="0 0 758.74 137.8"><defs><style>.cls-1{fill:#3f66b0;}</style></defs><title>logo_designtech</title><path class="cls-1" d="M131.69,92.69q4.84,4.69,13.95,4.7a19.17,19.17,0,0,0,11.22-3.26q4.69-3.25,5.76-6.9h18.95q-4.56,14.1-13.95,20.17t-22.74,6.06a44.72,44.72,0,0,1-16.67-3,34.63,34.63,0,0,1-12.59-8.41,37.93,37.93,0,0,1-8-13,47.68,47.68,0,0,1-2.8-16.67A45.7,45.7,0,0,1,107.74,56a37.88,37.88,0,0,1,20.84-21.83A40.52,40.52,0,0,1,144.88,31a37.28,37.28,0,0,1,17.44,3.87,35,35,0,0,1,12.2,10.38,42.67,42.67,0,0,1,6.89,14.86,55.3,55.3,0,0,1,1.52,17.43H126.39q.45,10.45,5.3,15.16M156,51.46q-3.86-4.24-11.75-4.25A18.74,18.74,0,0,0,135.71,49a16.26,16.26,0,0,0-5.46,4.32,16,16,0,0,0-2.88,5.46,24.25,24.25,0,0,0-1,5.15h35Q159.88,55.7,156,51.46" transform="translate(-3.9 -3.25)"/><path class="cls-1" d="M208.47,92a12.51,12.51,0,0,0,3.72,4.09,15.59,15.59,0,0,0,5.23,2.35,24.36,24.36,0,0,0,6.14.76,22.62,22.62,0,0,0,4.77-.53A16.12,16.12,0,0,0,232.88,97a10.44,10.44,0,0,0,3.41-3,8,8,0,0,0,1.36-4.78q0-4.85-6.44-7.27a128.82,128.82,0,0,0-18-4.85c-3.14-.71-6.19-1.54-9.17-2.5a31,31,0,0,1-8-3.79,18.33,18.33,0,0,1-5.61-5.92,16.68,16.68,0,0,1-2.12-8.71q0-7.59,3-12.43a21.71,21.71,0,0,1,7.81-7.66,34.2,34.2,0,0,1,10.92-3.94A67,67,0,0,1,222.5,31a62,62,0,0,1,12.35,1.22,32.81,32.81,0,0,1,10.69,4.09A24.67,24.67,0,0,1,253.35,44,25.86,25.86,0,0,1,257.06,56H236.59q-.45-6.23-4.7-8.42a21.53,21.53,0,0,0-10-2.2,37.57,37.57,0,0,0-3.94.23,12.94,12.94,0,0,0-3.87,1,7.92,7.92,0,0,0-3,2.19,5.77,5.77,0,0,0-1.22,3.87,5.91,5.91,0,0,0,2.12,4.7,16.48,16.48,0,0,0,5.54,3,69.26,69.26,0,0,0,7.8,2q4.41.91,8.95,2a91.88,91.88,0,0,1,9.17,2.58,30.2,30.2,0,0,1,8,4,19.51,19.51,0,0,1,5.61,6.21,18.32,18.32,0,0,1,2.12,9.17A23.8,23.8,0,0,1,248,107.7a33.28,33.28,0,0,1-11.44,4.47,66.71,66.71,0,0,1-13.12,1.29,64.83,64.83,0,0,1-13.33-1.36,35.2,35.2,0,0,1-11.6-4.55,25.91,25.91,0,0,1-8.34-8.42q-3.27-5.22-3.56-13.11H207a11.81,11.81,0,0,0,1.44,6" transform="translate(-3.9 -3.25)"/><rect class="cls-1" x="260.13" y="29.86" width="21.53" height="78.37"/><path class="cls-1" d="M368.25,117.25a26.62,26.62,0,0,1-5.53,11.29q-4.25,5.24-12.28,8.87t-21.53,3.64a50.14,50.14,0,0,1-11.75-1.44,37.29,37.29,0,0,1-10.91-4.47,26.78,26.78,0,0,1-8.19-7.81,22.62,22.62,0,0,1-3.71-11.44h21.37q1.51,6.06,5.91,8.41a21.31,21.31,0,0,0,10.16,2.35c6.07,0,10.48-1.82,13.27-5.46s4.11-8.24,4-13.79V97.09h-.3a21.33,21.33,0,0,1-9.93,9.17,32.19,32.19,0,0,1-13.57,2.95,34.29,34.29,0,0,1-15.16-3.1,28.77,28.77,0,0,1-10.46-8.49,35.51,35.51,0,0,1-6-12.58,59.36,59.36,0,0,1-1.9-15.24A48.74,48.74,0,0,1,294,55.17a38.14,38.14,0,0,1,6.44-12.43A31.15,31.15,0,0,1,311,34.18,31.52,31.52,0,0,1,325.42,31,30.43,30.43,0,0,1,339,33.87a23.44,23.44,0,0,1,9.78,9.71h.3V33.12h20.47v73.37a52.39,52.39,0,0,1-1.29,10.76M338.76,91.18a16.92,16.92,0,0,0,5.77-4.85,21.49,21.49,0,0,0,3.4-6.9,28.54,28.54,0,0,0,1.14-8.11,44.31,44.31,0,0,0-.91-9.18,22.7,22.7,0,0,0-3-7.65,15.71,15.71,0,0,0-5.61-5.31,17.73,17.73,0,0,0-8.79-2A15.82,15.82,0,0,0,322.92,49,16.6,16.6,0,0,0,317.46,54a21,21,0,0,0-3.18,7.12,35.11,35.11,0,0,0-1,8.42,42.45,42.45,0,0,0,.83,8.41,22.65,22.65,0,0,0,2.88,7.5,16.81,16.81,0,0,0,5.38,5.46A15.19,15.19,0,0,0,330.73,93a17.12,17.12,0,0,0,8-1.81" transform="translate(-3.9 -3.25)"/><path class="cls-1" d="M398.94,33.12V44h.46A24.71,24.71,0,0,1,410,34.1,30.69,30.69,0,0,1,423.35,31q8.64,0,14.18,2.35a21.06,21.06,0,0,1,8.71,6.52A25.3,25.3,0,0,1,450.71,50,63,63,0,0,1,452,63.28v48.21H430.48V67.22q0-9.69-3-14.47c-2-3.19-5.61-4.78-10.77-4.78Q407.89,48,404,53.2T400,70.41v41.08H378.48V33.12Z" transform="translate(-3.9 -3.25)"/><path class="cls-1" d="M534.16,92.69q4.86,4.69,14,4.7a19.17,19.17,0,0,0,11.22-3.26q4.7-3.25,5.76-6.9H584q-4.53,14.1-13.94,20.17t-22.74,6.06a44.85,44.85,0,0,1-16.68-3,34.67,34.67,0,0,1-12.58-8.41,37.93,37.93,0,0,1-8-13,47.91,47.91,0,0,1-2.8-16.67A45.7,45.7,0,0,1,510.21,56a37.88,37.88,0,0,1,20.84-21.83A40.45,40.45,0,0,1,547.35,31a37.21,37.21,0,0,1,17.43,3.87A34.76,34.76,0,0,1,577,45.24a42.51,42.51,0,0,1,6.9,14.86,55.3,55.3,0,0,1,1.52,17.43H528.86q.45,10.45,5.3,15.16m24.33-41.23q-3.86-4.24-11.75-4.25A18.74,18.74,0,0,0,538.18,49a16.36,16.36,0,0,0-5.46,4.32,16,16,0,0,0-2.88,5.46,24.25,24.25,0,0,0-1,5.15h35q-1.53-8.19-5.39-12.43" transform="translate(-3.9 -3.25)"/><path class="cls-1" d="M630.27,47.21a15.15,15.15,0,0,0-8.64,2.35,18.7,18.7,0,0,0-5.69,6.07,26.17,26.17,0,0,0-3.1,8.18,44.23,44.23,0,0,0-.91,8.87,42.3,42.3,0,0,0,.91,8.64,26.63,26.63,0,0,0,2.95,8,17.07,17.07,0,0,0,5.53,5.84,15.28,15.28,0,0,0,8.49,2.27q7.74,0,11.9-4.32A20.47,20.47,0,0,0,647,81.47h20.76q-2.12,15.61-12.12,23.81T630,113.46a42.94,42.94,0,0,1-16.15-3,35.81,35.81,0,0,1-12.51-8.26,37.56,37.56,0,0,1-8-12.66,43.87,43.87,0,0,1-2.88-16.14,52.15,52.15,0,0,1,2.65-16.9,37.94,37.94,0,0,1,7.81-13.49,35.66,35.66,0,0,1,12.58-8.87,42.6,42.6,0,0,1,17-3.19,49.29,49.29,0,0,1,13.42,1.82,36,36,0,0,1,11.52,5.54,28.6,28.6,0,0,1,11.9,22.36H646.19q-2.13-13.5-15.92-13.5" transform="translate(-3.9 -3.25)"/><path class="cls-1" d="M96,33.27A46.11,46.11,0,0,0,85.68,16.59a42.27,42.27,0,0,0-15.61-10A55.59,55.59,0,0,0,50.59,3.25H47.8l-20,20H44.68a38.61,38.61,0,0,1,14.78,2.5A23.2,23.2,0,0,1,69.08,33a29.46,29.46,0,0,1,5.23,11.3A63.09,63.09,0,0,1,75.91,59,44.28,44.28,0,0,1,73.63,74.2a27.86,27.86,0,0,1-6.06,10.08,22,22,0,0,1-8.64,5.53,30.65,30.65,0,0,1-10,1.67H27.7V23.35L3.9,47.15v64.34H50.59q12.44,0,21.6-4.17A42.81,42.81,0,0,0,87.5,95.87a47.89,47.89,0,0,0,9.17-17.28,75,75,0,0,0,3-21.83q0-13.48-3.72-23.49" transform="translate(-3.9 -3.25)"/><path class="cls-1" d="M746.77,50a25.3,25.3,0,0,0-4.47-10.16,21.09,21.09,0,0,0-8.72-6.52Q728,31,719.41,31A28.22,28.22,0,0,0,707,34.1,24.82,24.82,0,0,0,696.52,44h-.46V4.28h0L674.54,22v89.48h21.52V70.41q0-12,3.94-17.21T712.74,48q7.72,0,10.76,4.78t3,14.47v44.27l21.53.1V63.28A63.72,63.72,0,0,0,746.77,50" transform="translate(-3.9 -3.25)"/><path class="cls-1" d="M506.12,47.52V33.11H490.35V4.49l-21.52,17.7V33.11h-13V47.52h13V93.75a20,20,0,0,0,2,9.55,14,14,0,0,0,5.38,5.61,22.09,22.09,0,0,0,7.88,2.65,62.15,62.15,0,0,0,9.48.69q3.18,0,6.52-.15a53.9,53.9,0,0,0,6.06-.61V94.81a28,28,0,0,1-3.18.46c-1.12.1-2.28.15-3.49.15-3.64,0-6.06-.61-7.28-1.82s-1.82-3.64-1.82-7.27V47.52Z" transform="translate(-3.9 -3.25)"/><path class="cls-1" d="M762.64,12.13a9.12,9.12,0,1,1-9.09-8.88,8.92,8.92,0,0,1,9.09,8.88m-16,0a6.87,6.87,0,0,0,6.92,7.09,6.8,6.8,0,0,0,6.77-7,6.85,6.85,0,1,0-13.69,0m5.47,4.66h-2.06V7.91a18.11,18.11,0,0,1,3.41-.27,5.49,5.49,0,0,1,3.08.65,2.44,2.44,0,0,1,.87,2,2.27,2.27,0,0,1-1.84,2v.11a2.64,2.64,0,0,1,1.62,2.16,6.76,6.76,0,0,0,.65,2.23h-2.22a7.72,7.72,0,0,1-.7-2.17c-.16-1-.71-1.41-1.84-1.41h-1Zm.05-5h1c1.14,0,2.06-.38,2.06-1.3s-.6-1.35-1.89-1.35a4.53,4.53,0,0,0-1.14.11Z" transform="translate(-3.9 -3.25)"/></svg>