<svg width="16" height="16" viewBox="0 0 16 16" fill="none" xmlns="http://www.w3.org/2000/svg">
<path d="M7.51895 1.3699C9.53004 1.3699 9.76558 1.3699 10.5386 1.41821C11.0172 1.42234 11.4914 1.51023 11.9397 1.6779C12.2667 1.79668 12.5622 1.98882 12.8034 2.23956C13.0555 2.47962 13.2478 2.77539 13.365 3.10319C13.5327 3.55149 13.6206 4.02569 13.6247 4.50431C13.661 5.29546 13.667 5.53099 13.667 7.52397C13.667 9.51695 13.667 9.7706 13.6247 10.5436C13.6201 11.0202 13.5322 11.4924 13.365 11.9387C13.2478 12.2665 13.0555 12.5623 12.8034 12.8023C12.5622 13.0531 12.2667 13.2452 11.9397 13.364C11.4914 13.5317 11.0172 13.6196 10.5386 13.6237C9.74746 13.6599 9.51193 13.672 7.51895 13.672C5.52597 13.672 5.27232 13.672 4.49929 13.6237C4.02268 13.6191 3.55054 13.5312 3.1042 13.364C2.77641 13.2468 2.48064 13.0544 2.24058 12.8023C1.98848 12.5623 1.79613 12.2665 1.67893 11.9387C1.50873 11.4932 1.42074 11.0205 1.41925 10.5436C1.38301 9.74644 1.37092 9.51091 1.37092 7.52397C1.37092 5.53703 1.37093 5.27734 1.41925 4.50431C1.42028 4.0254 1.50827 3.55066 1.67893 3.10319C1.79613 2.77539 1.98848 2.47962 2.24058 2.23956C2.472 1.99132 2.75706 1.79922 3.07401 1.6779C3.52035 1.51069 3.99249 1.4228 4.4691 1.41821C5.26629 1.38198 5.50182 1.3699 7.48876 1.3699H7.51895ZM7.48876 0.0170898C5.44143 0.0170898 5.18779 0.0170897 4.38456 0.0593649C3.76574 0.0781272 3.15398 0.196402 2.57276 0.409647C2.07884 0.602655 1.63197 0.899192 1.26222 1.27931C0.87921 1.65607 0.582497 2.11144 0.392552 2.614C0.174172 3.19378 0.0557397 3.8064 0.0422797 4.4258C0.00604375 5.22903 0 5.48872 0 7.53001C0 9.5713 4.42315e-06 9.83099 0.0422797 10.6342C0.0557397 11.2536 0.174172 11.8662 0.392552 12.446C0.579378 12.9572 0.87627 13.4211 1.26222 13.8049C1.63898 14.1879 2.09434 14.4846 2.5969 14.6745C3.17812 14.8878 3.78988 15.0061 4.4087 15.0248C5.21193 15.0611 5.46559 15.0671 7.51292 15.0671C9.56025 15.0671 9.8139 15.0671 10.6171 15.0248C11.2359 15.0054 11.8475 14.8872 12.4289 14.6745C12.9307 14.4831 13.3858 14.1866 13.7636 13.8049C14.1467 13.4294 14.4417 12.9735 14.6272 12.4702C14.8456 11.8904 14.9641 11.2778 14.9775 10.6584C15.0138 9.85515 15.0258 9.59546 15.0258 7.55417C15.0258 5.51288 15.0258 5.25319 14.9775 4.44996C14.9641 3.83056 14.8456 3.21794 14.6272 2.63816C14.4417 2.13482 14.1467 1.67896 13.7636 1.30347C13.3858 0.921787 12.9307 0.625274 12.4289 0.433805C11.8475 0.221165 11.2359 0.10291 10.6171 0.0835228C9.8139 0.0472868 9.55421 0.0412477 7.51292 0.0412477" fill="#277AFE"/>
<path d="M7.51895 3.67639C6.49433 3.67799 5.51215 4.08572 4.78763 4.81024C4.06312 5.53475 3.65538 6.51694 3.65379 7.54156C3.65538 8.56618 4.06312 9.54837 4.78763 10.2729C5.51215 10.9974 6.49433 11.4051 7.51895 11.4067C8.54357 11.4051 9.52577 10.9974 10.2503 10.2729C10.9748 9.54837 11.3825 8.56618 11.3841 7.54156C11.3825 6.51694 10.9748 5.53475 10.2503 4.81024C9.52577 4.08572 8.54357 3.67799 7.51895 3.67639ZM7.51895 10.0479C7.18931 10.0487 6.86276 9.98443 6.55798 9.85883C6.2532 9.73323 5.97619 9.54875 5.74282 9.31594C5.50944 9.08312 5.32429 8.80656 5.19795 8.50208C5.07162 8.19761 5.00661 7.8712 5.00661 7.54156C5.00661 7.21192 5.07162 6.88551 5.19795 6.58103C5.32429 6.27656 5.50944 5.99999 5.74282 5.76718C5.97619 5.53437 6.2532 5.34989 6.55798 5.22429C6.86276 5.09869 7.18931 5.03445 7.51895 5.03524C8.18367 5.03524 8.82117 5.2993 9.2912 5.76932C9.76122 6.23935 10.0253 6.87684 10.0253 7.54156C10.0253 7.8707 9.96045 8.19661 9.83449 8.50069C9.70854 8.80477 9.52393 9.08106 9.2912 9.31379C9.05846 9.54653 8.78218 9.73114 8.4781 9.8571C8.17401 9.98305 7.84808 10.0479 7.51895 10.0479Z" fill="#277AFE"/>
<path d="M12.435 3.52528C12.435 3.64396 12.4115 3.76147 12.3659 3.87105C12.3203 3.98062 12.2535 4.08008 12.1693 4.16372C12.0851 4.24736 11.9852 4.31352 11.8753 4.35839C11.7654 4.40325 11.6477 4.42594 11.5291 4.42514C11.2899 4.42515 11.0603 4.33053 10.8906 4.16195C10.7209 3.99336 10.6248 3.76449 10.6232 3.52528C10.6232 3.28502 10.7186 3.0546 10.8885 2.88472C11.0584 2.71483 11.2888 2.61938 11.5291 2.61938C11.6477 2.61938 11.7653 2.64285 11.8748 2.68845C11.9844 2.73405 12.0839 2.80088 12.1675 2.88508C12.2511 2.96928 12.3173 3.06919 12.3622 3.17907C12.407 3.28894 12.4297 3.40661 12.4289 3.52528" fill="#277AFE"/>
</svg>
