<svg width="16" height="16" viewBox="0 0 16 16" fill="none" xmlns="http://www.w3.org/2000/svg">
<path d="M0.24648 5.01338H3.37083V15.0659H0.24648V5.01338ZM1.81199 0.0170898C2.04963 0.0170882 2.28494 0.064003 2.5044 0.155145C2.72387 0.246288 2.92318 0.379863 3.0909 0.54821C3.25863 0.716556 3.39147 0.91636 3.48181 1.13616C3.57214 1.35596 3.6182 1.59144 3.61733 1.82908C3.6182 2.06672 3.57214 2.30219 3.48181 2.52199C3.39147 2.74179 3.25863 2.94159 3.0909 3.10994C2.92318 3.27829 2.72387 3.41186 2.5044 3.503C2.28494 3.59415 2.04963 3.64107 1.81199 3.64106C1.33142 3.64106 0.870547 3.45016 0.530733 3.11035C0.19092 2.77053 0 2.30965 0 1.82908C0 1.34851 0.19092 0.887621 0.530733 0.547808C0.870547 0.207995 1.33142 0.0170898 1.81199 0.0170898Z" fill="#277AFE"/>
<path d="M5.32937 5.01495H8.35379V6.38726C8.65819 5.87867 9.09278 5.46051 9.61272 5.17595C10.1327 4.89138 10.7191 4.75071 11.3116 4.76846C14.4692 4.76846 15.0555 6.84692 15.0555 9.55157V15.0675H11.9511V10.1778C11.9511 9.01198 11.9511 7.51309 10.3257 7.51309C8.7002 7.51309 8.45371 8.78548 8.45371 10.0912V15.0675H5.32937V5.01495Z" fill="#277AFE"/>
</svg>
