<?xml version="1.0" encoding="utf-8"?>
<!-- Generator: Adobe Illustrator 24.0.3, SVG Export Plug-In . SVG Version: 6.00 Build 0)  -->
<svg version="1.1" id="Layer_1" xmlns="http://www.w3.org/2000/svg" xmlns:xlink="http://www.w3.org/1999/xlink" x="0px" y="0px"
	 viewBox="0 0 200 200" style="enable-background:new 0 0 200 200;" xml:space="preserve">
<style type="text/css">
	.st0{fill:#2A79FF;}
</style>
<path class="st0" d="M-214.23,189.73l0.03-44.59c0.69-8.41,4.67-16.43,10.91-21.94L-95.56,15.47C-92.1,12-87.32,10-82.43,10
	c4.89,0,9.67,1.99,13.1,5.44l29.34,29.34c3.45,3.45,5.43,8.24,5.43,13.12c0,4.96-1.93,9.62-5.43,13.12l-107.07,107.05
	c-5.96,6.86-14.3,10.98-23.52,11.65H-214.23z M-196.81,130.08c-4.46,3.93-7.45,9.7-7.95,15.39l-0.02,0.37v34.42l33.7,0.02
	c6.66-0.46,12.55-3.45,17.1-8.65l74.64-74.63l-42.19-42.2L-196.81,130.08z M-82.43,19.46c-2.39,0-4.73,0.97-6.42,2.67l-26,26
	l42.19,42.2l25.98-25.98c1.72-1.73,2.66-4.01,2.66-6.43c0-2.39-0.97-4.74-2.66-6.43l-29.35-29.35
	C-77.7,20.43-80.04,19.46-82.43,19.46z"/>
<path class="st0" d="M104.28,154.81l-51.92,28.7l9.92-60.82L20.06,79.41l58.33-8.91l25.89-55.16l25.89,55.16l58.33,8.91
	l-42.22,43.27l9.92,60.82L104.28,154.81z M144.96,166.98l-7.76-47.6l32.69-33.5l-45.2-6.91l-20.41-43.49L83.87,78.97l-45.2,6.91
	l32.69,33.5l-7.76,47.6l40.68-22.49L144.96,166.98z"/>
<path class="st0" d="M423.76,188.17c-7.88-15.53-20.66-39.03-24.95-42.62c-5.53-4-8.21-5.25-19.31-5.25h-59.78v0.14h-4.33
	l-0.18,0.03c-1.18,0.16-2.13,0.41-2.99,0.77c-3.99,1.66-6.68,4.2-7.76,7.33c-3.03,8.75-11.1,31.27-13.88,39.04l-7.43-2.67
	c2.71-7.55,10.82-30.23,13.85-38.96c0.22-0.63,0.49-1.2,0.76-1.77l1.78-3.76h-9.5c-6.83,0-10.67-2.72-12.69-4.99
	c-4.05-4.57-3.93-10.56-3.79-12.29l0.01-25.72c0-12.43,9.28-16.83,13.27-18.15l2.33-0.77l-12.04-47.05
	c-1.69-6.41,2.1-13.06,8.46-14.85l7.71-2.18c1.06-0.3,2.16-0.45,3.26-0.45c5.39,0,10.21,3.59,11.72,8.72l16.41,55.58h41.07v7.9
	h-38.73l6.17,20.91c0.54,1.81,2.22,3.07,4.1,3.07h71.2c6.71,0,12.18,5.46,12.18,12.18v4.11c0,6.51-5.3,11.96-11.81,12.15l-5.15,0.15
	l3.14,4.08c7.31,9.51,18.46,30.86,23.98,41.77L423.76,188.17z M281.4,124.03c-0.01,0-0.27,3.86,1.9,6.24
	c1.37,1.51,3.64,2.27,6.72,2.27h12.95l-11.9-46.5l-2.77,1.09c-4.42,1.73-6.85,5.4-6.85,10.32L281.4,124.03z M309.86,127.61
	c0.5,1.86,2.19,3.13,4.12,3.13h94.5c2.36,0,4.28-1.92,4.28-4.28v-4.11c0-2.36-1.92-4.28-4.28-4.28h-71.2
	c-5.36,0-10.16-3.59-11.68-8.72l-6.83-23.15h-19.51L309.86,127.61z M296.58,21.89c-0.39,0-0.77,0.05-1.15,0.16l-7.72,2.18
	c-2.24,0.63-3.57,2.97-2.97,5.22l12.5,48.85h19.2l-15.75-53.34C300.16,23.15,298.47,21.89,296.58,21.89z"/>
<g>
	<path class="st0" d="M591.84,107.42c23.55,0,42.71-19.16,42.71-42.71S615.39,22,591.84,22c-23.55,0-42.71,19.16-42.71,42.71
		S568.29,107.42,591.84,107.42z M591.84,30.48c18.87,0,34.23,15.35,34.23,34.23s-15.35,34.23-34.23,34.23s-34.23-15.35-34.23-34.23
		S572.96,30.48,591.84,30.48z"/>
	<path class="st0" d="M631.73,117.98c-7.6-3.12-15.62-4.7-23.91-4.7h-27.47c-24.64,0-47.27,14.53-57.65,37.03
		c-3.09,6.7-2.56,14.43,1.43,20.66c4.01,6.26,10.83,10,18.25,10h96v-8.48h-96c-4.52,0-8.67-2.28-11.11-6.09
		c-2.42-3.78-2.75-8.47-0.87-12.54c9-19.5,28.61-32.1,49.95-32.1h27.47c7.37,0,14.5,1.46,21.23,4.3"/>
	<path class="st0" d="M555.99,117.98c7.59-3.12,15.62-4.7,23.9-4.7h27.45c24.63,0,47.25,14.53,57.62,37.03
		c3.09,6.7,2.56,14.43-1.43,20.66c-4.01,6.26-10.83,10-18.24,10h-95.95v-8.48h95.95c4.51,0,8.66-2.28,11.1-6.09
		c2.42-3.78,2.75-8.47,0.87-12.54c-9-19.5-28.6-32.1-49.93-32.1h-27.45c-7.37,0-14.49,1.46-21.22,4.3"/>
</g>
<path class="st0" d="M-460.49,110.65c0.92,0.6,1.85,0.85,2.75,0.85c2.99,0,5.64-2.71,6.67-3.76c16.64-17,27.6-17.67,33.04-16.25
	l-16.61,16.62c-4.39,4.39-4.39,11.55,0,15.94l16.89,16.91l-15.45,15.46c-1.6,1.6-1.6,4.19,0,5.8c0.8,0.8,1.85,1.2,2.9,1.2
	s2.1-0.4,2.9-1.2l15.45-15.46l14.77,14.78c2.78,2.78,6.44,4.18,10.09,4.18c3.66,0,7.31-1.39,10.09-4.18l14.47-14.48
	c1.43,5.47,0.74,16.43-16.23,33.05c-1.37,1.34-5.53,5.42-2.91,9.43c0.62,0.96,1.64,2.51,5.98,2.51c5.03,0,14.51-2.08,33.01-9.56
	c5.5-2.23,11.1-14.9,13.32-25.87c2.97-14.64,0.73-27.4-6.29-36.47l29.4-29.42c7.52-7.52,14.79-20.83,18.54-33.89
	c4.61-16.08,3.17-28.92-4.05-36.15c-16.03-16.04-55.53,0.02-69.99,14.49l-29.4,29.42c-9.06-7.02-21.82-9.27-36.45-6.29
	c-10.96,2.23-23.62,7.83-25.84,13.33C-467.38,106.14-462.56,109.3-460.49,110.65z M-336.5,149.05c-1.29,13.54-7.41,24.39-9.41,25.88
	c-9.58,3.87-18.49,6.72-24.24,8.09c20.4-21.5,17.1-36.07,13.91-42.29l14.74-14.76C-336.33,133.27-335.86,142.33-336.5,149.05z
	 M-355.97,40.97c6.51-6.51,18.7-13.13,30.33-16.46c12.89-3.7,23.12-2.98,28.07,1.97c4.95,4.95,5.67,15.19,1.97,28.1
	c-3.33,11.64-9.95,23.84-16.45,30.35l-70.76,70.81c-2.37,2.37-6.23,2.37-8.6,0l-14.77-14.78l35.24-35.26c1.6-1.6,1.6-4.19,0-5.8
	c-1.6-1.6-4.19-1.6-5.79,0l-35.24,35.26l-16.89-16.91c-0.57-0.58-0.89-1.35-0.89-2.17c0-0.83,0.32-1.6,0.89-2.18l17.74-17.75l0,0
	l25.94-25.96l0,0L-355.97,40.97z M-445.91,74.86c1.49-1.99,12.33-8.12,25.86-9.41c6.72-0.64,15.78-0.17,23.05,4.99l-6.33,6.34
	l-8.41,8.42C-417.96,82-432.52,78.7-454,99.12C-452.63,93.36-449.78,84.44-445.91,74.86z"/>
<path class="st0" d="M-331.25,73.97c3.52,0,7.05-1.34,9.73-4.03l9.11-9.11c5.36-5.37,5.36-14.1,0-19.47
	c-5.36-5.37-14.09-5.37-19.46,0l-9.11,9.11c-5.36,5.37-5.36,14.1,0,19.47C-338.29,72.63-334.77,73.97-331.25,73.97z M-336.01,55.44
	l9.11-9.11c1.31-1.31,3.04-1.97,4.76-1.97c1.72,0,3.45,0.66,4.76,1.97c2.63,2.63,2.63,6.9,0,9.53l-9.11,9.11
	c-2.63,2.63-6.9,2.63-9.52,0C-338.63,62.35-338.63,58.07-336.01,55.44z"/>
</svg>
