<?xml version="1.0" encoding="UTF-8"?>
<svg xmlns="http://www.w3.org/2000/svg" id="Layer_1" viewBox="0 0 257.8 79.42">
  <defs>
    <style>.cls-1{fill:#fff;}</style>
  </defs>
  <path class="cls-1" d="m57.57,50.77h19.9c-.21,1.2-.32,2.35-.62,3.45-2.39,8.96-7.89,15.51-15.84,20.08-5.36,3.08-11.21,4.57-17.34,4.98-6.49.43-12.88-.08-19.01-2.47-10.84-4.23-17.87-12.15-21.96-22.86C.7,48.67-.35,43.17.11,37.51c.89-10.94,5.97-19.56,14.99-25.8,5.8-4.02,12.36-6.04,19.28-7.14,7.23-1.14,14.22-.47,20.99,2.35.56.23.95.18,1.29-.3,1.59-2.28,3.75-3,6.49-2.68,1.86.22,3.77.1,5.65.02.89-.04,1.35.3,1.76,1.03,2.65,4.62,4.43,9.58,5.43,14.79.63,3.26.92,6.58,1.34,9.88.06.42,0,.86,0,1.36-.37.02-.68.04-.98.04-5.94,0-11.89,0-17.83.04-.83,0-1.11-.28-1.3-1.04-1.07-4.16-2.76-8.02-5.81-11.15-4.48-4.58-10.5-5.61-16.26-2.78-5.04,2.47-8.66,6.43-10.89,11.46-5.41,12.2-4.49,23.9,3.51,34.78,1.77,2.4,4.08,4.27,6.75,5.64,5.96,3.07,12.3,1.9,16.77-3.11,3.06-3.42,4.67-7.55,5.71-11.94.16-.67.3-1.35.44-2.02,0-.03.04-.05.12-.17"></path>
  <path class="cls-1" d="m233.78,60.64h-13.37v-1.14c0-7.82.04-15.65-.03-23.47-.01-1.84-.2-3.71-.61-5.5-.66-2.93-2.52-4.52-5.05-4.71-3.1-.24-5.33,1.06-6.58,3.85-1.04,2.31-1.3,4.79-1.32,7.27-.05,7.51-.02,15.02-.03,22.52v1.16h-13.41v-1.09c0-7.76.05-15.52-.03-23.28-.02-1.96-.25-3.96-.71-5.86-.72-2.94-2.62-4.45-5.26-4.58-3.15-.16-5.43,1.12-6.44,3.99-.62,1.78-1.06,3.72-1.09,5.6-.13,8.01-.08,16.02-.09,24.03,0,.37,0,.75,0,1.19h-13.38V17.43h13.37v3.95c3.61-4.12,8-5.68,13.1-5.39,5.11.29,9.24,2.39,12.33,6.85.1-.25.12-.39.19-.49,4.6-6.15,13.04-7.68,19.68-5.46,4.43,1.48,6.9,4.82,7.91,9.22.52,2.25.79,4.59.82,6.9.1,8.86.05,17.72.05,26.58,0,.34-.03.67-.05,1.05"></path>
  <path class="cls-1" d="m119.09,17.4h13.13v43.21h-13.1v-3.88c-.27.15-.44.2-.55.31-3.49,3.62-7.87,5.09-12.78,5.01-10.82-.17-19.18-7.55-21.03-18.49-1.3-7.73.28-14.76,5.49-20.75,6.15-7.07,16.85-8.96,24.83-4.46,1.38.78,2.6,1.82,4.01,2.82v-3.77Zm-10,33.78c.02.08.05.17.08.26,1.52-.43,3.15-.66,4.55-1.34,6.95-3.33,8.85-12.88,3.87-19.11-4.53-5.67-12.81-5.51-17.12.33-3.68,4.98-3.3,11.93.92,16.46,2.07,2.22,4.64,3.38,7.7,3.4Z"></path>
  <rect class="cls-1" x="142.67" y="17.44" width="13.3" height="43.18"></rect>
  <rect class="cls-1" x="244.19" y="17.4" width="13.27" height="43.22"></rect>
  <path class="cls-1" d="m149.84.05c3.76,0,6.72,2.92,6.73,6.65.01,3.76-3,6.77-6.76,6.76-3.72,0-6.72-3-6.74-6.7-.02-3.76,2.96-6.71,6.77-6.71"></path>
  <path class="cls-1" d="m250.93,13.46c-3.73.02-6.74-2.93-6.77-6.65-.03-3.7,2.86-6.61,6.41-6.8,3.48-.19,7.04,2.52,7.08,6.73.03,3.7-3,6.7-6.72,6.72"></path>
  <path class="cls-1" d="m94.68,78.97v-11.37c2.43,0,4.83-.16,7.18.05,2.03.18,3.11,1.97,2.48,3.73-.2.55-.68,1.01-1.07,1.57,1.14.55,1.71,1.55,1.62,2.9-.07,1.11-.59,1.99-1.51,2.58-.39.25-.86.51-1.29.52-2.44.05-4.88.02-7.41.02m2.44-1.84c1.34,0,2.53.06,3.72-.02.97-.06,1.49-.71,1.49-1.61,0-.94-.6-1.38-1.42-1.44-1.09-.09-2.19-.08-3.29-.05-.17,0-.46.32-.47.5-.05.84-.02,1.68-.02,2.63Zm.11-5.13c1.25,0,2.47.06,3.68-.02.68-.05,1.15-.54,1.13-1.28-.02-.7-.48-1.07-1.14-1.15-.53-.06-1.06-.09-1.59-.09q-2.4-.01-2.14,2.4s.03.05.07.14Z"></path>
  <path class="cls-1" d="m121.34,79.11h-2.48v-11.49c2.49,0,4.96-.1,7.42.04,1.39.08,2.32,1.05,2.62,2.47.31,1.51-.26,2.63-1.7,3.44,1.38.65,1.42,1.83,1.46,3.04.02.81.16,1.61.25,2.53-.6,0-1.41.03-2.21-.03-.17-.01-.43-.34-.46-.55-.1-.77-.13-1.56-.17-2.34-.07-1.15-.39-1.55-1.52-1.61-1.03-.06-2.06-.01-3.2-.01v4.52Zm.04-9.6v3.1c1.24,0,2.4.05,3.56-.01.96-.05,1.47-.63,1.48-1.5.02-.87-.47-1.5-1.42-1.56-1.18-.08-2.37-.02-3.62-.02Z"></path>
  <path class="cls-1" d="m142.95,79.09v-11.52h8.73v1.96h-6.16c-.1.13-.13.16-.13.19-.37,2.24-.3,2.32,1.92,2.32,1.19,0,2.39,0,3.58.01.06,0,.12.03.26.07v1.92h-5.77v3.07h6.59v1.97h-9.03Z"></path>
  <polygon class="cls-1" points="188.32 67.55 197.04 67.55 197.04 69.51 190.74 69.51 190.74 72.02 196.5 72.02 196.5 74.01 190.75 74.01 190.75 77.09 197.28 77.09 197.28 79.08 188.32 79.08 188.32 67.55"></polygon>
  <path class="cls-1" d="m169.93,76.35c.7-2.4,1.33-4.56,1.95-6.72.02-.06.03-.12.04-.18q.59-2.09,2.99-1.86c-.08.3-.15.58-.24.86-1.12,3.29-2.3,6.57-3.34,9.89-.31.98-.93.78-1.59.83-.66.05-1.07-.06-1.31-.81-1.07-3.34-2.23-6.66-3.35-9.98-.08-.23-.14-.47-.25-.84.75,0,1.43-.06,2.1.03.23.03.53.38.61.64.71,2.37,1.38,4.76,2.06,7.14.08.26.17.52.34,1.03"></path>
  <polygon class="cls-1" points="213.82 69.52 210.09 69.52 210.09 67.59 220.01 67.59 220.01 69.49 216.35 69.49 216.35 79.09 213.82 79.09 213.82 69.52"></polygon>
  <polygon class="cls-1" points="238.5 69.51 238.5 79.07 235.99 79.07 235.99 69.52 232.26 69.52 232.26 67.58 242.19 67.58 242.19 69.51 238.5 69.51"></polygon>
  <rect class="cls-1" x="255.36" y="67.59" width="2.44" height="11.52"></rect>
</svg>
