<?xml version="1.0" encoding="UTF-8"?>
<svg xmlns="http://www.w3.org/2000/svg" width="49" height="59" viewBox="0 0 49 59" fill="none">
  <path d="M26.1336 33.9527H22.8765C22.3752 33.9527 21.9762 33.5592 21.9762 33.0648V31.6187C21.5213 31.4814 21.076 31.2983 20.6493 31.0785L19.6471 32.0853C19.4801 32.25 19.2481 32.3509 19.0066 32.3509C18.7655 32.3509 18.5335 32.2594 18.3661 32.0853L16.0648 29.7786C15.7214 29.4309 15.7214 28.8817 16.0648 28.534L17.0392 27.5545C16.7981 27.1152 16.603 26.6481 16.4451 26.1725H15.0995C14.5982 26.1725 14.1992 25.779 14.1992 25.2845V22.0262C14.1992 21.5318 14.5982 21.1382 15.0995 21.1382H16.3709C16.5192 20.6348 16.7143 20.1498 16.9554 19.6737L16.0647 18.7768C15.7213 18.429 15.7213 17.8798 16.0647 17.5322L18.366 15.2254C18.533 15.0607 18.765 14.9598 19.0065 14.9598C19.2476 14.9598 19.4796 15.0513 19.647 15.2254L20.4913 16.0676C20.9644 15.8114 21.4657 15.601 21.9761 15.4453V14.2463C21.9761 13.7519 22.3751 13.3584 22.8764 13.3584H26.1243C26.6256 13.3584 27.0246 13.7519 27.0246 14.2463V15.4453C27.535 15.601 28.0363 15.8114 28.5094 16.0676L29.3537 15.2254C29.5206 15.0607 29.7526 14.9598 29.9942 14.9598C30.2353 14.9598 30.4673 15.0513 30.6347 15.2254L32.936 17.5322C33.2794 17.8799 33.2794 18.4291 32.936 18.7768L32.0453 19.6737C32.2864 20.1404 32.4815 20.6348 32.6298 21.1382H33.9012C34.4025 21.1382 34.8015 21.5318 34.8015 22.0262V25.2845C34.8015 25.779 34.4025 26.1725 33.9012 26.1725H32.5556C32.3978 26.6485 32.203 27.1062 31.9615 27.5545L32.9359 28.534C33.2794 28.8817 33.2794 29.4309 32.9359 29.7786L30.6346 32.0853C30.3007 32.4241 29.6879 32.4241 29.3541 32.0853L28.3519 31.0785C27.9252 31.2983 27.4889 31.472 27.0249 31.6187L27.0241 33.0648C27.0336 33.5592 26.6347 33.9527 26.1334 33.9527H26.1336ZM23.7858 32.1768H25.2428V30.9322C25.2428 30.5113 25.5399 30.1541 25.9479 30.0626C26.6903 29.9069 27.3863 29.6139 28.0268 29.2114C28.3889 28.9826 28.8529 29.0374 29.1496 29.3397L30.0034 30.1909L31.0428 29.1567L30.1985 28.3145C29.9015 28.0215 29.8551 27.5549 30.0871 27.2071C30.5138 26.548 30.8204 25.8341 30.9965 25.0834C31.0892 24.6805 31.4513 24.397 31.878 24.397H33.0103V22.914L31.9336 22.9136C31.5069 22.9136 31.1357 22.6116 31.052 22.1997C30.8942 21.4127 30.5971 20.6711 30.1795 19.994C29.9662 19.6462 30.0126 19.1975 30.3096 18.9046L31.052 18.1633L30.0126 17.1291L29.3166 17.834C29.0104 18.1359 28.5369 18.1817 28.1752 17.9439C27.4978 17.4952 26.7459 17.1843 25.9571 17.0102C25.5486 16.9186 25.252 16.5615 25.252 16.1406V15.1521H23.795V16.1406C23.795 16.5615 23.498 16.9186 23.0899 17.0102C22.3011 17.1843 21.5587 17.4952 20.8718 17.9439C20.5097 18.1817 20.0366 18.1359 19.7305 17.825L19.0345 17.1201L17.995 18.1637L18.7374 18.9144C19.0249 19.2074 19.0809 19.6556 18.8675 20.0038C18.4408 20.6903 18.1437 21.4315 17.995 22.2096C17.9113 22.6215 17.5401 22.9234 17.1134 22.9234H16.0372V24.4064H17.1694C17.587 24.4064 17.9491 24.6899 18.051 25.0929C18.2275 25.8525 18.5337 26.5574 18.9604 27.2071C19.1924 27.5548 19.146 28.0219 18.8489 28.3145L18.0046 29.1567L19.0441 30.1909L19.8697 29.3487C20.1668 29.0468 20.6399 29.001 20.9924 29.2204C21.6329 29.6233 22.3381 29.9159 23.0714 30.0716C23.489 30.1631 23.7765 30.5203 23.7765 30.9411V32.1768L23.7858 32.1768ZM24.5096 28.0946C22.0594 28.0946 20.0643 26.1083 20.0643 23.6643C20.0643 21.2202 22.0594 19.2339 24.5096 19.2339C26.9597 19.2339 28.9548 21.2202 28.9548 23.6643C28.9548 26.1083 26.9597 28.0946 24.5096 28.0946ZM24.5096 21.0009C23.0526 21.0009 21.8647 22.1908 21.8647 23.6554C21.8647 25.1199 23.0524 26.3098 24.5096 26.3098C25.9667 26.3098 27.1544 25.1199 27.1544 23.6554C27.1544 22.1998 25.9667 21.0009 24.5096 21.0009Z" fill="white"></path>
  <path d="M27.0068 46.4767C26.5092 46.4767 26.1131 46.0764 26.1131 45.5733V39.5482H23.1653V45.5733C23.1653 46.0764 22.7692 46.4767 22.2716 46.4767C21.774 46.4767 21.378 46.0764 21.378 45.5733V39.5482L20.7701 39.5486C19.4529 39.5486 18.375 38.459 18.375 37.1274V36.6527C18.375 35.321 19.4529 34.2314 20.7701 34.2314C22.0874 34.2314 23.1653 35.321 23.1653 36.6527V37.7423H26.1131V36.6527C26.1131 35.321 27.191 34.2314 28.5083 34.2314C29.8255 34.2314 30.9034 35.321 30.9034 36.6527V37.1274C30.9034 38.459 29.8255 39.5486 28.5083 39.5486H27.9004V45.5738C27.9004 46.0764 27.504 46.4767 27.0068 46.4767ZM27.9004 37.7419H28.5083C28.8397 37.7419 29.1161 37.4625 29.1161 37.1274V36.6527C29.1161 36.3176 28.8397 36.0382 28.5083 36.0382C28.1768 36.0382 27.9004 36.3176 27.9004 36.6527V37.7419ZM20.7701 36.0469C20.4386 36.0469 20.1623 36.3263 20.1623 36.6613V37.1361C20.1623 37.4712 20.4386 37.7506 20.7701 37.7506H21.3779V36.661C21.3779 36.3171 21.1016 36.0469 20.7701 36.0469Z" fill="white"></path>
  <path d="M31.161 50.651H17.8394C16.1437 50.651 14.7559 49.3444 14.7559 47.7288C14.7559 46.1219 16.1346 44.8066 17.8394 44.8066H31.161C32.8566 44.8066 34.2445 46.1132 34.2445 47.7288C34.2445 49.3444 32.8658 50.651 31.161 50.651ZM17.8394 46.5192C17.1406 46.5192 16.563 47.0576 16.563 47.7288C16.563 48.3996 17.1311 48.9384 17.8394 48.9384H31.161C31.8597 48.9384 32.4374 48.4 32.4374 47.7288C32.4374 47.058 31.8692 46.5192 31.161 46.5192H17.8394Z" fill="white"></path>
  <path d="M31.161 55.1041H17.8394C16.1437 55.1041 14.7559 53.7353 14.7559 52.0428C14.7559 50.3593 16.1346 48.9814 17.8394 48.9814C18.3426 48.9814 18.7431 49.3791 18.7431 49.8787C18.7431 50.3783 18.3426 50.776 17.8394 50.776C17.1406 50.776 16.563 51.34 16.563 52.0431C16.563 52.7459 17.1311 53.3103 17.8394 53.3103H31.161C31.8597 53.3103 32.4374 52.7463 32.4374 52.0431C32.4374 51.3404 31.8692 50.776 31.161 50.776C30.6577 50.776 30.2572 50.3783 30.2572 49.8787C30.2572 49.3791 30.6577 48.9814 31.161 48.9814C32.8566 48.9814 34.2445 50.3502 34.2445 52.0428C34.2445 53.7349 32.8658 55.1041 31.161 55.1041Z" fill="white"></path>
  <path d="M17.1496 46.476C16.6525 46.476 16.257 46.0819 16.257 45.5868V44.6975C16.257 41.6451 15.0517 38.6935 12.9354 36.6126C9.62297 33.3401 7.85622 28.812 8.09577 24.1828C8.49134 15.8687 15.8984 8.74638 24.2627 8.62695H24.4928C28.8359 8.62695 32.9304 10.2954 36.0222 13.3387C39.1877 16.4464 40.9265 20.5803 40.9265 24.9891C40.9265 29.4623 39.1412 33.6331 35.9117 36.7495C33.8965 38.7019 32.7372 41.4886 32.7372 44.3946V45.5862C32.7372 46.0814 32.3417 46.4754 31.8446 46.4754C31.3476 46.4754 30.952 46.0814 30.952 45.5862V44.3946C30.952 41.012 32.3046 37.7578 34.6695 35.4662C37.5495 32.6888 39.1412 28.967 39.1412 24.9891C39.1412 21.066 37.586 17.3719 34.7706 14.6035C32.0102 11.8994 28.3572 10.4054 24.4927 10.4054H24.2717C16.8277 10.5154 10.231 16.8588 9.88085 24.2745C9.66931 28.3995 11.2425 32.4418 14.1964 35.3571C16.6438 37.7679 18.0425 41.1778 18.0425 44.707V45.5962C18.0429 46.0729 17.6383 46.476 17.1503 46.476L17.1496 46.476Z" fill="white"></path>
  <path d="M24.523 58.9996C21.8791 58.9996 19.7676 56.796 19.7676 54.0847C19.7676 53.5672 20.1623 53.1553 20.6582 53.1553C21.1541 53.1553 21.5488 53.5672 21.5488 54.0847C21.5488 55.7707 22.8616 57.1411 24.4776 57.1411C26.1391 57.1411 27.4523 55.7711 27.4523 54.0847C27.4523 53.5672 27.847 53.1553 28.3429 53.1553C28.8388 53.1553 29.2335 53.5672 29.2335 54.0847C29.2327 56.796 27.1211 58.9996 24.523 58.9996Z" fill="white"></path>
  <path d="M24.4993 6.40094C24.0342 6.40094 23.6641 5.99922 23.6641 5.49445V0.906495C23.6641 0.401725 24.0342 0 24.4993 0C24.9644 0 25.3345 0.401725 25.3345 0.906495V5.49445C25.3345 5.98962 24.9644 6.40094 24.4993 6.40094Z" fill="white"></path>
  <path d="M13.0175 10.0192C12.7277 10.0192 12.4471 9.88815 12.2692 9.63618L9.63171 5.87942C9.34195 5.46807 9.44466 4.90737 9.85635 4.61791C10.268 4.32838 10.8292 4.43101 11.1189 4.84236L13.7564 8.59912C14.0462 9.01047 13.9435 9.57116 13.5318 9.86063C13.3727 9.97244 13.1949 10.0192 13.0175 10.0192Z" fill="white"></path>
  <path d="M5.77659 19.4812C5.67379 19.4812 5.57057 19.4627 5.46778 19.426L1.15285 17.8749C0.684833 17.7088 0.441637 17.1914 0.610037 16.7297C0.778436 16.2681 1.30287 16.0282 1.77093 16.1943L6.08543 17.7363C6.55345 17.9024 6.79664 18.4197 6.62824 18.8815C6.49745 19.2504 6.14138 19.4812 5.77659 19.4812Z" fill="white"></path>
  <path d="M0.891895 32.5613C0.498174 32.5613 0.140834 32.2849 0.0308515 31.8754C-0.0975315 31.3801 0.186626 30.8753 0.662938 30.7418L5.00416 29.5321C5.48047 29.3986 5.96578 29.6941 6.09415 30.1895C6.22253 30.6849 5.93838 31.1896 5.46206 31.3231L1.12084 32.5328C1.03825 32.552 0.965077 32.5613 0.891895 32.5613Z" fill="white"></path>
  <path d="M35.9932 10.0192C35.8153 10.0192 35.6283 9.96336 35.4696 9.85133C35.0579 9.56231 34.9552 9.00257 35.245 8.59199L37.8825 4.84169C38.1723 4.43105 38.7334 4.3286 39.1451 4.61762C39.5568 4.90665 39.6595 5.46638 39.3697 5.87696L36.7322 9.62727C36.5639 9.88839 36.2834 10.0192 35.9932 10.0192Z" fill="white"></path>
  <path d="M43.2233 19.4812C42.8489 19.4812 42.5025 19.2595 42.3718 18.8902C42.2034 18.4286 42.4465 17.9117 42.9145 17.7452L47.2292 16.1943C47.6971 16.0282 48.2211 16.268 48.39 16.7297C48.5584 17.1913 48.3152 17.7081 47.8472 17.8747L43.5326 19.4256C43.4294 19.4631 43.3265 19.4812 43.2233 19.4812Z" fill="white"></path>
  <path d="M48.1104 32.5613C48.0371 32.5613 47.9544 32.552 47.8812 32.5328L43.5354 31.323C43.0586 31.1895 42.7836 30.6848 42.9027 30.1894C43.0312 29.694 43.517 29.3988 43.9938 29.5319L48.3396 30.7417C48.8164 30.8752 49.0914 31.38 48.9723 31.8754C48.8622 32.2947 48.5045 32.5613 48.1104 32.5613Z" fill="white"></path>
</svg>
