<?xml version="1.0" encoding="UTF-8"?>
<svg xmlns="http://www.w3.org/2000/svg" width="77" height="55" viewBox="0 0 77 55" fill="none">
  <path d="M54.1255 47.0835C53.6507 44.1585 52.3031 41.4452 50.2594 39.2994H76.0508L74.9437 38.5556C74.4767 38.2355 63.3627 30.7714 55.8121 30.0882C54.7915 29.993 53.7104 29.9152 52.6206 29.846C52.6055 28.8438 52.4661 27.8473 52.2055 26.8794L51.7817 25.1496C52.569 24.6619 53.3965 24.2423 54.2553 23.8955L62.3594 22.5981L60.2231 22.1657C58.078 21.7713 55.9 21.583 53.719 21.6035C51.8941 21.6035 48.1923 21.5257 44.8538 21.4565C44.8267 21.4205 44.7946 21.3885 44.7586 21.3613L44.6981 21.4478H44.5424C44.4559 21.344 44.1013 20.7818 44.0581 18.438C43.9802 14.3816 44.0581 12.5393 44.0581 12.522V12.2193L43.79 12.1155C42.5739 11.6691 41.3121 11.3588 40.0276 11.1901V8.65592H38.4362V0L37.6232 2.38419e-07V8.65592H36.0145V11.1987C34.7301 11.3674 33.4683 11.6778 32.2522 12.1242L31.9841 12.228V12.522C31.9841 12.522 32.0619 14.3816 31.9841 18.438C31.9408 20.7818 31.5862 21.344 31.4997 21.4478H31.3267L31.2662 21.3613C31.2302 21.3885 31.1982 21.4205 31.171 21.4565C27.8325 21.5343 24.1307 21.6035 22.3058 21.6035C20.1248 21.583 17.9469 21.7713 15.8017 22.1657L13.6568 22.6241L21.7263 23.8955C22.606 24.2215 23.4542 24.6268 24.2605 25.1063L23.8367 26.8361C23.576 27.804 23.4366 28.8005 23.4215 29.8028C22.3318 29.8633 21.2506 29.9411 20.23 30.0449C12.6881 30.8147 1.57412 38.2355 1.10707 38.5469L0 39.2907H25.7914C23.7477 41.4366 22.4001 44.1498 21.9252 47.0748L21.8734 47.5246H28.3688L29.4758 51.088H46.5663L47.6734 47.5246H54.1688L54.1255 47.0835ZM51.4184 27.0697C51.6554 27.9592 51.786 28.8738 51.8076 29.7941C50.3632 29.7163 48.9015 29.6644 47.4831 29.6298C48.2326 28.3982 49.1366 27.2675 50.1729 26.2653C50.4466 26.017 50.7355 25.7859 51.0378 25.5734L51.4184 27.0697ZM36.8275 9.46893H39.2233V11.1122C38.86 11.1122 38.4881 11.069 38.1076 11.069H37.9519C37.5713 11.069 37.1994 11.069 36.8362 11.1122L36.8275 9.46893ZM32.8144 12.7815C34.4684 12.2274 36.199 11.9356 37.9432 11.9166H38.0989C39.8431 11.9363 41.5736 12.2281 43.2278 12.7815C43.2278 13.4561 43.1759 15.2897 43.2278 18.4466C43.2037 19.4525 43.335 20.456 43.617 21.4219L38.1076 21.3008H37.9346L32.4165 21.4392C32.6985 20.4733 32.8298 19.4698 32.8057 18.4639C32.8663 15.2465 32.8317 13.4561 32.8144 12.7815ZM18.6386 22.5808C19.6506 22.4857 20.896 22.4079 22.3058 22.4079C26.0681 22.4079 37.8135 22.0965 37.9173 22.0878H38.0643C38.1854 22.0878 49.9221 22.4079 53.6844 22.4079C55.1029 22.4079 56.357 22.4857 57.3603 22.5808L54.0217 23.1171C52.4241 23.6891 50.9397 24.5381 49.6367 25.6253C48.4341 26.7923 47.398 28.1195 46.5576 29.5692C42.6137 29.4914 39.2925 29.5692 38.3584 29.5692L38.4362 23.3333H37.6232L37.5454 29.5779C36.4383 29.5779 33.2209 29.5173 29.4931 29.5779C28.6534 28.1251 27.6173 26.795 26.4141 25.6253C25.0886 24.4939 23.5672 23.6145 21.9252 23.0306L18.6386 22.5808ZM24.6064 27.061L24.9611 25.5734C25.2635 25.7858 25.5523 26.0169 25.826 26.2653C26.8622 27.2677 27.7661 28.3983 28.5158 29.6298C27.1147 29.6298 25.653 29.7163 24.1913 29.7941C24.2301 28.8717 24.3782 27.9572 24.6324 27.0697L24.6064 27.061ZM20.2819 30.8839C27.7028 30.1833 37.8048 30.4082 37.9086 30.4082H38.3238C39.8893 30.4082 48.9275 30.2439 55.7169 30.8839C61.6675 31.4461 70.2386 36.5317 73.309 38.4691H2.71579C5.79484 36.5403 14.3574 31.4547 20.3079 30.8925L20.2819 30.8839ZM45.9695 50.2836H30.0813L29.2164 47.5332H46.8258L45.9695 50.2836ZM22.8161 46.7202C23.4192 43.8876 24.856 41.3001 26.9417 39.2907H49.1091C51.1948 41.3001 52.6316 43.8876 53.2347 46.7202H22.8161Z" fill="white"></path>
</svg>
