<?xml version="1.0" encoding="UTF-8"?>
<svg xmlns="http://www.w3.org/2000/svg" width="170" height="18" viewBox="0 0 170 18" fill="none">
  <path d="M3.886 6.188C4.46467 6.188 4.98733 6.314 5.454 6.566C5.92067 6.80867 6.28467 7.17733 6.546 7.672C6.81667 8.16667 6.952 8.76867 6.952 9.478V14H5.692V9.66C5.692 8.89467 5.50067 8.31133 5.118 7.91C4.73533 7.49933 4.21267 7.294 3.55 7.294C2.878 7.294 2.34133 7.504 1.94 7.924C1.548 8.344 1.352 8.95533 1.352 9.758V14H0.0780001V3.64H1.352V7.42C1.604 7.028 1.94933 6.72467 2.388 6.51C2.836 6.29533 3.33533 6.188 3.886 6.188ZM10.5871 7.378V11.9C10.5871 12.2733 10.6664 12.5393 10.8251 12.698C10.9837 12.8473 11.2591 12.922 11.6511 12.922H12.5891V14H11.4411C10.7317 14 10.1997 13.8367 9.84508 13.51C9.49041 13.1833 9.31308 12.6467 9.31308 11.9V7.378H8.31908V6.328H9.31308V4.396H10.5871V6.328H12.5891V7.378H10.5871ZM15.6867 7.378V11.9C15.6867 12.2733 15.766 12.5393 15.9247 12.698C16.0834 12.8473 16.3587 12.922 16.7507 12.922H17.6887V14H16.5407C15.8314 14 15.2994 13.8367 14.9447 13.51C14.59 13.1833 14.4127 12.6467 14.4127 11.9V7.378H13.4187V6.328H14.4127V4.396H15.6867V6.328H17.6887V7.378H15.6867ZM20.5063 7.742C20.7583 7.30333 21.1316 6.93933 21.6263 6.65C22.1303 6.35133 22.7136 6.202 23.3763 6.202C24.0576 6.202 24.6736 6.36533 25.2243 6.692C25.7843 7.01867 26.223 7.48067 26.5403 8.078C26.8576 8.666 27.0163 9.352 27.0163 10.136C27.0163 10.9107 26.8576 11.6013 26.5403 12.208C26.223 12.8147 25.7843 13.286 25.2243 13.622C24.6736 13.958 24.0576 14.126 23.3763 14.126C22.723 14.126 22.1443 13.9813 21.6403 13.692C21.1456 13.3933 20.7676 13.0247 20.5063 12.586V17.64H19.2323V6.328H20.5063V7.742ZM25.7143 10.136C25.7143 9.55733 25.5976 9.05333 25.3643 8.624C25.131 8.19467 24.8136 7.868 24.4123 7.644C24.0203 7.42 23.5863 7.308 23.1103 7.308C22.6436 7.308 22.2096 7.42467 21.8083 7.658C21.4163 7.882 21.099 8.21333 20.8563 8.652C20.623 9.08133 20.5063 9.58067 20.5063 10.15C20.5063 10.7287 20.623 11.2373 20.8563 11.676C21.099 12.1053 21.4163 12.4367 21.8083 12.67C22.2096 12.894 22.6436 13.006 23.1103 13.006C23.5863 13.006 24.0203 12.894 24.4123 12.67C24.8136 12.4367 25.131 12.1053 25.3643 11.676C25.5976 11.2373 25.7143 10.724 25.7143 10.136ZM31.4092 14.126C30.8212 14.126 30.2939 14.028 29.8272 13.832C29.3606 13.6267 28.9919 13.3467 28.7212 12.992C28.4506 12.628 28.3012 12.2127 28.2732 11.746H29.5892C29.6266 12.1287 29.8039 12.4413 30.1212 12.684C30.4479 12.9267 30.8726 13.048 31.3952 13.048C31.8806 13.048 32.2632 12.9407 32.5432 12.726C32.8232 12.5113 32.9632 12.2407 32.9632 11.914C32.9632 11.578 32.8139 11.3307 32.5152 11.172C32.2166 11.004 31.7546 10.8407 31.1292 10.682C30.5599 10.5327 30.0932 10.3833 29.7292 10.234C29.3746 10.0753 29.0666 9.84667 28.8052 9.548C28.5532 9.24 28.4272 8.83867 28.4272 8.344C28.4272 7.952 28.5439 7.59267 28.7772 7.266C29.0106 6.93933 29.3419 6.68267 29.7712 6.496C30.2006 6.3 30.6906 6.202 31.2412 6.202C32.0906 6.202 32.7766 6.41667 33.2992 6.846C33.8219 7.27533 34.1019 7.86333 34.1392 8.61H32.8652C32.8372 8.20867 32.6739 7.88667 32.3752 7.644C32.0859 7.40133 31.6939 7.28 31.1992 7.28C30.7419 7.28 30.3779 7.378 30.1072 7.574C29.8366 7.77 29.7012 8.02667 29.7012 8.344C29.7012 8.596 29.7806 8.806 29.9392 8.974C30.1072 9.13267 30.3126 9.26333 30.5552 9.366C30.8072 9.45933 31.1526 9.56667 31.5912 9.688C32.1419 9.83733 32.5899 9.98667 32.9352 10.136C33.2806 10.276 33.5746 10.4907 33.8172 10.78C34.0692 11.0693 34.1999 11.4473 34.2092 11.914C34.2092 12.334 34.0926 12.712 33.8592 13.048C33.6259 13.384 33.2946 13.65 32.8652 13.846C32.4452 14.0327 31.9599 14.126 31.4092 14.126ZM36.4137 14.084C36.171 14.084 35.9657 14 35.7977 13.832C35.6297 13.664 35.5457 13.4587 35.5457 13.216C35.5457 12.9733 35.6297 12.768 35.7977 12.6C35.9657 12.432 36.171 12.348 36.4137 12.348C36.647 12.348 36.843 12.432 37.0017 12.6C37.1697 12.768 37.2537 12.9733 37.2537 13.216C37.2537 13.4587 37.1697 13.664 37.0017 13.832C36.843 14 36.647 14.084 36.4137 14.084ZM36.4137 8.092C36.171 8.092 35.9657 8.008 35.7977 7.84C35.6297 7.672 35.5457 7.46667 35.5457 7.224C35.5457 6.98133 35.6297 6.776 35.7977 6.608C35.9657 6.44 36.171 6.356 36.4137 6.356C36.647 6.356 36.843 6.44 37.0017 6.608C37.1697 6.776 37.2537 6.98133 37.2537 7.224C37.2537 7.46667 37.1697 7.672 37.0017 7.84C36.843 8.008 36.647 8.092 36.4137 8.092ZM43.7482 0.812L39.9122 16.38H38.6522L42.4742 0.812H43.7482ZM50.4064 0.812L46.5704 16.38H45.3104L49.1324 0.812H50.4064ZM51.8286 10.136C51.8286 9.352 51.9872 8.666 52.3046 8.078C52.6219 7.48067 53.0559 7.01867 53.6066 6.692C54.1666 6.36533 54.7872 6.202 55.4686 6.202C56.1406 6.202 56.7239 6.34667 57.2186 6.636C57.7132 6.92533 58.0819 7.28933 58.3246 7.728V6.328H59.6126V14H58.3246V12.572C58.0726 13.02 57.6946 13.3933 57.1906 13.692C56.6959 13.9813 56.1172 14.126 55.4546 14.126C54.7732 14.126 54.1572 13.958 53.6066 13.622C53.0559 13.286 52.6219 12.8147 52.3046 12.208C51.9872 11.6013 51.8286 10.9107 51.8286 10.136ZM58.3246 10.15C58.3246 9.57133 58.2079 9.06733 57.9746 8.638C57.7412 8.20867 57.4239 7.882 57.0226 7.658C56.6306 7.42467 56.1966 7.308 55.7206 7.308C55.2446 7.308 54.8106 7.42 54.4186 7.644C54.0266 7.868 53.7139 8.19467 53.4806 8.624C53.2472 9.05333 53.1306 9.55733 53.1306 10.136C53.1306 10.724 53.2472 11.2373 53.4806 11.676C53.7139 12.1053 54.0266 12.4367 54.4186 12.67C54.8106 12.894 55.2446 13.006 55.7206 13.006C56.1966 13.006 56.6306 12.894 57.0226 12.67C57.4239 12.4367 57.7412 12.1053 57.9746 11.676C58.2079 11.2373 58.3246 10.7287 58.3246 10.15ZM61.2895 10.136C61.2895 9.352 61.4482 8.666 61.7655 8.078C62.0828 7.48067 62.5168 7.01867 63.0675 6.692C63.6275 6.36533 64.2528 6.202 64.9435 6.202C65.5408 6.202 66.0962 6.342 66.6095 6.622C67.1228 6.89267 67.5148 7.252 67.7855 7.7V3.64H69.0735V14H67.7855V12.558C67.5335 13.0153 67.1602 13.3933 66.6655 13.692C66.1708 13.9813 65.5922 14.126 64.9295 14.126C64.2482 14.126 63.6275 13.958 63.0675 13.622C62.5168 13.286 62.0828 12.8147 61.7655 12.208C61.4482 11.6013 61.2895 10.9107 61.2895 10.136ZM67.7855 10.15C67.7855 9.57133 67.6688 9.06733 67.4355 8.638C67.2022 8.20867 66.8848 7.882 66.4835 7.658C66.0915 7.42467 65.6575 7.308 65.1815 7.308C64.7055 7.308 64.2715 7.42 63.8795 7.644C63.4875 7.868 63.1748 8.19467 62.9415 8.624C62.7082 9.05333 62.5915 9.55733 62.5915 10.136C62.5915 10.724 62.7082 11.2373 62.9415 11.676C63.1748 12.1053 63.4875 12.4367 63.8795 12.67C64.2715 12.894 64.7055 13.006 65.1815 13.006C65.6575 13.006 66.0915 12.894 66.4835 12.67C66.8848 12.4367 67.2022 12.1053 67.4355 11.676C67.6688 11.2373 67.7855 10.7287 67.7855 10.15ZM72.5004 7.574C72.7244 7.13533 73.0418 6.79467 73.4524 6.552C73.8724 6.30933 74.3811 6.188 74.9784 6.188V7.504H74.6424C73.2144 7.504 72.5004 8.27867 72.5004 9.828V14H71.2264V6.328H72.5004V7.574ZM83.4491 9.87C83.4491 10.1127 83.4351 10.3693 83.4071 10.64H77.2751C77.3218 11.396 77.5784 11.9887 78.0451 12.418C78.5211 12.838 79.0951 13.048 79.7671 13.048C80.3178 13.048 80.7751 12.922 81.1391 12.67C81.5124 12.4087 81.7738 12.0633 81.9231 11.634H83.2951C83.0898 12.3713 82.6791 12.9733 82.0631 13.44C81.4471 13.8973 80.6818 14.126 79.7671 14.126C79.0391 14.126 78.3858 13.9627 77.8071 13.636C77.2378 13.3093 76.7898 12.8473 76.4631 12.25C76.1364 11.6433 75.9731 10.9433 75.9731 10.15C75.9731 9.35667 76.1318 8.66133 76.4491 8.064C76.7664 7.46667 77.2098 7.00933 77.7791 6.692C78.3578 6.36533 79.0204 6.202 79.7671 6.202C80.4951 6.202 81.1391 6.36067 81.6991 6.678C82.2591 6.99533 82.6884 7.434 82.9871 7.994C83.2951 8.54467 83.4491 9.17 83.4491 9.87ZM82.1331 9.604C82.1331 9.11867 82.0258 8.70333 81.8111 8.358C81.5964 8.00333 81.3024 7.73733 80.9291 7.56C80.5651 7.37333 80.1591 7.28 79.7111 7.28C79.0671 7.28 78.5164 7.48533 78.0591 7.896C77.6111 8.30667 77.3544 8.876 77.2891 9.604H82.1331ZM88.8687 6.188C89.8021 6.188 90.5581 6.47267 91.1367 7.042C91.7154 7.602 92.0047 8.414 92.0047 9.478V14H90.7447V9.66C90.7447 8.89467 90.5534 8.31133 90.1707 7.91C89.7881 7.49933 89.2654 7.294 88.6027 7.294C87.9307 7.294 87.3941 7.504 86.9927 7.924C86.6007 8.344 86.4047 8.95533 86.4047 9.758V14H85.1307V6.328H86.4047V7.42C86.6567 7.028 86.9974 6.72467 87.4267 6.51C87.8654 6.29533 88.3461 6.188 88.8687 6.188ZM93.6098 10.136C93.6098 9.352 93.7685 8.666 94.0858 8.078C94.4031 7.48067 94.8371 7.01867 95.3878 6.692C95.9478 6.36533 96.5685 6.202 97.2498 6.202C97.9218 6.202 98.5051 6.34667 98.9998 6.636C99.4945 6.92533 99.8631 7.28933 100.106 7.728V6.328H101.394V14H100.106V12.572C99.8538 13.02 99.4758 13.3933 98.9718 13.692C98.4771 13.9813 97.8985 14.126 97.2358 14.126C96.5545 14.126 95.9385 13.958 95.3878 13.622C94.8371 13.286 94.4031 12.8147 94.0858 12.208C93.7685 11.6013 93.6098 10.9107 93.6098 10.136ZM100.106 10.15C100.106 9.57133 99.9891 9.06733 99.7558 8.638C99.5225 8.20867 99.2051 7.882 98.8038 7.658C98.4118 7.42467 97.9778 7.308 97.5018 7.308C97.0258 7.308 96.5918 7.42 96.1998 7.644C95.8078 7.868 95.4951 8.19467 95.2618 8.624C95.0285 9.05333 94.9118 9.55733 94.9118 10.136C94.9118 10.724 95.0285 11.2373 95.2618 11.676C95.4951 12.1053 95.8078 12.4367 96.1998 12.67C96.5918 12.894 97.0258 13.006 97.5018 13.006C97.9778 13.006 98.4118 12.894 98.8038 12.67C99.2051 12.4367 99.5225 12.1053 99.7558 11.676C99.9891 11.2373 100.106 10.7287 100.106 10.15ZM104.821 3.64V14H103.547V3.64H104.821ZM107.65 5.082C107.407 5.082 107.202 4.998 107.034 4.83C106.866 4.662 106.782 4.45667 106.782 4.214C106.782 3.97133 106.866 3.766 107.034 3.598C107.202 3.43 107.407 3.346 107.65 3.346C107.883 3.346 108.079 3.43 108.238 3.598C108.406 3.766 108.49 3.97133 108.49 4.214C108.49 4.45667 108.406 4.662 108.238 4.83C108.079 4.998 107.883 5.082 107.65 5.082ZM108.266 6.328V14H106.992V6.328H108.266ZM114.175 6.188C115.109 6.188 115.865 6.47267 116.443 7.042C117.022 7.602 117.311 8.414 117.311 9.478V14H116.051V9.66C116.051 8.89467 115.86 8.31133 115.477 7.91C115.095 7.49933 114.572 7.294 113.909 7.294C113.237 7.294 112.701 7.504 112.299 7.924C111.907 8.344 111.711 8.95533 111.711 9.758V14H110.437V6.328H111.711V7.42C111.963 7.028 112.304 6.72467 112.733 6.51C113.172 6.29533 113.653 6.188 114.175 6.188ZM118.916 10.136C118.916 9.352 119.075 8.666 119.392 8.078C119.71 7.48067 120.144 7.01867 120.694 6.692C121.254 6.36533 121.875 6.202 122.556 6.202C123.228 6.202 123.812 6.34667 124.306 6.636C124.801 6.92533 125.17 7.28933 125.412 7.728V6.328H126.7V14H125.412V12.572C125.16 13.02 124.782 13.3933 124.278 13.692C123.784 13.9813 123.205 14.126 122.542 14.126C121.861 14.126 121.245 13.958 120.694 13.622C120.144 13.286 119.71 12.8147 119.392 12.208C119.075 11.6013 118.916 10.9107 118.916 10.136ZM125.412 10.15C125.412 9.57133 125.296 9.06733 125.062 8.638C124.829 8.20867 124.512 7.882 124.11 7.658C123.718 7.42467 123.284 7.308 122.808 7.308C122.332 7.308 121.898 7.42 121.506 7.644C121.114 7.868 120.802 8.19467 120.568 8.624C120.335 9.05333 120.218 9.55733 120.218 10.136C120.218 10.724 120.335 11.2373 120.568 11.676C120.802 12.1053 121.114 12.4367 121.506 12.67C121.898 12.894 122.332 13.006 122.808 13.006C123.284 13.006 123.718 12.894 124.11 12.67C124.512 12.4367 124.829 12.1053 125.062 11.676C125.296 11.2373 125.412 10.7287 125.412 10.15ZM129.259 14.084C129.017 14.084 128.811 14 128.643 13.832C128.475 13.664 128.391 13.4587 128.391 13.216C128.391 12.9733 128.475 12.768 128.643 12.6C128.811 12.432 129.017 12.348 129.259 12.348C129.493 12.348 129.689 12.432 129.847 12.6C130.015 12.768 130.099 12.9733 130.099 13.216C130.099 13.4587 130.015 13.664 129.847 13.832C129.689 14 129.493 14.084 129.259 14.084ZM132.451 5.082C132.208 5.082 132.003 4.998 131.835 4.83C131.667 4.662 131.583 4.45667 131.583 4.214C131.583 3.97133 131.667 3.766 131.835 3.598C132.003 3.43 132.208 3.346 132.451 3.346C132.684 3.346 132.88 3.43 133.039 3.598C133.207 3.766 133.291 3.97133 133.291 4.214C133.291 4.45667 133.207 4.662 133.039 4.83C132.88 4.998 132.684 5.082 132.451 5.082ZM133.067 6.328V14H131.793V6.328H133.067ZM136.792 7.378V11.9C136.792 12.2733 136.871 12.5393 137.03 12.698C137.189 12.8473 137.464 12.922 137.856 12.922H138.794V14H137.646C136.937 14 136.405 13.8367 136.05 13.51C135.695 13.1833 135.518 12.6467 135.518 11.9V7.378H134.524V6.328H135.518V4.396H136.792V6.328H138.794V7.378H136.792ZM145.098 0.812L141.262 16.38H140.002L143.824 0.812H145.098ZM153.996 9.87C153.996 10.1127 153.982 10.3693 153.954 10.64H147.822C147.869 11.396 148.125 11.9887 148.592 12.418C149.068 12.838 149.642 13.048 150.314 13.048C150.865 13.048 151.322 12.922 151.686 12.67C152.059 12.4087 152.321 12.0633 152.47 11.634H153.842C153.637 12.3713 153.226 12.9733 152.61 13.44C151.994 13.8973 151.229 14.126 150.314 14.126C149.586 14.126 148.933 13.9627 148.354 13.636C147.785 13.3093 147.337 12.8473 147.01 12.25C146.683 11.6433 146.52 10.9433 146.52 10.15C146.52 9.35667 146.679 8.66133 146.996 8.064C147.313 7.46667 147.757 7.00933 148.326 6.692C148.905 6.36533 149.567 6.202 150.314 6.202C151.042 6.202 151.686 6.36067 152.246 6.678C152.806 6.99533 153.235 7.434 153.534 7.994C153.842 8.54467 153.996 9.17 153.996 9.87ZM152.68 9.604C152.68 9.11867 152.573 8.70333 152.358 8.358C152.143 8.00333 151.849 7.73733 151.476 7.56C151.112 7.37333 150.706 7.28 150.258 7.28C149.614 7.28 149.063 7.48533 148.606 7.896C148.158 8.30667 147.901 8.876 147.836 9.604H152.68ZM159.416 6.188C160.349 6.188 161.105 6.47267 161.684 7.042C162.262 7.602 162.552 8.414 162.552 9.478V14H161.292V9.66C161.292 8.89467 161.1 8.31133 160.718 7.91C160.335 7.49933 159.812 7.294 159.15 7.294C158.478 7.294 157.941 7.504 157.54 7.924C157.148 8.344 156.952 8.95533 156.952 9.758V14H155.678V6.328H156.952V7.42C157.204 7.028 157.544 6.72467 157.974 6.51C158.412 6.29533 158.893 6.188 159.416 6.188ZM169.393 0.812L165.557 16.38H164.297L168.119 0.812H169.393Z" fill="black"></path>
  <path d="M-1 15.4H170.219V16.1H-1V15.4Z" fill="black"></path>
  <a href="https://adrenalina.it/en/">
    <rect fill="black" fill-opacity="0" width="171.219" height="21"></rect>
  </a>
</svg>
