<?xml version="1.0" encoding="UTF-8"?>
<svg xmlns="http://www.w3.org/2000/svg" id="Layer_1" viewBox="0 0 411.18 103.59">
  <defs>
    <style>.cls-1{fill:#fff;}</style>
  </defs>
  <path class="cls-1" d="m395.57,57.15c-1.11,1.85-2.79,3.34-5.04,4.44-2.24,1.1-4.65,1.66-7.24,1.66-2.97,0-5.32-.76-7.04-2.26-1.72-1.52-2.58-3.54-2.58-6.05,0-4.16,1.91-7.42,5.75-9.83,3.84-2.39,9.15-3.62,15.94-3.68v-8.74c0-1.79-.57-3.11-1.69-3.96-1.12-.85-2.85-1.27-5.2-1.27-1.84,0-3.48.34-4.89,1.04-1.42.7-2.12,1.41-2.12,2.14,0,.12.41.61,1.23,1.44.8.82,1.21,1.77,1.21,2.84,0,1.15-.32,2.1-.98,2.82-.66.73-1.5,1.09-2.53,1.09-1.14,0-2.05-.39-2.7-1.18-.66-.79-.98-1.85-.98-3.18,0-2.53,1.29-4.61,3.86-6.29,2.56-1.66,5.87-2.5,9.92-2.5,4.28,0,7.29.71,9.03,2.16,1.74,1.44,2.62,4.02,2.62,7.72v20.32c0,1.43.13,2.36.38,2.81.26.43.72.65,1.37.65.72,0,1.36-.31,1.93-.93.57-.62.96-1.4,1.15-2.34h1.42c-.18,2.13-.92,3.83-2.25,5.14-1.33,1.3-2.98,1.96-4.94,1.96-1.69,0-3.01-.5-3.94-1.5-.95-.99-1.5-2.5-1.67-4.5m-.22-13.68c-4.88,0-8.6.78-11.19,2.34-2.59,1.55-3.87,3.82-3.87,6.8,0,2.13.6,3.82,1.8,5.09,1.2,1.27,2.79,1.91,4.79,1.91,2.48,0,4.51-.68,6.09-2.05,1.59-1.37,2.38-3.14,2.38-5.32v-8.77Z"></path>
  <path class="cls-1" d="m365.52,0v59.98h4.73v2.14c-2.62,0-4.82.08-6.59.23-1.78.14-3.36.37-4.79.67v-6.58c-1.17,2.17-2.71,3.87-4.63,5.04-1.92,1.18-4.05,1.77-6.37,1.77-4.47,0-8.24-1.82-11.31-5.43-3.07-3.62-4.6-8.09-4.6-13.4s1.53-9.7,4.6-13.27c3.07-3.59,6.87-5.37,11.4-5.37,2.53,0,4.7.59,6.52,1.75,1.82,1.16,3.23,2.89,4.22,5.15V2.78h-5.68V.92h1.41c1.82,0,3.64-.08,5.49-.23,1.83-.16,3.7-.37,5.6-.68m-6.74,51.21v-12.46c0-2.9-1.02-5.45-3.04-7.64-2.04-2.19-4.42-3.27-7.15-3.27-3.13,0-5.36,1.24-6.68,3.73-1.32,2.48-1.98,6.72-1.98,12.68,0,6.26.68,10.63,2.05,13.16,1.35,2.53,3.65,3.8,6.85,3.8,2.53,0,4.82-1.04,6.87-3.12,2.05-2.06,3.07-4.36,3.07-6.88Z"></path>
  <path class="cls-1" d="m228.61,62.12v-2.14h5.24v-31.47h-5.34v-1.95c2.23,0,4.44-.08,6.65-.23,2.19-.16,4.37-.36,6.5-.64l.05,8.96c1.53-3.03,3.4-5.28,5.58-6.75,2.19-1.47,4.79-2.2,7.75-2.2,3.32,0,5.89.79,7.78,2.36,1.88,1.58,2.9,3.8,3.07,6.64,1.31-2.93,3.08-5.17,5.34-6.71,2.26-1.54,4.94-2.3,8.05-2.3,3.58,0,6.29.95,8.1,2.84,1.83,1.89,2.73,4.72,2.73,8.44v23.01h5v2.14h-18.5v-2.14h5.74v-26.28c0-1.82-.42-3.18-1.27-4.1-.85-.92-2.12-1.37-3.83-1.37-3.03,0-5.72,1.43-8.07,4.27-2.33,2.86-3.5,6.18-3.5,9.97v17.51h5.06v2.14h-18.19v-2.14h5.49v-26.28c0-1.94-.42-3.34-1.25-4.19-.84-.85-2.21-1.27-4.13-1.27-2.98,0-5.61,1.63-7.87,4.9-2.28,3.27-3.42,7.22-3.42,11.83v15.01h5.16v2.14h-17.9Z"></path>
  <path class="cls-1" d="m200.62,44.43c0,6.74.69,11.24,2.07,13.54,1.38,2.28,3.76,3.43,7.16,3.43s5.75-1.21,7.14-3.63c1.41-2.44,2.11-6.85,2.11-13.24,0-6.8-.67-11.3-2.03-13.54-1.36-2.22-3.74-3.34-7.14-3.34s-5.83,1.18-7.22,3.56c-1.39,2.36-2.08,6.77-2.08,13.22m-8.67,0c0-5.28,1.74-9.72,5.21-13.32,3.46-3.62,7.72-5.42,12.76-5.42s9.4,1.77,12.78,5.32c3.38,3.54,5.07,7.98,5.07,13.32s-1.75,9.7-5.25,13.35c-3.51,3.65-7.73,5.48-12.69,5.48s-9.41-1.79-12.81-5.34c-3.4-3.57-5.09-8.03-5.09-13.4Z"></path>
  <path class="cls-1" d="m174.04,55.71v-27.2h-4.7v-1.96h4.7c2.44-2.3,3.91-6.06,4.41-11.29.06-.68,1.3-.14,1.84-.26v11.55h7.47v1.96h-7.47v26.33c0,2.09.22,3.48.67,4.14.46.67,1.3.99,2.51.99.77,0,1.52-.28,2.27-.84.75-.56,1.51-1.41,2.27-2.53l1.3,1.13c-1.28,1.97-2.59,3.39-3.94,4.24-1.34.85-2.93,1.27-4.75,1.27-2.26,0-3.92-.62-4.98-1.85-1.06-1.23-1.59-3.12-1.59-5.7"></path>
  <path class="cls-1" d="m142.45,62.12v-12h1.99c.82,3.43,2.24,6.07,4.25,7.95,2.02,1.88,4.43,2.83,7.23,2.83,2.4,0,4.32-.68,5.8-2.05,1.46-1.36,2.2-3.15,2.2-5.35,0-2.53-2.71-4.36-8.13-5.51-1.06-.23-1.9-.44-2.5-.59-4.15-.96-7-2.23-8.5-3.8-1.52-1.55-2.27-3.82-2.27-6.8,0-3.28.99-5.95,2.98-8.01,1.98-2.07,4.56-3.09,7.72-3.09,1.8,0,3.37.26,4.76.79,1.38.53,2.47,1.31,3.29,2.3l1.67-2.41h1.14v10.32h-1.76c-.57-2.96-1.63-5.23-3.19-6.8-1.55-1.57-3.53-2.34-5.92-2.34-2.2,0-3.99.6-5.37,1.82-1.38,1.21-2.07,2.79-2.07,4.73,0,2.48,3.18,4.36,9.52,5.64,1.06.22,1.88.39,2.45.51,3.21.64,5.6,1.83,7.21,3.62,1.59,1.77,2.38,4.13,2.38,7.06,0,3.79-1.1,6.8-3.29,9-2.19,2.22-5.16,3.32-8.92,3.32-1.72,0-3.35-.36-4.88-1.09-1.55-.73-2.95-1.8-4.22-3.23l-1.92,3.18h-1.67Z"></path>
  <path class="cls-1" d="m64.86,62.12v-2.14h4.77v-31.47h-4.86v-1.95h1.61c1.82,0,3.57-.08,5.26-.23,1.69-.16,3.29-.36,4.77-.64l.04,10.37c1.29-3.43,3.05-6.01,5.27-7.75,2.24-1.75,4.9-2.62,8-2.62s5.56.87,7.31,2.59c1.75,1.72,2.63,4.16,2.63,7.28v24.42h4.68v2.14h-16.58v-2.14h5.08v-24.7c0-2.33-.45-4.05-1.36-5.19-.9-1.12-2.3-1.68-4.2-1.68-2.88,0-5.38,1.51-7.49,4.5-2.11,3-3.15,6.66-3.15,10.96v16.1h4.72v2.14h-16.49Z"></path>
  <path class="cls-1" d="m34.13,62.12v-2.14h5.9v-31.47h-5.72v-1.95c2.29,0,4.51-.08,6.65-.23,2.11-.16,4.11-.34,5.97-.59v9.11c1.46-2.98,3.05-5.2,4.8-6.67,1.76-1.47,3.63-2.2,5.63-2.2,1.67,0,2.93.4,3.8,1.23.88.82,1.31,2,1.31,3.55,0,1.15-.34,2.08-1.03,2.78-.69.7-1.59,1.04-2.73,1.04-1.01,0-1.89-.37-2.64-1.13-.74-.76-1.12-1.66-1.12-2.69,0-.25.03-.53.09-.87.06-.32.09-.54.09-.64,0-.25-.03-.4-.09-.5-.06-.09-.15-.14-.27-.14-1.59,0-3.28,1.46-5.03,4.36-1.76,2.92-2.64,5.9-2.64,8.96v18.05h6.51v2.14h-19.48Z"></path>
  <path class="cls-1" d="m8.49,38.93h16.55v-.92c0-3.76-.61-6.47-1.8-8.15-1.2-1.66-3.13-2.5-5.8-2.5s-4.9.96-6.38,2.89c-1.49,1.93-2.35,4.83-2.57,8.68m-.27,2.59v2.73c0,6.15.75,10.45,2.27,12.88,1.51,2.44,4.12,3.66,7.84,3.66,3.15,0,5.82-.89,8.01-2.65,2.21-1.79,3.72-4.27,4.52-7.48h1.95c-.87,4.14-2.6,7.26-5.21,9.36-2.61,2.1-6.05,3.14-10.35,3.14-4.87,0-8.97-1.72-12.28-5.17-3.32-3.43-4.97-7.65-4.97-12.65,0-5.49,1.7-10.14,5.08-13.94,3.4-3.8,7.53-5.71,12.43-5.71,4.59,0,8.21,1.35,10.86,4.07,2.64,2.72,4.19,6.64,4.62,11.77H8.22Z"></path>
  <path class="cls-1" d="m114.65,38.93h16.55v-.92c0-3.76-.61-6.47-1.8-8.15-1.2-1.66-3.13-2.5-5.8-2.5s-4.9.96-6.38,2.89c-1.49,1.93-2.35,4.83-2.57,8.68m-.27,2.59v2.73c0,6.15.76,10.45,2.27,12.88,1.51,2.44,4.12,3.66,7.84,3.66,3.14,0,5.81-.89,8.01-2.65,2.21-1.79,3.72-4.27,4.52-7.48h1.95c-.87,4.14-2.6,7.26-5.21,9.36-2.61,2.1-6.05,3.14-10.35,3.14-4.87,0-8.97-1.72-12.28-5.17-3.32-3.43-4.97-7.65-4.97-12.65,0-5.49,1.7-10.14,5.08-13.94,3.4-3.8,7.53-5.71,12.43-5.71,4.59,0,8.21,1.35,10.86,4.07,2.64,2.72,4.19,6.64,4.62,11.77h-24.77Z"></path>
  <path class="cls-1" d="m303.44,38.93h16.55v-.92c0-3.76-.61-6.47-1.8-8.15-1.2-1.66-3.13-2.5-5.8-2.5s-4.9.96-6.38,2.89c-1.49,1.93-2.35,4.83-2.57,8.68m-.27,2.59v2.73c0,6.15.75,10.45,2.27,12.88,1.51,2.44,4.12,3.66,7.84,3.66,3.15,0,5.82-.89,8.02-2.65,2.21-1.79,3.72-4.27,4.52-7.48h1.95c-.87,4.14-2.6,7.26-5.21,9.36-2.61,2.1-6.05,3.14-10.35,3.14-4.87,0-8.98-1.72-12.28-5.17-3.32-3.43-4.97-7.65-4.97-12.65,0-5.49,1.7-10.14,5.08-13.94,3.4-3.8,7.53-5.71,12.43-5.71,4.59,0,8.21,1.35,10.86,4.07,2.64,2.72,4.19,6.64,4.62,11.77h-24.77Z"></path>
  <rect class="cls-1" x="1.12" y="67.26" width="410.07" height="36.33"></rect>
</svg>
