<?xml version="1.0" encoding="UTF-8"?>
<svg xmlns="http://www.w3.org/2000/svg" width="49" height="59" viewBox="0 0 49 59" fill="none">
  <path d="M27.0068 46.4767C26.5092 46.4767 26.1131 46.0764 26.1131 45.5733V39.5482H23.1653V45.5733C23.1653 46.0764 22.7692 46.4767 22.2716 46.4767C21.774 46.4767 21.378 46.0764 21.378 45.5733V39.5482L20.7701 39.5486C19.4529 39.5486 18.375 38.459 18.375 37.1274V36.6527C18.375 35.321 19.4529 34.2314 20.7701 34.2314C22.0874 34.2314 23.1653 35.321 23.1653 36.6527V37.7423H26.1131V36.6527C26.1131 35.321 27.191 34.2314 28.5083 34.2314C29.8255 34.2314 30.9034 35.321 30.9034 36.6527V37.1274C30.9034 38.459 29.8255 39.5486 28.5083 39.5486H27.9004V45.5738C27.9004 46.0764 27.504 46.4767 27.0068 46.4767ZM27.9004 37.7419H28.5083C28.8397 37.7419 29.1161 37.4625 29.1161 37.1274V36.6527C29.1161 36.3176 28.8397 36.0382 28.5083 36.0382C28.1768 36.0382 27.9004 36.3176 27.9004 36.6527V37.7419ZM20.7701 36.0469C20.4386 36.0469 20.1623 36.3263 20.1623 36.6613V37.1361C20.1623 37.4712 20.4386 37.7506 20.7701 37.7506H21.3779V36.661C21.3779 36.3171 21.1016 36.0469 20.7701 36.0469Z" fill="white"></path>
  <path d="M31.161 50.6509H17.8394C16.1437 50.6509 14.7559 49.3444 14.7559 47.7288C14.7559 46.1218 16.1346 44.8066 17.8394 44.8066H31.161C32.8566 44.8066 34.2445 46.1132 34.2445 47.7288C34.2445 49.3444 32.8658 50.6509 31.161 50.6509ZM17.8394 46.5192C17.1406 46.5192 16.563 47.0576 16.563 47.7288C16.563 48.3996 17.1311 48.9384 17.8394 48.9384H31.161C31.8597 48.9384 32.4374 48.4 32.4374 47.7288C32.4374 47.0579 31.8692 46.5192 31.161 46.5192H17.8394Z" fill="white"></path>
  <path d="M31.161 55.1041H17.8394C16.1437 55.1041 14.7559 53.7353 14.7559 52.0428C14.7559 50.3593 16.1346 48.9814 17.8394 48.9814C18.3426 48.9814 18.7431 49.3791 18.7431 49.8787C18.7431 50.3783 18.3426 50.776 17.8394 50.776C17.1406 50.776 16.563 51.34 16.563 52.0431C16.563 52.7459 17.1311 53.3103 17.8394 53.3103H31.161C31.8597 53.3103 32.4374 52.7463 32.4374 52.0431C32.4374 51.3404 31.8692 50.776 31.161 50.776C30.6577 50.776 30.2572 50.3783 30.2572 49.8787C30.2572 49.3791 30.6577 48.9814 31.161 48.9814C32.8566 48.9814 34.2445 50.3502 34.2445 52.0428C34.2445 53.7349 32.8658 55.1041 31.161 55.1041Z" fill="white"></path>
  <path d="M17.1496 46.476C16.6525 46.476 16.257 46.0819 16.257 45.5868V44.6975C16.257 41.6451 15.0517 38.6935 12.9354 36.6126C9.62297 33.3401 7.85622 28.812 8.09577 24.1828C8.49134 15.8687 15.8984 8.74638 24.2627 8.62695H24.4928C28.8359 8.62695 32.9304 10.2954 36.0222 13.3387C39.1877 16.4464 40.9265 20.5803 40.9265 24.9891C40.9265 29.4623 39.1412 33.6331 35.9117 36.7495C33.8965 38.7019 32.7372 41.4886 32.7372 44.3946V45.5862C32.7372 46.0814 32.3417 46.4754 31.8446 46.4754C31.3476 46.4754 30.952 46.0814 30.952 45.5862V44.3946C30.952 41.012 32.3046 37.7578 34.6695 35.4662C37.5495 32.6888 39.1412 28.967 39.1412 24.9891C39.1412 21.066 37.586 17.3719 34.7706 14.6035C32.0102 11.8994 28.3572 10.4054 24.4927 10.4054H24.2717C16.8277 10.5154 10.231 16.8588 9.88085 24.2745C9.66931 28.3995 11.2425 32.4418 14.1964 35.3571C16.6438 37.7679 18.0425 41.1778 18.0425 44.707V45.5962C18.0429 46.0729 17.6383 46.476 17.1503 46.476L17.1496 46.476Z" fill="white"></path>
  <path d="M24.523 58.9996C21.8791 58.9996 19.7676 56.796 19.7676 54.0847C19.7676 53.5672 20.1623 53.1553 20.6582 53.1553C21.1541 53.1553 21.5488 53.5672 21.5488 54.0847C21.5488 55.7707 22.8616 57.1411 24.4776 57.1411C26.1391 57.1411 27.4523 55.7711 27.4523 54.0847C27.4523 53.5672 27.847 53.1553 28.3429 53.1553C28.8388 53.1553 29.2335 53.5672 29.2335 54.0847C29.2327 56.796 27.1211 58.9996 24.523 58.9996Z" fill="white"></path>
  <path d="M24.4993 6.40094C24.0342 6.40094 23.6641 5.99922 23.6641 5.49445V0.906495C23.6641 0.401725 24.0342 0 24.4993 0C24.9644 0 25.3345 0.401725 25.3345 0.906495V5.49445C25.3345 5.98962 24.9644 6.40094 24.4993 6.40094Z" fill="white"></path>
  <path d="M13.0175 10.0192C12.7277 10.0192 12.4471 9.88815 12.2692 9.63618L9.63171 5.87942C9.34195 5.46807 9.44466 4.90737 9.85635 4.61791C10.268 4.32838 10.8292 4.43101 11.1189 4.84236L13.7564 8.59912C14.0462 9.01047 13.9435 9.57116 13.5318 9.86063C13.3727 9.97244 13.1949 10.0192 13.0175 10.0192Z" fill="white"></path>
  <path d="M5.77659 19.4811C5.67379 19.4811 5.57057 19.4626 5.46778 19.4259L1.15285 17.8748C0.684833 17.7087 0.441637 17.1913 0.610037 16.7296C0.778436 16.268 1.30287 16.0281 1.77093 16.1942L6.08543 17.7362C6.55345 17.9023 6.79664 18.4197 6.62824 18.8814C6.49745 19.2503 6.14138 19.4811 5.77659 19.4811Z" fill="white"></path>
  <path d="M0.891895 32.5613C0.498174 32.5613 0.140834 32.2849 0.0308515 31.8754C-0.0975315 31.3801 0.186626 30.8753 0.662938 30.7418L5.00416 29.5321C5.48047 29.3986 5.96578 29.6941 6.09415 30.1895C6.22253 30.6849 5.93838 31.1896 5.46206 31.3231L1.12084 32.5328C1.03825 32.552 0.965077 32.5613 0.891895 32.5613Z" fill="white"></path>
  <path d="M35.9932 10.0192C35.8153 10.0192 35.6283 9.96336 35.4696 9.85133C35.0579 9.56231 34.9552 9.00257 35.245 8.59199L37.8825 4.84169C38.1723 4.43105 38.7334 4.3286 39.1451 4.61762C39.5568 4.90665 39.6595 5.46638 39.3697 5.87696L36.7322 9.62727C36.5639 9.88839 36.2834 10.0192 35.9932 10.0192Z" fill="white"></path>
  <path d="M43.2233 19.4811C42.8489 19.4811 42.5025 19.2594 42.3718 18.8901C42.2034 18.4285 42.4465 17.9116 42.9145 17.7451L47.2292 16.1942C47.6971 16.0281 48.2211 16.268 48.39 16.7296C48.5584 17.1912 48.3152 17.708 47.8472 17.8746L43.5326 19.4255C43.4294 19.463 43.3265 19.4811 43.2233 19.4811Z" fill="white"></path>
  <path d="M48.1104 32.5613C48.0371 32.5613 47.9544 32.552 47.8812 32.5328L43.5354 31.323C43.0586 31.1895 42.7836 30.6848 42.9027 30.1894C43.0312 29.694 43.517 29.3988 43.9938 29.5319L48.3396 30.7417C48.8164 30.8752 49.0914 31.38 48.9723 31.8754C48.8622 32.2947 48.5045 32.5613 48.1104 32.5613Z" fill="white"></path>
</svg>
