<?xml version="1.0" encoding="UTF-8"?>
<svg xmlns="http://www.w3.org/2000/svg" width="50" height="50" viewBox="0 0 50 50" fill="none">
  <path d="M49.993 3.08167C50.0538 2.24859 49.7502 1.43209 49.1593 0.841242C48.5557 0.237676 47.722 -0.0645253 46.8718 0.0115556L46.8714 0.00475488C44.6565 0.189223 41.1405 0.684401 36.9685 1.99992C33.0001 3.25081 29.3506 4.95273 26.121 7.05791C25.5556 7.42642 25.0056 7.80683 24.4699 8.19792C24.3857 8.15882 24.2918 8.13799 24.1927 8.14139C23.7702 8.15584 23.351 8.15712 22.9076 8.15754C20.8849 8.16094 18.5924 8.16434 15.4253 9.6031C11.877 11.2153 7.72956 14.4205 2.7469 19.4029C2.50884 19.6409 2.50884 20.0264 2.7469 20.2644C2.86594 20.3835 3.02194 20.443 3.17796 20.443C3.22387 20.443 3.27021 20.437 3.31527 20.4268V20.4272C5.73025 19.8679 7.93531 19.8037 9.69309 20.2423C11.3204 20.6483 12.5213 21.4533 13.2674 22.6366C12.4487 24.7963 11.856 27.0762 11.4956 29.4637H11.496C11.4684 29.6481 11.5245 29.8432 11.6669 29.9856L12.353 30.6721L9.22643 33.7982C8.47059 34.5539 8.47059 35.784 9.22643 36.5397L9.63879 36.952L6.30639 40.2835C6.06833 40.5215 6.06833 40.907 6.30639 41.1455C6.42542 41.2645 6.58142 41.324 6.73744 41.324C6.89345 41.324 7.04947 41.2645 7.16849 41.1455L10.5009 37.8136L12.1886 39.501L8.85619 42.8329C8.61813 43.071 8.61813 43.4565 8.85619 43.6945C8.97522 43.8135 9.13123 43.873 9.28724 43.873C9.44326 43.873 9.59927 43.8135 9.71829 43.6945L13.0507 40.3626L13.4631 40.7749C13.8295 41.1413 14.3162 41.3427 14.8341 41.3427C15.3523 41.3427 15.839 41.1409 16.2055 40.7749C16.2306 40.7498 16.2523 40.723 16.2718 40.695L19.3254 37.6418L20.0115 38.3279C20.1306 38.4469 20.2866 38.5064 20.4426 38.5064C20.4732 38.5064 20.5034 38.5034 20.5336 38.4987V38.4991C22.9435 38.1353 25.2441 37.5347 27.422 36.7042C28.4652 37.457 29.1824 38.5973 29.5582 40.1032C29.9964 41.8608 29.9327 44.0655 29.3732 46.4798H29.3737C29.3278 46.6779 29.3817 46.8938 29.5356 47.0481C29.6547 47.1671 29.8107 47.2266 29.9667 47.2266C30.1227 47.2266 30.2787 47.1671 30.3977 47.0481C35.3808 42.0662 38.5866 37.9194 40.1989 34.3716C41.638 31.205 41.6413 28.9127 41.6447 26.8908C41.6451 26.4887 41.646 26.107 41.657 25.724C42.106 25.1179 42.5404 24.4931 42.9596 23.8492C45.0648 20.615 46.7652 16.9613 48.0141 12.9893C49.3268 8.81364 49.8187 5.29893 50.0002 3.08527L49.9934 3.08484V3.08187L49.993 3.08167ZM9.98697 19.0595C8.54718 18.7008 6.85568 18.6421 5.01791 18.8806C14.88 9.3893 19.135 9.38168 22.908 9.3757H22.9416C20.5385 11.3347 18.4746 13.5407 16.7831 15.9643C15.6119 17.642 14.6176 19.4285 13.8026 21.3131C12.8878 20.2292 11.5891 19.459 9.98649 19.0595L9.98697 19.0595ZM15.3353 39.9067L15.3421 39.9135C15.2061 40.0495 15.0254 40.1243 14.8328 40.1243C14.6407 40.1243 14.4596 40.0495 14.3235 39.9135L10.0873 35.6779C9.80675 35.3974 9.80675 34.9405 10.0873 34.6595L13.2139 31.5337L18.4619 36.7809L15.3353 39.9067ZM30.9183 44.7773C31.1567 42.9398 31.0985 41.2486 30.7393 39.809C30.3665 38.315 29.6714 37.0853 28.7005 36.1843C30.5845 35.3682 32.3701 34.3735 34.0475 33.2017C36.3839 31.5691 38.5179 29.5914 40.4237 27.2962C40.4059 30.9742 40.0717 35.2696 30.9183 44.7778L30.9183 44.7773ZM27.5471 35.3413C27.5373 35.3358 27.528 35.3298 27.5178 35.3247L27.497 35.3617C25.405 36.2071 23.1281 36.8507 20.6523 37.2472L12.7469 29.343C15.0038 15.2519 25.2947 7.59271 35.1229 3.93012L46.072 14.8776C43.0585 22.9675 37.3378 31.3647 27.5475 35.3418L27.5471 35.3413ZM46.5244 13.6062L36.3937 3.47698C40.1826 2.18909 43.8466 1.48606 46.8913 1.22589C46.9206 1.22759 46.9499 1.22759 46.9801 1.22504C47.4698 1.18126 47.9498 1.3551 48.2975 1.70279C48.6376 2.04282 48.8123 2.51292 48.7774 2.99242C48.7753 3.01962 48.7757 3.0464 48.7774 3.07275C48.519 6.12752 47.8159 9.80458 46.5244 13.6062Z" fill="white"></path>
  <path d="M36.5532 12.982C35.2749 11.7039 33.5754 11 31.7678 11C29.9598 11 28.2606 11.7039 26.9823 12.982C25.704 14.2601 25 15.9594 25 17.7668C25 19.5744 25.704 21.2734 26.9823 22.5515C28.2606 23.8296 29.9601 24.5335 31.7678 24.5335C33.5757 24.5335 35.2749 23.8296 36.5532 22.5515C37.8315 21.2734 38.5355 19.5741 38.5355 17.7668C38.5355 15.9594 37.8315 14.2601 36.5532 12.982ZM35.6915 21.6903C34.6436 22.738 33.2501 23.3153 31.7678 23.3153C30.2854 23.3153 28.8923 22.7381 27.844 21.6903C25.6806 19.5272 25.6806 16.0074 27.844 13.844C28.8919 12.7963 30.2854 12.219 31.7678 12.219C33.2501 12.219 34.6432 12.7962 35.6915 13.844C37.8549 16.0075 37.8549 19.5272 35.6915 21.6903Z" fill="white"></path>
  <path d="M15.2235 42.7067C14.8889 42.6676 14.5867 42.9077 14.5484 43.2418C14.3741 44.7494 13.5949 45.9851 12.2333 46.9142C9.32862 48.8953 4.30592 49.0862 1.52701 48.4737C0.914432 45.6952 1.1053 40.6732 3.08672 37.7689C4.01601 36.4071 5.25184 35.628 6.75964 35.4538C7.09378 35.4151 7.33353 35.1129 7.29486 34.7788C7.25617 34.4447 6.95392 34.205 6.61937 34.2437C4.7446 34.4604 3.21677 35.4159 2.0792 37.0825C-0.292908 40.559 -0.308253 46.3145 0.428507 49.1214C0.428932 49.1227 0.428932 49.124 0.429358 49.1253C0.430208 49.1282 0.431058 49.1316 0.431908 49.1346C0.434459 49.1435 0.437435 49.1525 0.439985 49.161C0.442111 49.1678 0.443811 49.1754 0.446787 49.1822C0.459115 49.2183 0.475269 49.2519 0.493549 49.2838C0.495249 49.2863 0.496525 49.2885 0.498225 49.2914C0.506302 49.305 0.514803 49.3178 0.523306 49.3306C0.525857 49.3344 0.528832 49.3382 0.531808 49.342C0.539885 49.3531 0.548388 49.3637 0.55689 49.3739C0.560716 49.3786 0.564542 49.3828 0.568368 49.3875C0.576445 49.3969 0.584947 49.4054 0.59345 49.4139C0.598126 49.4185 0.602802 49.4232 0.607903 49.4279C0.61683 49.436 0.625757 49.4436 0.634684 49.4508C0.639785 49.4551 0.644887 49.4598 0.650413 49.4636C0.664016 49.4738 0.678045 49.4836 0.692923 49.4933C0.699299 49.4972 0.706101 49.501 0.712903 49.5048C0.722255 49.5103 0.731608 49.5159 0.741385 49.5205C0.748187 49.5244 0.754988 49.5273 0.762215 49.5307C0.772843 49.5354 0.783896 49.5405 0.794948 49.5448C0.8009 49.5473 0.807276 49.5495 0.813228 49.5516C0.828107 49.5571 0.842986 49.5618 0.858289 49.566C0.860415 49.5665 0.86254 49.5677 0.865091 49.5682C0.866366 49.5686 0.867642 49.5686 0.868917 49.569C0.870618 49.5694 0.872318 49.5699 0.874018 49.5703C1.87175 49.8325 3.24232 50 4.75143 50C7.48702 50 10.677 49.4504 12.9186 47.9212C14.5858 46.7837 15.5411 45.2566 15.7575 43.3817C15.7978 43.0476 15.558 42.7454 15.2235 42.7067Z" fill="white"></path>
</svg>
