<?xml version="1.0" encoding="UTF-8"?>
<svg xmlns="http://www.w3.org/2000/svg" width="39" height="38" viewBox="0 0 39 38" fill="none">
  <path d="M16.6133 21.0501L15.8738 26.7193C15.8245 27.0644 15.9724 27.3602 16.1696 27.5574C16.3668 27.7053 16.564 27.8039 16.8105 27.8039C16.9091 27.8039 16.9584 27.8039 17.057 27.7546L22.2332 26.5222C22.4304 26.4729 22.5783 26.3743 22.6769 26.2757L38.2551 10.6975C38.748 10.2046 39.0438 9.46508 38.9945 8.72562C38.9452 8.03544 38.6494 7.34527 38.1072 6.803L36.2831 4.97897C35.7409 4.4367 35.1 4.14091 34.3605 4.09161C33.6211 4.04231 32.9309 4.2888 32.3886 4.83108L16.9091 20.5078C16.7612 20.6557 16.6626 20.8529 16.6133 21.0501ZM33.9168 6.31002C34.0647 6.16212 34.2619 6.16212 34.3605 6.16212C34.607 6.16212 34.8042 6.26072 35.0014 6.45791L36.8254 8.28193C37.1705 8.62702 37.2198 9.12 36.9733 9.36649L36.1353 10.2046L33.0788 7.14808L33.9168 6.31002ZM31.6491 8.52842L34.7056 11.5849L22.529 23.7615L19.5219 20.705L31.6491 8.52842ZM18.4373 22.4304L20.9022 24.8953L18.0429 25.5855L18.4373 22.4304Z" fill="#5458F6"></path>
  <path d="M0.985958 37.9594H27.1138C27.6561 37.9594 28.0998 37.5157 28.0998 36.9734V28.5928C28.0998 28.0505 27.6561 27.6068 27.1138 27.6068C26.5716 27.6068 26.1279 28.0505 26.1279 28.5928V35.9875H1.97192V1.97192H26.1279V4.43681C26.1279 4.97909 26.5716 5.42277 27.1138 5.42277C27.6561 5.42277 28.0998 4.97909 28.0998 4.43681V0.985958C28.0998 0.443681 27.6561 0 27.1138 0H0.985958C0.443681 0 0 0.443681 0 0.985958V36.9734C0 37.5157 0.443681 37.9594 0.985958 37.9594Z" fill="#5458F6"></path>
</svg>
