<?xml version="1.0" encoding="UTF-8"?>
<svg xmlns="http://www.w3.org/2000/svg" width="46" height="34" viewBox="0 0 46 34" fill="none">
  <path d="M44.8025 13.0242C44.8025 13.0242 45.1388 5.83644 37.3708 2.24244C31.3304 -0.552245 21.2665 1.76275 14.8606 5.27675C7.86348 9.11504 1.11951 15.7372 1.20948 20.7179M1.20948 20.7179C1.34741 28.354 11.1636 29.2574 18.3254 28.1418C28.5163 26.5544 34.1292 21.4343 35.4259 18.4596C36.9836 14.8864 33.1108 13.2115 33.1108 13.2115M1.20948 20.7179C1.20948 20.7179 0.922466 24.0136 2.93217 26.8362C3.35133 27.4249 5.6139 30.9224 10.7277 32.123C15.8416 33.3236 24.5095 33.2252 30.4803 30.391C36.7414 27.419 39.4734 24.2723 41.0402 22.4011C42.4211 20.7521 45.3285 16.4383 44.7209 11.8906C44.208 8.05099 39.5742 6.36915 34.6242 6.13447C29.6742 5.8998 24.1127 7.23768 20.5021 9.10095C18.3051 10.2347 13.6205 12.7406 11.8321 16.8653C9.93214 21.2473 14.2836 22.7348 14.2836 22.7348M33.8855 13.6543C32.3775 12.6848 28.5877 10.9067 21.7902 13.6543C16.4903 15.7966 12.0271 20.2083 13.3486 22.0948C14.5163 23.7619 20.2717 23.0788 25.5592 21.1424C31.9244 18.8112 34.6537 14.1482 33.8855 13.6543Z" stroke="#5458F6" stroke-width="2"></path>
</svg>
