<?xml version="1.0" encoding="UTF-8"?>
<svg xmlns="http://www.w3.org/2000/svg" width="253" height="41" viewBox="0 0 253 41" fill="none">
  <path d="M0 10.9675L11.0037 40.4557L41.2321 29.7626L30.2706 0.274414L0 10.9675Z" fill="#EF292D"></path>
  <path d="M22.4277 17.1369C22.765 18.124 22.0061 18.2885 21.1629 18.124C20.4041 17.9595 19.3501 17.5482 19.0128 16.5611C18.5912 15.5741 19.4344 15.4096 20.2776 15.5741C20.9943 15.6975 22.0061 16.191 22.4277 17.1369ZM21.9218 20.2626C23.7347 20.5916 24.6622 19.44 23.9033 17.4248C23.1444 15.4096 21.2473 13.7645 19.3922 13.4355C17.5794 13.1065 16.6519 14.258 17.4107 16.2732C18.1696 18.2885 20.109 19.9336 21.9218 20.2626ZM28.3301 7.22527L28.836 8.6236L30.3537 6.93738L29.8478 5.53906L28.3301 7.22527ZM31.1548 14.9572L32.6725 13.271L30.6067 7.59542L29.0889 9.28163L31.1548 14.9572ZM7.67188 25.1156L8.17779 26.5139L10.4966 26.9252L9.99065 25.5269L7.67188 25.1156ZM10.5809 32.8475L12.8153 33.2588L10.7495 27.6655L8.51507 27.2542L10.5809 32.8475ZM23.9876 23.3471L25.5054 21.6609L17.1578 20.1803L15.64 21.8665L23.9876 23.3471ZM23.9455 15.2862L26.0113 20.8795L27.529 19.1933L26.3486 16.1087C26.0956 15.4507 26.1799 14.6282 26.6858 14.0113C27.529 13.0242 27.782 13.929 28.035 14.6693L29.0468 17.3426L30.5645 15.6563L29.2154 12.0783C28.8781 11.2557 28.2879 10.063 26.8123 11.8315C26.3064 12.4896 25.8005 13.5177 25.7162 14.4225L25.4632 13.6822L23.9455 15.2862ZM24.4935 27.2953C24.6622 27.7889 24.6622 28.2001 24.1563 28.1179C23.6504 28.0356 23.3131 27.6244 23.0601 27.1308C22.8072 26.6373 22.5542 26.0615 22.2169 25.7325C23.4396 25.9381 24.072 26.3494 24.4935 27.2953ZM24.9995 30.2565C26.2642 30.5033 26.5172 29.5985 26.0113 28.4058C25.674 27.5832 25.1681 26.7607 24.4092 26.1438C24.5779 26.1438 24.7465 26.1438 24.9151 26.1438L24.1563 23.964C23.7347 24.1285 23.2288 24.0463 22.6385 23.964L19.9825 23.4705C18.2961 23.2237 18.549 24.7043 19.1393 26.226C19.3922 26.9663 19.8138 27.7066 20.3197 28.3235C20.8257 28.9404 21.5002 29.4751 22.3012 29.6396L21.6267 27.6244C21.0365 27.4598 20.6992 26.9663 20.4462 26.3905C20.2776 25.9793 20.2776 25.4035 20.6992 25.4857C21.0365 25.568 21.2894 25.7325 21.4581 26.1438C22.3434 27.6243 23.018 29.9275 24.9995 30.2565ZM14.3331 31.8605C15.0076 33.4233 16.2303 32.5185 17.3264 31.2847C18.3383 30.0509 19.3079 28.2824 18.7598 26.7196C18.5912 26.226 18.001 25.7325 17.0313 26.555C16.2724 27.2131 15.3028 28.2413 15.0498 27.7066C14.8812 27.2953 15.3028 26.8018 15.5557 26.555C15.7244 26.3083 15.893 26.1438 16.0616 26.1438C16.2303 26.0615 16.3146 26.1438 16.3989 26.3905L17.8323 24.7454C17.2421 23.3471 16.1038 24.1697 15.092 25.4035C14.1644 26.4728 13.1948 28.159 13.6585 29.5573C14.2488 31.1202 15.3871 29.7218 16.4832 28.8993C16.8205 28.6525 17.2421 28.2413 17.4107 28.6525C17.5794 29.0638 17.2421 29.7218 16.9048 30.0509C16.6519 30.2976 16.4832 30.4621 16.2303 30.4621C16.0616 30.4621 15.893 30.3799 15.7244 30.1331L14.3331 31.8605Z" fill="white"></path>
  <path d="M52.2375 25.4439V29.8445H52.6591L53.5866 28.8574C54.1768 29.2687 55.1043 30.0912 56.7485 30.0912C59.4889 30.0912 61.3439 27.9938 61.3439 25.1971C61.3439 23.2641 59.9948 21.7836 58.2663 21.2078C56.4534 20.5497 53.5023 21.1255 53.5023 18.6168C53.5023 17.3007 54.767 15.9435 56.2426 15.9435C58.73 15.9435 59.4046 18.2055 59.6576 19.1925H60.0792V15.6145H59.6576L58.983 16.437C58.3928 16.108 57.6339 15.5322 56.2426 15.5322C54.1768 15.5322 52.2375 17.383 52.2375 19.5216C52.2375 21.5368 53.2493 22.6061 54.8092 23.2641C56.875 24.0867 60.037 23.2641 60.037 26.4309C60.037 28.1171 58.6879 29.68 56.7907 29.68C53.7131 29.68 53.0385 26.3487 52.7012 25.5261H52.1953V25.4439H52.2375ZM67.3306 24.9503V26.1842C67.3306 27.5825 66.4874 29.1042 65.2648 29.1042C64.3373 29.1042 63.9157 28.1994 63.9157 27.1712C63.9157 25.7729 64.7589 25.4027 65.8129 25.156C66.3188 25.0326 66.909 24.9503 67.3306 24.9503ZM69.1435 30.0912C70.2396 30.0912 70.872 29.4332 71.2093 29.0219L70.9142 28.6929C70.7455 28.8574 70.4926 29.1042 70.1553 29.1042C69.6494 29.1042 69.4807 28.5284 69.4807 27.8704V22.0303C69.4807 20.632 68.3846 20.1796 66.3188 20.1796C64.3373 20.1796 62.3979 21.1667 62.3979 22.3593C62.3979 23.0996 62.9882 23.5109 63.4941 23.5109C64 23.5109 64.5902 23.0174 64.5902 22.4416C64.5902 21.8658 64.0843 21.7013 64.0843 21.3723C64.0843 20.8788 65.2648 20.5497 65.9815 20.5497C66.9933 20.5497 67.3306 20.7965 67.3306 21.7013V24.2923C66.656 24.3746 65.7285 24.3746 64.7589 24.6213C63.4941 24.8681 61.7655 25.6906 61.7655 27.4591C61.7655 28.9397 62.8617 29.8856 64.1686 29.8856C66.0658 29.8856 66.8247 28.8986 67.3306 27.9526C67.4149 28.6929 67.6679 30.0912 69.1435 30.0912ZM71.3358 29.1865V29.68H76.3949V29.1865H74.8772V15.6145C74.2026 15.6967 73.5281 15.779 72.727 15.779H71.125V16.2725H72.8113V29.2687H71.3358V29.1865ZM80.9903 20.7143C83.3091 20.7143 83.3091 22.8117 83.3091 25.1149C83.3091 27.4591 83.3091 29.5155 80.9903 29.5155C78.6715 29.5155 78.6715 27.5002 78.6715 25.1149C78.6294 22.8529 78.6294 20.7143 80.9903 20.7143ZM80.9903 30.0912C83.815 30.0912 85.8387 27.5825 85.8387 25.1971C85.8387 22.8117 83.9415 20.303 80.9903 20.303C78.1656 20.303 76.142 22.8117 76.142 25.1971C76.2263 27.5414 78.1656 30.0912 80.9903 30.0912ZM85.7965 29.1865V29.68H90.8978V29.1865H89.3801V24.6213C89.3801 22.9351 90.8135 20.8788 92.2048 20.8788C93.5539 20.8788 93.5539 21.9481 93.5539 23.7165V29.1453H92.1204V29.6388H97.1374V29.1453H95.6197V23.3464C95.6197 21.7836 95.451 20.2619 92.7107 20.2619C90.5605 20.2619 89.633 22.0303 89.2114 23.0174V20.4675C88.6212 20.5497 87.9466 20.632 87.1456 20.632H85.5435V21.1255H87.2299V29.2687H85.7965V29.1865ZM103.377 23.9633H99.3719C99.3719 22.1126 99.4562 20.7143 101.606 20.7143C102.955 20.7143 103.419 21.619 103.419 22.7295V23.9633H103.377ZM99.3719 26.2664V24.4979H105.696C105.696 22.4827 104.262 20.2619 101.606 20.2619C99.0346 20.2619 96.8423 22.8529 96.8423 25.2382C96.8423 27.747 98.8238 30.0501 101.691 30.0501C104.6 30.0501 105.443 27.9526 105.864 26.8833L105.443 26.7188C105.19 27.5414 104.094 29.5566 101.691 29.5566C99.3719 29.5977 99.3719 27.5414 99.3719 26.2664ZM113.2 20.7143C115.35 20.7143 116.025 22.6472 116.025 25.1149C116.025 27.2946 115.435 29.5155 113.2 29.5155C111.598 29.5155 111.514 27.8293 111.514 24.9503C111.556 22.4416 111.64 20.7143 113.2 20.7143ZM118.302 29.68H119.735V29.1865H118.133V15.6145C117.458 15.6967 116.784 15.779 115.983 15.779H114.381V16.2725H116.067V22.1948H115.983C115.73 21.6191 114.971 20.2619 113.242 20.2619C111.008 20.2619 109.153 22.4416 109.153 25.0737C109.153 27.6648 111.05 30.0501 113.242 30.0501C115.055 30.0501 115.814 28.734 116.151 28.1994H116.236V29.8856C116.784 29.7622 117.374 29.68 118.302 29.68ZM126.228 23.9633H122.222C122.222 22.1126 122.307 20.7143 124.457 20.7143C125.806 20.7143 126.27 21.619 126.27 22.7295V23.9633H126.228ZM122.138 26.2664V24.4979H128.462C128.462 22.4827 127.029 20.2619 124.373 20.2619C121.801 20.2619 119.608 22.8529 119.608 25.2382C119.608 27.747 121.59 30.0501 124.457 30.0501C127.366 30.0501 128.209 27.9526 128.546 26.8833L128.125 26.7188C127.872 27.5414 126.776 29.5566 124.373 29.5566C122.222 29.5977 122.138 27.5414 122.138 26.2664ZM128.631 29.1865V29.68H133.732V29.1865H132.13V15.6145C131.455 15.6967 130.781 15.779 129.98 15.779H128.378V16.2725H130.064V29.2687H128.631V29.1865ZM136.641 29.1865V29.68H140.983V29.1865H139.171V16.766H139.255L143.597 29.68H144.103L148.361 16.9305H148.446V29.1865H146.717V29.68H152.619V29.1865H150.891V16.1903H152.619V15.6967H148.108L144.778 25.7729H144.693L141.279 15.6967H136.683V16.1903H138.496V29.1865H136.641ZM157.131 20.7143C159.449 20.7143 159.449 22.8117 159.449 25.1149C159.449 27.4591 159.449 29.5155 157.131 29.5155C154.812 29.5155 154.812 27.5002 154.812 25.1149C154.77 22.8529 154.77 20.7143 157.131 20.7143ZM157.131 30.0912C159.955 30.0912 161.979 27.5825 161.979 25.1971C161.979 22.8117 159.997 20.303 157.131 20.303C154.306 20.303 152.282 22.8117 152.282 25.1971C152.282 27.5825 154.264 30.0912 157.131 30.0912ZM168.176 20.7143C169.778 20.7143 169.863 22.4005 169.863 25.0326C169.863 27.8704 169.778 29.5977 168.176 29.5977C166.026 29.5977 165.436 27.418 165.436 25.1971C165.436 22.6884 166.026 20.7143 168.176 20.7143ZM168.176 30.0912C170.411 30.0912 172.266 27.747 172.266 25.1149C172.266 22.6061 170.369 20.303 168.176 20.303C166.448 20.303 165.689 21.6191 165.436 22.1537H165.352V15.5734C164.677 15.6556 164.003 15.7379 163.201 15.7379H161.599V16.2314H163.286V29.2276H161.557V29.7211H163.159C163.581 29.7211 164.003 29.7211 164.34 29.7211L165.352 29.8034V28.1171H165.436C165.689 28.6929 166.448 30.0912 168.176 30.0912ZM174.838 18.699C175.512 18.699 176.102 18.1232 176.102 17.4652C176.102 16.8072 175.512 16.2314 174.838 16.2314C174.163 16.2314 173.573 16.8072 173.573 17.4652C173.573 18.1232 174.205 18.699 174.838 18.699ZM180.698 29.1865V15.6145C180.023 15.6967 179.349 15.779 178.548 15.779H176.946V16.2725H178.632V29.2687H176.06V20.4675C175.386 20.5497 174.711 20.632 173.91 20.632H172.308V21.1255H173.994V29.2687H172.477V29.7622H182.3V29.2687H180.698V29.1865ZM188.497 23.9633H184.492C184.492 22.1126 184.492 20.7143 186.727 20.7143C188.076 20.7143 188.455 21.619 188.455 22.7295V23.9633H188.497ZM184.534 26.2664V24.4979H190.858C190.858 22.4827 189.425 20.2619 186.769 20.2619C184.197 20.2619 182.005 22.8529 182.005 25.2382C182.005 27.747 183.986 30.0501 186.853 30.0501C189.846 30.0501 190.605 27.9526 190.943 26.8833L190.521 26.7188C190.268 27.5414 189.172 29.5566 186.769 29.5566C184.534 29.5977 184.534 27.5414 184.534 26.2664ZM191.491 28.7752C191.491 29.5155 192.081 30.009 192.84 30.009C193.599 30.009 194.189 29.4332 194.189 28.7752C194.189 28.1172 193.599 27.5414 192.84 27.5414C191.996 27.5414 191.491 28.1172 191.491 28.7752ZM215.395 18.699C216.07 18.699 216.66 18.1232 216.66 17.4652C216.66 16.8072 216.07 16.2314 215.395 16.2314C214.721 16.2314 214.13 16.8072 214.13 17.4652C214.13 18.1232 214.763 18.699 215.395 18.699ZM221.171 29.1865V15.6145C220.496 15.6967 219.822 15.779 219.021 15.779H217.419V16.2725H219.105V29.2687H216.618V20.4675C215.943 20.5497 215.353 20.632 214.468 20.632H212.865V21.1255H214.552V29.2687H211.137V16.2725H212.865V15.779H208.354L205.024 25.8552H204.939L201.525 15.779H197.013V16.2725H198.826V29.2687H197.013V29.7622H201.272V29.2687H199.459V16.766H199.543L203.885 29.68H204.391L208.65 16.9305H208.734V29.1865H207.005V29.68H222.899V29.1865H221.171ZM228.422 24.9503V26.1842C228.422 27.5825 227.579 29.1042 226.357 29.1042C225.429 29.1042 225.007 28.1994 225.007 27.1712C225.007 25.7729 225.851 25.4027 226.905 25.156C227.411 25.0326 228.001 24.9503 228.422 24.9503ZM230.235 30.0912C231.331 30.0912 231.964 29.4332 232.301 29.0219L231.964 28.7752C231.795 28.9397 231.542 29.1865 231.205 29.1865C230.699 29.1865 230.53 28.6107 230.53 27.9526V22.1126C230.53 20.7143 229.434 20.2619 227.368 20.2619C225.387 20.2619 223.532 21.2489 223.532 22.4416C223.532 23.1819 224.038 23.5932 224.628 23.5932C225.134 23.5932 225.724 23.0996 225.724 22.5238C225.724 21.9481 225.218 21.7836 225.218 21.4545C225.218 20.961 226.399 20.632 227.115 20.632C228.127 20.632 228.465 20.8788 228.465 21.7836V24.3746C227.79 24.4568 226.862 24.4568 225.893 24.7036C224.628 24.9503 222.899 25.7729 222.899 27.5414C222.899 29.0219 223.996 29.9679 225.303 29.9679C227.2 29.9679 227.959 28.9808 228.465 28.0349C228.507 28.6929 228.76 30.0912 230.235 30.0912ZM232.343 29.1865V29.68H237.445V29.1865H235.842V24.6213C235.842 22.9351 237.276 20.8788 238.667 20.8788C240.016 20.8788 240.016 21.9481 240.016 23.7165V29.1453H238.667V29.6388H243.684V29.1453H242.166V23.3464C242.166 21.7836 241.998 20.2619 239.257 20.2619C237.107 20.2619 236.18 22.0303 235.758 23.0174V20.4675C235.168 20.5497 234.578 20.632 233.692 20.632H232.09V21.1255H233.777V29.2687H232.343V29.1865ZM248.153 20.7143C250.472 20.7143 250.472 22.8117 250.472 25.1149C250.472 27.4591 250.472 29.5155 248.153 29.5155C245.834 29.5155 245.834 27.5002 245.834 25.1149C245.834 22.8529 245.834 20.7143 248.153 20.7143ZM248.153 30.0912C250.978 30.0912 253.001 27.5825 253.001 25.1971C253.001 22.8117 251.02 20.303 248.153 20.303C245.328 20.303 243.305 22.8117 243.305 25.1971C243.305 27.5825 245.328 30.0912 248.153 30.0912Z" fill="white"></path>
</svg>
