<?xml version="1.0" encoding="UTF-8"?>
<svg xmlns="http://www.w3.org/2000/svg" width="50" height="54" viewBox="0 0 50 54" fill="none">
  <path d="M35.9516 10.6392L35.9515 10.6391C32.4213 7.5234 27.8681 6.10139 23.1297 6.61755L23.1296 6.61755C15.5286 7.44723 9.44595 13.4999 8.66391 21.0139L8.66389 21.014C8.12269 26.2471 10.0821 31.2618 14.0335 34.7503L14.1659 34.6004L14.0335 34.7503C16.1058 36.5797 17.3881 39.0969 17.6568 41.8363V47.6895C17.6568 49.0404 18.7757 50.1393 20.1392 50.1393H20.6317C21.0147 52.1778 22.8241 53.7273 25.001 53.7273C27.1787 53.7273 28.9878 52.1769 29.3782 50.1309H29.8628C31.2263 50.1309 32.3453 49.0321 32.3453 47.6811V41.8279C32.614 39.0795 33.8882 36.5711 35.9341 34.7758C39.4304 31.7105 41.4325 27.3068 41.4325 22.6989V22.6985C41.4239 18.1077 39.4304 13.7127 35.9516 10.6392ZM19.5913 23.9256L19.5913 23.9253C19.6324 23.554 19.8816 23.2667 20.2819 23.1604C20.3694 23.1389 20.4715 23.1247 20.5719 23.1247C20.8624 23.1247 21.1876 23.2309 21.4222 23.5389C22.0493 24.3742 22.3913 25.4024 22.3913 26.4291V28.454C21.8504 28.2806 21.3533 28.0171 20.9307 27.6143C19.9234 26.6452 19.4371 25.3016 19.5913 23.9256ZM30.213 28.7818L30.2135 28.7813C31.59 27.4591 32.2577 25.6246 32.047 23.7472L32.047 23.7467C31.9269 22.6998 31.1953 21.8737 30.1522 21.5941L30.1516 21.594C29.0655 21.3061 27.9378 21.6838 27.2681 22.57L27.2675 22.5709C26.4361 23.6836 25.9719 25.0552 25.9719 26.4375V28.7533C25.3207 28.8001 24.6898 28.8001 24.0386 28.7533V26.4291C24.0386 25.0469 23.5744 23.6752 22.7431 22.5625L22.7426 22.5619C22.0815 21.684 20.9453 21.2976 19.8589 21.5856L19.8583 21.5857C18.8152 21.8653 18.0836 22.6914 17.9635 23.7383L17.9635 23.7389C17.7529 25.6244 18.4203 27.4591 19.7975 28.7734L19.7975 28.7735C20.5672 29.5074 21.4693 29.9188 22.3998 30.1359V40.9658H19.2172C18.7718 38.0919 17.336 35.4719 15.1383 33.5305C11.5804 30.3865 9.8152 25.8834 10.309 21.1725L10.309 21.1723C11.0118 14.418 16.4771 8.97892 23.3174 8.22791L23.3175 8.2279C27.5895 7.75725 31.6909 9.04485 34.8724 11.8507C38.003 14.6149 39.7937 18.575 39.7937 22.7073C39.7853 26.8476 37.9778 30.8077 34.8385 33.5721C32.6566 35.4895 31.2378 38.0935 30.7932 40.9742H27.6107V30.143C28.5396 29.92 29.4424 29.5167 30.213 28.7818ZM27.6107 28.454V26.4291C27.6107 25.3934 27.953 24.3654 28.5798 23.5391L28.5813 23.5369C28.8065 23.2317 29.1296 23.1247 29.4301 23.1247C29.5384 23.1247 29.6321 23.1388 29.7201 23.1604C30.1204 23.2667 30.3696 23.554 30.4107 23.9253L30.4107 23.9256C30.565 25.3017 30.0786 26.6453 29.0712 27.6144C28.6487 28.0172 28.1515 28.2807 27.6107 28.454ZM25.001 52.0978C23.7333 52.0978 22.6541 51.2642 22.299 50.1309H27.7034C27.3489 51.2704 26.2698 52.0978 25.001 52.0978ZM30.698 47.6895C30.698 48.1367 30.3236 48.5098 29.8628 48.5098H29.2689H20.7331H20.1392C19.6784 48.5098 19.304 48.1367 19.304 47.6895V42.6036H30.698V47.6895ZM25.9719 40.9742H24.0386V30.3733C24.6893 30.4132 25.3212 30.4132 25.9719 30.3733V40.9742Z" fill="#5458F6" stroke="#5458F6" stroke-width="0.4"></path>
  <path d="M25.0022 4.34073C25.3416 4.34073 25.6216 4.06473 25.6216 3.73018V0.610545C25.6216 0.276 25.3416 0 25.0022 0C24.6628 0 24.3828 0.276 24.3828 0.610545V3.72182C24.3828 4.06473 24.6543 4.34073 25.0022 4.34073Z" fill="#5458F6"></path>
  <path d="M48.4535 23.1172H45.2971C44.9577 23.1172 44.6777 23.3932 44.6777 23.7277C44.6777 24.0623 44.9577 24.3383 45.2971 24.3383H48.4535C48.7929 24.3383 49.0729 24.0623 49.0729 23.7277C49.0729 23.3932 48.8014 23.1172 48.4535 23.1172Z" fill="#5458F6"></path>
  <path d="M4.70544 23.1172H1.54908C1.20969 23.1172 0.929688 23.3932 0.929688 23.7277C0.929688 24.0623 1.20969 24.3383 1.54908 24.3383H4.70544C5.04484 24.3383 5.32484 24.0623 5.32484 23.7277C5.32484 23.3932 5.04484 23.1172 4.70544 23.1172Z" fill="#5458F6"></path>
  <path d="M41.1485 6.95027L38.917 9.14991C38.6709 9.39245 38.6709 9.77718 38.917 10.0197C39.0358 10.1368 39.197 10.1954 39.3582 10.1954C39.5194 10.1954 39.6721 10.1368 39.7994 10.0197L42.0309 7.82009C42.277 7.57754 42.277 7.19282 42.0309 6.95027C41.7848 6.70773 41.3861 6.71609 41.1485 6.95027Z" fill="#5458F6"></path>
  <path d="M10.2129 37.4439L7.98142 39.6436C7.73536 39.8861 7.73536 40.2708 7.98142 40.5134C8.10021 40.6305 8.26142 40.689 8.42263 40.689C8.58385 40.689 8.73657 40.6305 8.86384 40.5134L11.0954 38.3137C11.3414 38.0712 11.3414 37.6865 11.0954 37.4439C10.8493 37.2014 10.4505 37.2097 10.2129 37.4439Z" fill="#5458F6"></path>
  <path d="M39.7896 37.4436C39.5436 37.2011 39.1533 37.2011 38.9072 37.4436C38.6611 37.6862 38.6611 38.0709 38.9072 38.3134L41.1387 40.5131C41.2575 40.6302 41.4187 40.6887 41.5799 40.6887C41.7411 40.6887 41.8939 40.6302 42.0211 40.5131C42.2672 40.2705 42.2672 39.8858 42.0211 39.6433L39.7896 37.4436Z" fill="#5458F6"></path>
  <path d="M10.2129 10.0199C10.3317 10.137 10.4929 10.1956 10.6541 10.1956C10.8154 10.1956 10.9681 10.137 11.0954 10.0199C11.3414 9.77737 11.3414 9.39264 11.0954 9.1501L8.86384 6.95046C8.61778 6.70792 8.22748 6.70792 7.98142 6.95046C7.73536 7.19301 7.73536 7.57774 7.98142 7.82028L10.2129 10.0199Z" fill="#5458F6"></path>
</svg>
