<?xml version="1.0" encoding="UTF-8"?>
<svg xmlns="http://www.w3.org/2000/svg" width="59" height="37" viewBox="0 0 59 37" fill="none">
  <path d="M34.8943 24.1965C34.7374 23.2295 34.2918 22.3324 33.6162 21.623H42.143L41.777 21.3771C41.6226 21.2713 37.9482 18.8036 35.4519 18.5777C35.1145 18.5462 34.7571 18.5205 34.3968 18.4976C34.3918 18.1663 34.3457 17.8368 34.2596 17.5169L34.1194 16.945C34.3797 16.7837 34.6533 16.645 34.9372 16.5303L37.6165 16.1014L36.9103 15.9585C36.2011 15.8281 35.481 15.7658 34.76 15.7726C34.1566 15.7726 32.9328 15.7469 31.829 15.724C31.8201 15.7121 31.8095 15.7015 31.7976 15.6925L31.7776 15.7211H31.7261C31.6975 15.6868 31.5803 15.5009 31.566 14.726C31.5402 13.385 31.566 12.7759 31.566 12.7702V12.6701L31.4773 12.6358C31.0753 12.4882 30.6581 12.3856 30.2335 12.3298V11.492H29.7073V5.32422H29.4385V11.492H28.9067V12.3327C28.482 12.3885 28.0649 12.4911 27.6628 12.6387L27.5742 12.673V12.7702C27.5742 12.7702 27.5999 13.385 27.5742 14.726C27.5599 15.5009 27.4427 15.6868 27.4141 15.7211H27.3569L27.3369 15.6925C27.325 15.7015 27.3144 15.7121 27.3054 15.724C26.2017 15.7497 24.9778 15.7726 24.3745 15.7726C23.6534 15.7658 22.9334 15.8281 22.2242 15.9585L21.515 16.11L24.1829 16.5303C24.4737 16.6381 24.7542 16.7721 25.0207 16.9307L24.8806 17.5026C24.7944 17.8225 24.7483 18.152 24.7434 18.4833C24.3831 18.5034 24.0256 18.5291 23.6882 18.5634C21.1948 18.8179 17.5204 21.2713 17.366 21.3742L17 21.6201H25.5268C24.8512 22.3296 24.4057 23.2266 24.2487 24.1936L24.2315 24.3423H26.379L26.745 25.5204H32.3952L32.7612 24.3423H34.9086L34.8943 24.1965ZM33.9993 17.5798C34.0777 17.8739 34.1209 18.1762 34.128 18.4805C33.6505 18.4547 33.1672 18.4376 32.6983 18.4262C32.9461 18.019 33.245 17.6452 33.5876 17.3138C33.6781 17.2317 33.7736 17.1553 33.8735 17.0851L33.9993 17.5798ZM29.1755 11.7608H29.9675V12.3041C29.8474 12.3041 29.7245 12.2898 29.5987 12.2898H29.5472C29.4214 12.2898 29.2984 12.2898 29.1783 12.3041L29.1755 11.7608ZM27.8487 12.856C28.3955 12.6728 28.9677 12.5763 29.5443 12.57H29.5958C30.1725 12.5765 30.7446 12.673 31.2915 12.856C31.2915 13.079 31.2743 13.6852 31.2915 14.7289C31.2835 15.0615 31.3269 15.3932 31.4201 15.7125L29.5987 15.6725H29.5415L27.7172 15.7183C27.8104 15.399 27.8538 15.0672 27.8458 14.7346C27.8659 13.6709 27.8544 13.079 27.8487 12.856ZM23.1621 16.0957C23.4966 16.0643 23.9084 16.0385 24.3745 16.0385C25.6183 16.0385 29.5015 15.9356 29.5358 15.9327H29.5844C29.6244 15.9327 33.5047 16.0385 34.7485 16.0385C35.2175 16.0385 35.6321 16.0643 35.9638 16.0957L34.86 16.273C34.3318 16.4621 33.8411 16.7428 33.4103 17.1022C33.0127 17.4881 32.6702 17.9268 32.3923 18.4061C31.0884 18.3804 29.9904 18.4061 29.6816 18.4061L29.7073 16.3445H29.4385L29.4128 18.409C29.0468 18.409 27.9831 18.389 26.7507 18.409C26.473 17.9287 26.1305 17.4889 25.7327 17.1022C25.2945 16.7282 24.7915 16.4374 24.2487 16.2444L23.1621 16.0957ZM25.1351 17.5769L25.2523 17.0851C25.3523 17.1553 25.4478 17.2317 25.5383 17.3138C25.8809 17.6452 26.1797 18.019 26.4276 18.4262C25.9643 18.4262 25.4811 18.4547 24.9978 18.4805C25.0107 18.1755 25.0596 17.8732 25.1437 17.5798L25.1351 17.5769ZM23.7054 18.8408C26.1588 18.6092 29.4986 18.6835 29.5329 18.6835H29.6702C30.1877 18.6835 33.1758 18.6292 35.4205 18.8408C37.3878 19.0266 40.2215 20.708 41.2366 21.3485H17.8979C18.9158 20.7108 21.7467 19.0295 23.714 18.8436L23.7054 18.8408ZM32.1979 25.2545H26.9451L26.6592 24.3452H32.481L32.1979 25.2545ZM24.5432 24.0764C24.7426 23.1399 25.2176 22.2845 25.9071 21.6201H33.2359C33.9254 22.2845 34.4004 23.1399 34.5998 24.0764H24.5432Z" fill="#5458F6" stroke="#5458F6" stroke-width="0.6"></path>
  <path d="M58 33.4889H53.599V2.06124C53.599 1.42079 53.0844 0.9 52.4477 0.9H6.5523C5.91558 0.9 5.40102 1.42079 5.40102 2.06124V33.4889H1H0.9V33.5889V34.5391C0.9 35.1719 1.40845 35.6865 2.03764 35.6865H3.41434C3.58443 35.6865 3.72392 35.826 3.72392 36V36.1H3.82392H7.01429H7.11429V36C7.11429 35.826 7.25378 35.6865 7.42387 35.6865H51.4942C51.6643 35.6865 51.8038 35.826 51.8038 36V36.1H51.9038H55.0942H55.1942V36C55.1942 35.826 55.3337 35.6865 55.5038 35.6865H56.9624C57.5915 35.6865 58.1 35.1719 58.1 34.5391V33.5889V33.4889H58ZM6.36062 2.06124C6.36062 1.95296 6.44732 1.86679 6.5523 1.86679H26.7623C26.8288 1.86679 26.8843 1.92146 26.8843 1.99089V2.41402C26.8843 2.59599 27.0307 2.74511 27.2133 2.74511H31.7393C31.9219 2.74511 32.0682 2.59599 32.0682 2.41402V1.99089C32.0682 1.92146 32.1237 1.86679 32.1902 1.86679H52.4477C52.5527 1.86679 52.6394 1.95296 52.6394 2.06125V32.2747H6.36062V2.06124ZM25.3739 34.0244H33.5083C33.3792 34.267 33.1255 34.4317 32.8355 34.4317H26.0467C25.7567 34.4317 25.503 34.267 25.3739 34.0244ZM57.5677 34.5391C57.5677 34.8773 57.2952 35.1511 56.9624 35.1511H2.03764C1.70484 35.1511 1.43232 34.8773 1.43232 34.5391V34.0244H24.8024C24.959 34.5678 25.4567 34.9672 26.0467 34.9672H32.8355C33.4255 34.9672 33.9232 34.5678 34.0798 34.0244H57.5677V34.5391Z" fill="#5458F6" stroke="#5458F6" stroke-width="0.2"></path>
</svg>
