<?xml version="1.0" encoding="UTF-8"?>
<svg xmlns="http://www.w3.org/2000/svg" width="42" height="43" viewBox="0 0 42 43" fill="none">
  <path d="M0.85 41.9999V42.1499H1H24.7108H24.8608L24.8608 41.9999L24.8607 37.7083C24.8607 31.0052 19.4771 25.5487 12.8555 25.5487C6.23363 25.5487 0.85 31.0052 0.85 37.7083V41.9999ZM2.17196 40.8147V37.7083C2.17196 31.738 6.96656 26.884 12.8555 26.884C18.7443 26.884 23.5388 31.738 23.5388 37.7083L23.5389 40.8147H2.17196Z" fill="#5458F6" stroke="#5458F6" stroke-width="0.3"></path>
  <path d="M25.1569 24.032L25.1572 24.0318L30.4181 18.4202H39.6484C40.7563 18.4202 41.6557 17.5135 41.6557 16.4008V2.86939C41.6557 2.86937 41.6557 2.86935 41.6557 2.86933C41.6559 2.33053 41.4473 1.82309 41.0686 1.44193C40.6898 1.06051 40.1849 0.85 39.6484 0.85H18.2181C17.1101 0.85 16.2104 1.75659 16.2104 2.86922V12.1468C15.1999 11.5774 14.0356 11.2524 12.7975 11.2524C8.93221 11.2524 5.78945 14.4164 5.78945 18.3037C5.78945 22.1909 8.93222 25.3548 12.7975 25.3548C16.624 25.3548 19.7425 22.2539 19.8045 18.4202H22.8497V23.1102C22.8497 23.6633 23.18 24.1541 23.6892 24.3571C23.8447 24.42 24.0157 24.4531 24.1848 24.4531C24.5509 24.4531 24.9046 24.2999 25.1569 24.032ZM40.3298 16.4008V16.4178C40.3208 16.7897 40.0176 17.0879 39.6485 17.0879H29.9106H29.8456L29.8011 17.1353L24.1931 23.1172L24.193 23.1172C24.1912 23.1192 24.189 23.1203 24.1872 23.1207C24.1858 23.121 24.1842 23.1211 24.1819 23.1201L24.1809 23.1197C24.1806 23.1196 24.1792 23.1189 24.1776 23.1166C24.1761 23.1143 24.1755 23.112 24.1755 23.1102V17.2379V17.0879H24.0255H19.7008C19.4301 15.5278 18.6482 14.1428 17.5362 13.114V2.86922C17.5362 2.48976 17.8431 2.18232 18.218 2.18232H39.6483C39.8306 2.18232 40.0013 2.25335 40.1301 2.38309C40.2589 2.51281 40.3299 2.68493 40.3298 2.86915V2.86922V16.4008ZM12.7975 24.0225C9.66532 24.0225 7.11529 21.4578 7.11529 18.3037C7.11529 15.1495 9.66532 12.5847 12.7975 12.5847C15.9296 12.5847 18.4796 15.1495 18.4796 18.3038C18.4796 21.4578 15.9296 24.0225 12.7975 24.0225Z" fill="#5458F6" stroke="#5458F6" stroke-width="0.3"></path>
</svg>
