<?xml version="1.0" encoding="UTF-8"?>
<svg xmlns="http://www.w3.org/2000/svg" width="47" height="47" viewBox="0 0 47 47" fill="none">
  <path d="M23.2508 10.5498C16.2508 10.5498 10.5508 16.2498 10.5508 23.2498C10.5508 30.2498 16.2508 35.9498 23.2508 35.9498C30.2508 35.9498 35.9508 30.2498 35.9508 23.2498C35.9508 16.2498 30.2508 10.5498 23.2508 10.5498ZM23.2508 34.4498C17.1008 34.4498 12.0508 29.4498 12.0508 23.2498C12.0508 17.0498 17.0508 12.0498 23.2508 12.0498C29.4508 12.0498 34.4508 17.0498 34.4508 23.2498C34.4508 29.4498 29.4008 34.4498 23.2508 34.4498Z" fill="#5458F6"></path>
  <path d="M45.75 18.7H40.95C40.55 17.05 39.85 15.5 39 14L42.4 10.6C42.7 10.3 42.7 9.85 42.4 9.55L37 4.1C36.7 3.8 36.25 3.8 35.95 4.1L32.55 7.5C31.1 6.65 29.5 5.95 27.85 5.55V0.75C27.85 0.35 27.5 0 27.1 0H19.45C19.05 0 18.7 0.35 18.7 0.75V5.55C17.05 5.95 15.5 6.65 14 7.5L10.6 4.1C10.3 3.8 9.85 3.8 9.55 4.1L4.1 9.5C3.8 9.8 3.8 10.25 4.1 10.55L7.5 13.95C6.65 15.4 5.95 17 5.55 18.65H0.75C0.35 18.65 0 19 0 19.4V27.05C0 27.45 0.35 27.8 0.75 27.8H5.55C5.95 29.45 6.65 31 7.5 32.5L4.1 35.9C3.8 36.2 3.8 36.65 4.1 36.95L9.5 42.35C9.8 42.65 10.25 42.65 10.55 42.35L13.95 38.95C15.4 39.8 17 40.5 18.65 40.9V45.75C18.65 46.15 19 46.5 19.4 46.5H27.05C27.45 46.5 27.8 46.15 27.8 45.75V40.95C29.45 40.55 31 39.85 32.5 39L35.9 42.4C36.2 42.7 36.65 42.7 36.95 42.4L42.35 37C42.65 36.7 42.65 36.25 42.35 35.95L38.95 32.55C39.8 31.1 40.5 29.5 40.9 27.85H45.75C46.15 27.85 46.5 27.5 46.5 27.1V19.45C46.5 19 46.15 18.7 45.75 18.7ZM45 26.35H40.35C40 26.35 39.7 26.6 39.6 26.95C39.2 28.85 38.45 30.6 37.4 32.25C37.2 32.55 37.25 32.95 37.5 33.2L40.8 36.5L36.45 40.85L33.15 37.55C32.9 37.3 32.5 37.25 32.2 37.45C30.55 38.5 28.75 39.25 26.9 39.65C26.55 39.75 26.3 40.05 26.3 40.4V45.05H20.2V40.4C20.2 40.05 19.95 39.75 19.6 39.65C17.7 39.25 15.95 38.5 14.3 37.45C14 37.25 13.6 37.3 13.35 37.55L10.05 40.85L5.7 36.5L9 33.2C9.25 32.95 9.3 32.55 9.1 32.25C8.05 30.6 7.3 28.8 6.9 26.95C6.8 26.6 6.5 26.35 6.15 26.35H1.5V20.2H6.15C6.5 20.2 6.8 19.95 6.9 19.6C7.3 17.7 8.05 15.95 9.1 14.3C9.3 14 9.25 13.6 9 13.35L5.7 10.05L10.05 5.7L13.35 9C13.6 9.25 14 9.3 14.3 9.1C15.95 8.05 17.75 7.3 19.6 6.9C19.95 6.8 20.2 6.5 20.2 6.15V1.5H26.35V6.15C26.35 6.5 26.6 6.8 26.95 6.9C28.85 7.3 30.6 8.05 32.25 9.1C32.55 9.3 32.95 9.25 33.2 9L36.5 5.7L40.85 10.05L37.55 13.35C37.3 13.6 37.25 14 37.45 14.3C38.5 15.95 39.25 17.75 39.65 19.6C39.75 19.95 40.05 20.2 40.4 20.2H45.05V26.35H45Z" fill="#5458F6"></path>
  <path d="M28.35 18.7499L20.95 26.1499L18.15 23.3499C17.85 23.0499 17.4 23.0499 17.1 23.3499C16.8 23.6499 16.8 24.0999 17.1 24.3999L20.4 27.6999C20.55 27.8499 20.75 27.8999 20.95 27.8999C21.15 27.8999 21.35 27.8499 21.5 27.6999L29.4 19.7999C29.7 19.4999 29.7 19.0499 29.4 18.7499C29.1 18.4499 28.65 18.4499 28.35 18.7499Z" fill="#5458F6"></path>
</svg>
