<?xml version="1.0" encoding="UTF-8"?>
<svg xmlns="http://www.w3.org/2000/svg" id="Livello_1" viewBox="0 0 180.14 35.63">
  <defs>
    <style>.cls-1{fill:#fff;}</style>
  </defs>
  <path class="cls-1" d="m17.72,0C7.91,0,0,8,0,17.81s8,17.81,17.81,17.81,17.81-8,17.81-17.81S27.54,0,17.72,0m9.82,27.09s-3.82-1.36-9.82-1.36-9.82,1.36-9.82,1.36V8.54h.27s1.64,16.36,9.54,16.36,9.54-16.36,9.54-16.36h.27v18.54Z"></path>
  <path class="cls-1" d="m73.26,19h-4.54c0-2,.91-3.09,2.27-3.09,1.45,0,2.27,1.18,2.27,3.09m35.9,1.45l-.09,2.73c-.45.82-1.36,1.27-2.27,1.27-1.09,0-1.73-.64-1.73-1.82,0-.73.18-1.18.64-1.55.45-.45,1.36-.73,2.91-.73.18.09.36.09.55.09m59.99-1.45h-4.45c.09-2,.82-3.09,2.27-3.09,1.36,0,2.18,1.18,2.18,3.09m-105.16,6.91v-15.72h-2.55v6.36h-5.91v-6.36h-2.54v15.82h2.54v-7.36h5.91v7.36l2.55-.09Zm11.91-5.18v-.45c0-2.54-.55-4-1.45-4.91-.82-.82-2-1.27-3.27-1.27-1.55,0-2.73.55-3.64,1.55-.91,1-1.45,2.45-1.45,4.45,0,3.73,2.09,6.09,5.45,6.09,1.64,0,3.09-.55,4.27-1.55l-1-1.45c-.91.73-1.91,1.09-3,1.09s-2-.45-2.55-1.18c-.36-.55-.45-1.36-.45-2.18v-.18h7.09Zm8.27-6.45c-.27-.09-.55-.18-1-.18-1.27,0-2.18.73-3,1.82v-.18c0-.73-.18-1.09-.45-1.55l-2.36.64c.27.73.36,1.55.36,2.91v8.27h2.54v-7.73c.09-.64.27-.91.73-1.27.45-.45,1-.55,1.55-.55.27,0,.45.09.73.18l.91-2.36Zm16.18,11.63v-8.45c0-1.27-.27-2.09-.91-2.64-.45-.45-1.36-.73-2.18-.73-1.27,0-2.64.64-3.64,1.73-.55-1.09-1.55-1.73-2.82-1.73-1.09,0-2.36.64-3.18,1.45-.09-.55-.27-1.09-.45-1.45l-2.27.55c.36.73.45,1.18.45,2.82v8.36h2.45v-8.54c1-.82,1.82-1.18,2.54-1.18,1,0,1.36.55,1.36,1.82v7.91h2.45v-8.36c1-1,1.91-1.45,2.64-1.45.91,0,1.27.45,1.27,1.64v8.09h2.27v.18Zm12.27-1.09c-.82-.55-1.09-1-1.09-2.36v-.36l.09-3.45v-.73c0-1.18-.09-1.55-.18-2-.45-1.27-1.73-1.91-3.54-1.91-1.09,0-2.09.18-3.18.64-.64.27-1.27.55-1.91.91l1.09,1.73c.45-.36.82-.55,1.45-.82.82-.36,1.55-.55,2.18-.55.73,0,1.09.18,1.36.55.27.36.36.73.36,1.55v.82h-.82c-3.91,0-6,1.36-6,4.09,0,.91.27,1.91.91,2.45.73.64,1.55.91,3,.91,1,0,1.82-.27,2.54-.73.27-.18.36-.36.73-.73.27.73.91,1.27,1.64,1.55l1.36-1.55Zm11.18,1.09v-8.54c0-2.18-1.27-3.18-3.18-3.18-1.27,0-2.27.45-3.64,1.55,0-.55-.18-1.09-.45-1.55l-2.27.64c.36.82.36,1.36.36,2.73v8.54h2.45v-8.36c.82-.82,1.91-1.36,2.73-1.36,1,0,1.36.45,1.36,2.09v7.63h2.64v-.18Zm19.27,0l-1.36-15.81h-3.54l-3.18,11.63-3.18-11.54h-3.64l-1.55,15.82h2.36l1.09-13.27,3.73,13.27h1.91l3.73-13,1.09,13h2.54v-.09Zm5.09,0v-11.82l-2.54.36v11.36h2.54v.09Zm7.09,0l-.45-1.45h-.27c-.45,0-.82-.27-.82-1.09v-10.91c0-1.45,0-2.55-.18-3.27l-2.54.55c.18.91.27,1.73.27,3.36v10.45c0,1.73,1,2.73,2.45,2.73.64-.09,1.09-.18,1.55-.36m-6.64-14.91c0-.91-.73-1.64-1.73-1.64-.91,0-1.73.73-1.73,1.64s.82,1.64,1.64,1.64c1.09,0,1.82-.73,1.82-1.64m12.45,14.91l-.45-1.45c-.36.09-.64,0-.82-.18-.18-.27-.27-.73-.27-1.82v-10c0-1.45,0-2.55-.18-3.27l-2.55.55c.18.91.27,1.73.27,3.36v10c0,1.27.27,1.91.55,2.36.36.55,1.09.82,1.91.82.55-.09,1-.18,1.55-.36m10.72-5.18v-.45c0-2.54-.55-4-1.45-4.91-.82-.82-2-1.27-3.36-1.27-1.45,0-2.64.55-3.64,1.55-.91,1-1.45,2.45-1.45,4.45,0,3.73,2.09,6.09,5.45,6.09,1.55,0,3.09-.55,4.27-1.55l-1-1.45c-.91.73-1.91,1.09-3,1.09s-2-.45-2.55-1.18c-.36-.55-.55-1.36-.55-2.18v-.18h7.27Zm8.36-6.45c-.27-.09-.55-.18-1-.18-1.27,0-2.27.73-3,1.82v-.18c0-.73-.18-1.09-.45-1.55l-2.27.64c.27.73.36,1.55.36,2.91v8.27h2.54v-7.73c.09-.64.27-.91.73-1.27.45-.45,1-.55,1.55-.55.27,0,.45.09.73.18l.82-2.36Z"></path>
</svg>
