<?xml version="1.0" encoding="UTF-8"?>
<svg xmlns="http://www.w3.org/2000/svg" width="56" height="56" viewBox="0 0 56 56" fill="none">
  <path d="M45.8032 4.5955C43.0184 1.81022 39.16 0.410223 35.2144 0.751743C29.1972 1.2733 24.168 5.98702 23.2552 11.9613C23.1305 12.7782 23.0836 13.6023 23.1089 14.4197L15.4836 6.79478C14.7136 6.02385 13.6889 5.59974 12.5989 5.59974C11.5089 5.59974 10.4842 6.02381 9.71419 6.79478L7.49387 9.0151C6.72293 9.7851 6.29883 10.8098 6.29883 11.8998C6.29883 12.9898 6.72289 14.0145 7.49387 14.7845L16.8595 24.1501L15.7491 25.2605L14.2288 23.7401C13.8163 23.3276 13.2675 23.1001 12.6839 23.1001C11.4791 23.1001 10.4991 24.0801 10.4991 25.2849C10.4991 25.8505 10.716 26.3805 11.1048 26.7877C10.3376 27.1273 9.79917 27.8929 9.79917 28.7849C9.79917 29.3686 10.0267 29.9173 10.4389 30.3298L10.5595 30.4501L9.6426 31.367C8.38948 32.6201 7.69916 34.2867 7.69916 36.0608C7.69916 39.7217 10.6776 42.7001 14.3385 42.7001C16.1123 42.7001 17.7798 42.0092 19.0336 40.7554L19.9492 39.8398L20.0695 39.9601C20.482 40.3726 21.0308 40.6001 21.6144 40.6001C22.5063 40.6001 23.272 40.0617 23.6116 39.2945C24.0188 39.6833 24.5488 39.9002 25.1144 39.9002C26.3192 39.9002 27.2992 38.9201 27.2992 37.7154C27.2992 37.1317 27.0717 36.583 26.6595 36.1705L25.1388 34.6502L26.2491 33.5398L33.9275 41.2182L43.1931 44.0695L44.7987 44.1001V42.7001L41.9169 33.2289L35.9794 27.2914C36.7969 27.3167 37.621 27.2699 38.4378 27.1452C44.4115 26.2324 49.1266 21.203 49.6474 15.186C49.9893 11.2407 48.5883 7.38069 45.803 4.59637L45.8032 4.5955ZM21.6432 19.3651L21.3485 19.6598L17.4381 15.7495L19.9485 13.2392L23.1025 16.3932C22.9388 17.5276 22.4369 18.5705 21.6432 19.3651ZM12.9488 18.2598L11.8384 17.1495L17.8488 11.1392L18.9591 12.2495L12.9488 18.2598ZM7.69876 11.8995C7.69876 11.1842 7.97751 10.5108 8.48344 10.0045L10.7038 7.78414C11.7159 6.77198 13.4813 6.77198 14.4934 7.78414L16.8587 10.1494L10.8487 16.1597L8.48344 13.7945C7.97751 13.2882 7.69876 12.6149 7.69876 11.8995ZM13.9384 19.2495L16.4488 16.7392L20.3591 20.6495L17.8488 23.1598L13.9384 19.2495ZM18.0434 39.7655C17.0534 40.7545 15.7381 41.2999 14.3381 41.2999C11.4494 41.2999 9.09876 38.9493 9.09876 36.0605C9.09876 34.6605 9.64344 33.3458 10.6319 32.3568L11.5488 31.4399L18.9591 38.8499L18.0434 39.7655ZM21.614 39.1999C21.404 39.1999 21.2075 39.118 21.059 38.9702L11.4286 29.3398C11.2808 29.1913 11.1989 28.9948 11.1989 28.7848C11.1989 28.3523 11.5511 28.0001 11.9836 28.0001C12.1936 28.0001 12.3902 28.082 12.5386 28.2298L22.169 37.8602C22.3169 38.0086 22.3987 38.2052 22.3987 38.4152C22.3987 38.8477 22.0465 39.1999 21.614 39.1999ZM25.8988 37.7152C25.8988 38.1477 25.5466 38.4998 25.1141 38.4998C24.9041 38.4998 24.7075 38.418 24.5591 38.2702L12.1287 25.8398C11.9809 25.6913 11.899 25.4948 11.899 25.2848C11.899 24.8523 12.2512 24.5001 12.6837 24.5001C12.8937 24.5001 13.0902 24.5819 13.2387 24.7298L25.6691 37.1602C25.8169 37.3086 25.8988 37.5052 25.8988 37.7152ZM34.1788 13.0104C34.3063 12.8829 34.4197 12.7457 34.5181 12.6H37.7991V15.7738L21.0303 30.5402L19.8578 29.3677L34.1788 13.0104ZM33.5884 11.2H32.1991C31.4269 11.2 30.7991 10.5722 30.7991 9.80004C30.7991 9.02785 31.4269 8.40004 32.1991 8.40004C32.9713 8.40004 33.5991 9.02785 33.5991 9.80004V11.03C33.5991 11.0872 33.5956 11.1441 33.5884 11.2ZM34.005 27.296L40.3094 33.6001L37.7991 36.1104L30.7388 29.0501L31.0313 28.7576C31.8275 27.9623 32.8703 27.4598 34.005 27.296ZM29.7491 30.0398L36.8094 37.1001L34.2991 39.6104L27.2388 32.5501L29.7491 30.0398ZM43.3523 42.6534L35.616 40.2734L40.9716 34.9178L43.3523 42.6534ZM48.2529 15.0646C47.7861 20.4462 43.5698 24.9454 38.2265 25.7614C37.2906 25.9042 36.3434 25.9376 35.414 25.8602C33.3847 25.6914 31.4234 26.3864 30.0416 27.7683L24.1491 33.6611L22.0209 31.5329L37.8017 17.6354C37.8723 19.1172 39.1001 20.301 40.5989 20.301C42.143 20.301 43.3989 19.045 43.3989 17.501C43.3989 15.9569 42.143 14.701 40.5989 14.701H40.0689C39.768 14.701 39.4745 14.7478 39.1989 14.8369V11.201H34.994C34.9977 11.1444 34.999 11.0882 34.999 11.031V9.80097C34.999 8.25689 33.743 7.00097 32.199 7.00097C30.6549 7.00097 29.399 8.25689 29.399 9.80097C29.399 11.345 30.6549 12.601 32.199 12.601H32.6793L18.8649 28.377L16.739 26.251L22.6337 20.3563C24.014 18.976 24.7093 17.0179 24.5399 14.986C24.4621 14.0557 24.4959 13.1101 24.6387 12.1735C25.4555 6.83009 29.9537 2.61353 35.3355 2.14713C38.8705 1.84338 42.322 3.09497 44.8139 5.58617C47.3057 8.07801 48.5588 11.5328 48.2529 15.0646ZM39.1993 17.5005V16.4036C39.4465 16.2068 39.7496 16.1005 40.0693 16.1005H40.5993C41.3715 16.1005 41.9993 16.7283 41.9993 17.5005C41.9993 18.2727 41.3715 18.9005 40.5993 18.9005C39.8271 18.9005 39.1993 18.2727 39.1993 17.5005Z" fill="white"></path>
  <path d="M36.4009 3.50002V4.90002C40.3978 4.90002 43.9853 7.5725 45.1241 11.3994L46.466 11.0003C45.1513 6.58408 41.0122 3.5 36.4004 3.5L36.4009 3.50002Z" fill="white"></path>
  <path d="M45.4997 13.9997H46.8997C46.8997 13.4984 46.8641 12.9938 46.7935 12.501L45.4082 12.6985C45.4688 13.1269 45.4997 13.5643 45.4997 13.9997Z" fill="white"></path>
</svg>
