<?xml version="1.0" encoding="UTF-8"?>
<svg xmlns="http://www.w3.org/2000/svg" width="65" height="57" viewBox="0 0 65 57" fill="none">
  <path d="M47 34C46.7348 34 46.4804 34.1054 46.2929 34.2929C46.1054 34.4804 46 34.7348 46 35V52C45.9991 52.7954 45.6828 53.5579 45.1204 54.1204C44.5579 54.6828 43.7954 54.9991 43 55H5C4.20462 54.9991 3.44206 54.6828 2.87964 54.1204C2.31722 53.5579 2.00087 52.7954 2 52V30H31C31.2652 30 31.5196 29.8946 31.7071 29.7071C31.8946 29.5196 32 29.2652 32 29C32 28.7348 31.8946 28.4804 31.7071 28.2929C31.5196 28.1054 31.2652 28 31 28H2V26C2.00087 25.2046 2.31722 24.4421 2.87964 23.8796C3.44206 23.3172 4.20462 23.0009 5 23H31C31.2652 23 31.5196 22.8946 31.7071 22.7071C31.8946 22.5196 32 22.2652 32 22C32 21.7348 31.8946 21.4804 31.7071 21.2929C31.5196 21.1054 31.2652 21 31 21H5C3.6744 21.0016 2.40353 21.5288 1.46619 22.4662C0.52884 23.4035 0.00155617 24.6744 0 26V52C0.00155617 53.3256 0.52884 54.5965 1.46619 55.5338C2.40353 56.4712 3.6744 56.9984 5 57H43C44.3256 56.9984 45.5965 56.4712 46.5338 55.5338C47.4712 54.5965 47.9984 53.3256 48 52V35C48 34.7348 47.8946 34.4804 47.7071 34.2929C47.5196 34.1054 47.2652 34 47 34Z" fill="white"></path>
  <path d="M5 25C4.73478 25 4.48043 25.1054 4.29289 25.2929C4.10536 25.4804 4 25.7348 4 26C4 26.2652 4.10536 26.5196 4.29289 26.7071C4.48043 26.8946 4.73478 27 5 27H6C6.26522 27 6.51957 26.8946 6.70711 26.7071C6.89464 26.5196 7 26.2652 7 26C7 25.7348 6.89464 25.4804 6.70711 25.2929C6.51957 25.1054 6.26522 25 6 25H5Z" fill="white"></path>
  <path d="M9 25C8.73478 25 8.48043 25.1054 8.29289 25.2929C8.10536 25.4804 8 25.7348 8 26C8 26.2652 8.10536 26.5196 8.29289 26.7071C8.48043 26.8946 8.73478 27 9 27H10C10.2652 27 10.5196 26.8946 10.7071 26.7071C10.8946 26.5196 11 26.2652 11 26C11 25.7348 10.8946 25.4804 10.7071 25.2929C10.5196 25.1054 10.2652 25 10 25H9Z" fill="white"></path>
  <path d="M13 25C12.7348 25 12.4804 25.1054 12.2929 25.2929C12.1054 25.4804 12 25.7348 12 26C12 26.2652 12.1054 26.5196 12.2929 26.7071C12.4804 26.8946 12.7348 27 13 27H14C14.2652 27 14.5196 26.8946 14.7071 26.7071C14.8946 26.5196 15 26.2652 15 26C15 25.7348 14.8946 25.4804 14.7071 25.2929C14.5196 25.1054 14.2652 25 14 25H13Z" fill="white"></path>
  <path d="M49 0C45.8355 0 42.7421 0.938384 40.1109 2.69649C37.4797 4.45459 35.4289 6.95344 34.2179 9.87706C33.0069 12.8007 32.6901 16.0177 33.3074 19.1214C33.9248 22.2251 35.4487 25.0761 37.6863 27.3137C39.9239 29.5513 42.7749 31.0752 45.8786 31.6926C48.9823 32.3099 52.1993 31.9931 55.1229 30.7821C58.0466 29.5711 60.5454 27.5203 62.3035 24.8891C64.0616 22.2579 65 19.1645 65 16C64.9953 11.758 63.308 7.69107 60.3085 4.69152C57.3089 1.69196 53.242 0.00473314 49 0ZM49 30.1176C46.2078 30.1176 43.4783 29.2897 41.1567 27.7384C38.835 26.1871 37.0255 23.9822 35.957 21.4026C34.8885 18.8229 34.6089 15.9843 35.1536 13.2458C35.6984 10.5072 37.0429 7.9917 39.0173 6.01731C40.9917 4.04293 43.5072 2.69835 46.2458 2.15362C48.9843 1.60889 51.8229 1.88846 54.4026 2.95699C56.9823 4.02552 59.1871 5.83502 60.7384 8.15665C62.2897 10.4783 63.1176 13.2078 63.1176 16C63.1134 19.7429 61.6247 23.3313 58.978 25.978C56.3314 28.6247 52.7429 30.1134 49 30.1176Z" fill="white"></path>
  <path d="M56.1452 9.85505C55.5967 9.30752 54.8533 9 54.0783 9C53.3033 9 52.5599 9.30752 52.0114 9.85505L49.4971 12.3693L46.9828 9.855C46.434 9.30995 45.6915 9.00466 44.918 9.00599C44.1445 9.00733 43.4031 9.31519 42.8561 9.86212C42.3092 10.4091 42.0014 11.1505 42 11.924C41.9987 12.6974 42.304 13.4399 42.8491 13.9887L45.3633 16.503L42.849 19.0173C42.304 19.5661 41.9987 20.3086 42 21.082C42.0013 21.8555 42.3092 22.5969 42.8561 23.1439C43.4031 23.6908 44.1445 23.9986 44.918 24C45.6915 24.0013 46.434 23.696 46.9828 23.1509L49.4971 20.6367L52.0115 23.151C52.5603 23.696 53.3028 24.0013 54.0763 24C54.8498 23.9987 55.5912 23.6908 56.1381 23.1439C56.6851 22.5969 56.9929 21.8555 56.9943 21.082C56.9956 20.3085 56.6903 19.5661 56.1452 19.0173L53.631 16.503L56.1453 13.9887C56.6926 13.4401 57 12.6968 57 11.9219C57 11.1469 56.6926 10.4036 56.1452 9.85505ZM55.0655 12.9091L52.0114 15.9632C51.9405 16.0341 51.8842 16.1182 51.8459 16.2108C51.8075 16.3035 51.7877 16.4028 51.7877 16.503C51.7877 16.6033 51.8075 16.7026 51.8459 16.7952C51.8842 16.8878 51.9405 16.972 52.0114 17.0428L55.0655 20.0969C55.3264 20.3589 55.4727 20.7137 55.4723 21.0835C55.4719 21.4532 55.3249 21.8077 55.0634 22.0692C54.8019 22.3306 54.4474 22.4777 54.0777 22.4781C53.7079 22.4785 53.3531 22.3322 53.0911 22.0713L50.037 19.0173C49.9661 18.9463 49.8819 18.8901 49.7893 18.8517C49.6967 18.8133 49.5974 18.7936 49.4971 18.7936C49.3969 18.7936 49.2976 18.8133 49.2049 18.8517C49.1123 18.8901 49.0282 18.9463 48.9573 19.0173L45.9032 22.0713C45.6413 22.3332 45.2862 22.4802 44.9159 22.4802C44.5456 22.4802 44.1905 22.3331 43.9287 22.0713C43.6669 21.8095 43.5198 21.4544 43.5198 21.0841C43.5198 20.7138 43.6669 20.3587 43.9287 20.0969L46.9828 17.0428C47.0538 16.9719 47.11 16.8878 47.1484 16.7951C47.1868 16.7025 47.2065 16.6032 47.2065 16.503C47.2065 16.4027 47.1868 16.3034 47.1484 16.2108C47.11 16.1182 47.0538 16.034 46.9828 15.9631L43.9287 12.9091C43.6669 12.6472 43.5198 12.2921 43.5198 11.9218C43.5198 11.7385 43.5559 11.557 43.6261 11.3876C43.6962 11.2182 43.7991 11.0643 43.9287 10.9346C44.0584 10.805 44.2123 10.7022 44.3817 10.632C44.5511 10.5618 44.7326 10.5257 44.916 10.5257C45.2863 10.5257 45.6414 10.6728 45.9032 10.9347L48.9573 13.9887C49.0282 14.0596 49.1124 14.1159 49.205 14.1543C49.2976 14.1927 49.3969 14.2124 49.4972 14.2124C49.5974 14.2124 49.6967 14.1927 49.7893 14.1543C49.882 14.1159 49.9661 14.0596 50.037 13.9887L53.0911 10.9347C53.353 10.6728 53.7081 10.5257 54.0784 10.5258C54.4487 10.5258 54.8038 10.6729 55.0656 10.9347C55.3274 11.1965 55.4745 11.5516 55.4745 11.9219C55.4745 12.2922 55.3274 12.6473 55.0655 12.9091Z" fill="white"></path>
</svg>
