<?xml version="1.0" encoding="UTF-8"?>
<svg xmlns="http://www.w3.org/2000/svg" width="87.488" height="89.152" viewBox="0 0 87.488 89.152">
  <g id="Frame_40" data-name="Frame 40" transform="translate(-14.012 -5.184)">
    <path id="Path_16776" data-name="Path 16776" d="M57.756,93.836C81.639,93.836,101,74.1,101,49.76S81.639,5.684,57.756,5.684,14.512,25.418,14.512,49.76,33.873,93.836,57.756,93.836Z" fill="none" stroke="#5458f6" stroke-miterlimit="10" stroke-width="1"></path>
    <path id="Path_16777" data-name="Path 16777" d="M55.267,91.3c22.506,0,40.752-18.6,40.752-41.535S77.774,8.225,55.267,8.225,14.516,26.821,14.516,49.76,32.761,91.3,55.267,91.3Z" fill="none" stroke="#5458f6" stroke-miterlimit="10" stroke-width="1"></path>
    <path id="Path_16778" data-name="Path 16778" d="M52.623,88.923c21.046,0,38.107-17.389,38.107-38.84s-17.061-38.84-38.107-38.84-38.108,17.39-38.108,38.84S31.577,88.923,52.623,88.923Z" fill="none" stroke="#5458f6" stroke-miterlimit="10" stroke-width="1"></path>
    <path id="Path_16779" data-name="Path 16779" d="M74.32,75.75a36.2,36.2,0,0,0,0-50.5,34.569,34.569,0,0,0-49.547,0,36.2,36.2,0,0,0,0,50.5A34.569,34.569,0,0,0,74.32,75.75Z" fill="none" stroke="#5458f6" stroke-miterlimit="10" stroke-width="1"></path>
    <path id="Path_16780" data-name="Path 16780" d="M46.457,83.048C64.1,83.048,78.4,68.472,78.4,50.492S64.1,17.937,46.457,17.937,14.516,32.513,14.516,50.492,28.816,83.048,46.457,83.048Z" fill="none" stroke="#5458f6" stroke-miterlimit="10" stroke-width="1"></path>
    <path id="Path_16781" data-name="Path 16781" d="M43.666,79.193A29.434,29.434,0,1,0,14.512,49.76,29.294,29.294,0,0,0,43.666,79.193Z" fill="none" stroke="#5458f6" stroke-miterlimit="10" stroke-width="1"></path>
    <path id="Path_16782" data-name="Path 16782" d="M57.981,65.14A14.979,14.979,0,1,0,43.146,50.161,14.907,14.907,0,0,0,57.981,65.14Z" fill="none" stroke="#5458f6" stroke-miterlimit="10" stroke-width="1"></path>
    <path id="Path_16783" data-name="Path 16783" d="M60.56,62.538A12.377,12.377,0,1,0,48.3,50.161,12.318,12.318,0,0,0,60.56,62.538Z" fill="none" stroke="#5458f6" stroke-miterlimit="10" stroke-width="1"></path>
    <path id="Path_16784" data-name="Path 16784" d="M63.118,59.552a9.792,9.792,0,1,0-9.7-9.792A9.745,9.745,0,0,0,63.118,59.552Z" fill="none" stroke="#5458f6" stroke-miterlimit="10" stroke-width="1"></path>
    <path id="Path_16785" data-name="Path 16785" d="M55.333,67.813A17.652,17.652,0,1,0,37.85,50.161,17.568,17.568,0,0,0,55.333,67.813Z" fill="none" stroke="#5458f6" stroke-miterlimit="10" stroke-width="1"></path>
    <path id="Path_16786" data-name="Path 16786" d="M53.017,70.151a19.99,19.99,0,1,0-19.8-19.989A19.894,19.894,0,0,0,53.017,70.151Z" fill="none" stroke="#5458f6" stroke-miterlimit="10" stroke-width="1"></path>
    <path id="Path_16787" data-name="Path 16787" d="M50.677,72.515A22.354,22.354,0,1,0,28.533,50.161,22.249,22.249,0,0,0,50.677,72.515Z" fill="none" stroke="#5458f6" stroke-miterlimit="10" stroke-width="1"></path>
    <path id="Path_16788" data-name="Path 16788" d="M48.158,75.06A24.9,24.9,0,1,0,23.5,50.161,24.779,24.779,0,0,0,48.158,75.06Z" fill="none" stroke="#5458f6" stroke-miterlimit="10" stroke-width="1"></path>
    <path id="Path_16789" data-name="Path 16789" d="M45.6,77.539A27.48,27.48,0,1,0,18.389,50.06,27.348,27.348,0,0,0,45.6,77.539Z" fill="none" stroke="#5458f6" stroke-miterlimit="10" stroke-width="1"></path>
  </g>
</svg>
