<?xml version="1.0" encoding="UTF-8"?>
<svg xmlns="http://www.w3.org/2000/svg" width="54" height="54" viewBox="0 0 54 54" fill="none">
  <path d="M53.992 3.3282C54.0577 2.42847 53.7299 1.54665 53.0917 0.908542C52.4397 0.256691 51.5394 -0.0696873 50.6211 0.01248L50.6207 0.00513527C48.2286 0.204361 44.4314 0.739153 39.9256 2.15991C35.6397 3.51088 31.6983 5.34895 28.2103 7.62254C27.5997 8.02053 27.0056 8.43138 26.4271 8.85376C26.3362 8.81152 26.2347 8.78903 26.1278 8.7927C25.6714 8.80831 25.2187 8.80969 24.7398 8.81015C22.5553 8.81382 20.0794 8.81749 16.6589 10.3714C12.8267 12.1125 8.34754 15.5742 2.96627 20.9551C2.70916 21.2122 2.70916 21.6285 2.96627 21.8856C3.09482 22.0141 3.26331 22.0784 3.43181 22.0784C3.48139 22.0784 3.53143 22.072 3.5801 22.0609V22.0614C6.18828 21.4573 8.56975 21.388 10.4681 21.8617C12.2256 22.3001 13.5226 23.1696 14.3284 24.4475C13.4442 26.78 12.8041 29.2423 12.4149 31.8208H12.4153C12.3855 32.02 12.4461 32.2307 12.5999 32.3845L13.3409 33.1258L9.96415 36.5021C9.14785 37.3183 9.14785 38.6467 9.96415 39.4629L10.4095 39.9082L6.8105 43.5062C6.5534 43.7632 6.5534 44.1796 6.8105 44.4371C6.93906 44.5657 7.10755 44.6299 7.27604 44.6299C7.44454 44.6299 7.61304 44.5657 7.74158 44.4371L11.3406 40.8387L13.1633 42.6611L9.56429 46.2596C9.30719 46.5166 9.30719 46.933 9.56429 47.1901C9.69285 47.3186 9.86133 47.3829 10.0298 47.3829C10.1983 47.3829 10.3668 47.3186 10.4954 47.1901L14.0944 43.5916L14.5397 44.0369C14.9355 44.4326 15.4611 44.6502 16.0204 44.6502C16.5801 44.6502 17.1057 44.4321 17.5015 44.0369C17.5286 44.0098 17.5521 43.9809 17.5732 43.9506L20.871 40.6532L21.6121 41.3941C21.7406 41.5226 21.9091 41.5869 22.0776 41.5869C22.1106 41.5869 22.1432 41.5837 22.1758 41.5786V41.5791C24.7786 41.1861 27.2633 40.5375 29.6154 39.6405C30.742 40.4535 31.5166 41.6851 31.9224 43.3115C32.3958 45.2096 32.3269 47.5907 31.7227 50.1982H31.7232C31.6736 50.4121 31.7319 50.6453 31.8981 50.8119C32.0267 50.9405 32.1951 51.0047 32.3636 51.0047C32.5321 51.0047 32.7006 50.9405 32.8292 50.8119C38.2109 45.4315 41.6731 40.9529 43.4145 37.1213C44.9686 33.7013 44.9723 31.2258 44.9759 29.0421C44.9764 28.6078 44.9773 28.1956 44.9892 27.7819C45.474 27.1273 45.9433 26.4526 46.396 25.7571C48.6695 22.2642 50.506 18.3182 51.8548 14.0284C53.2725 9.51873 53.8038 5.72284 53.9998 3.33209L53.9925 3.33163V3.32842L53.992 3.3282ZM10.7855 20.5843C9.23057 20.1968 7.40374 20.1335 5.41896 20.391C16.07 10.1404 20.6654 10.1322 24.7403 10.1258H24.7766C22.1812 12.2415 19.9522 14.6239 18.1253 17.2415C16.8604 19.0533 15.7867 20.9827 14.9064 23.0181C13.9184 21.8475 12.5158 21.0158 10.785 20.5842L10.7855 20.5843ZM16.5617 43.0992L16.5691 43.1066C16.4221 43.2535 16.227 43.3343 16.019 43.3343C15.8115 43.3343 15.6159 43.2535 15.469 43.1066L10.8939 38.5321C10.5909 38.2292 10.5909 37.7357 10.8939 37.4323L14.2706 34.0564L19.9385 39.7234L16.5617 43.0992ZM33.3913 48.3595C33.6489 46.375 33.586 44.5484 33.1981 42.9937C32.7954 41.3802 32.0448 40.0522 30.9962 39.079C33.0309 38.1976 34.9593 37.1234 36.771 35.8579C39.2943 34.0947 41.599 31.9587 43.6572 29.4799C43.638 33.4521 43.2771 38.0912 33.3914 48.3601L33.3913 48.3595ZM29.7505 38.1686C29.7399 38.1626 29.7298 38.1562 29.7188 38.1507L29.6963 38.1906C27.437 39.1037 24.9779 39.7987 22.3041 40.227L13.7663 31.6905C16.2037 16.4721 27.3179 8.20013 37.9324 4.24453L49.7574 16.0678C46.5028 24.8049 40.3244 33.8739 29.7509 38.1691L29.7505 38.1686ZM50.246 14.6947L39.3048 3.75514C43.3968 2.36421 47.354 1.60494 50.6422 1.32396C50.6739 1.3258 50.7055 1.3258 50.7381 1.32304C51.267 1.27576 51.7854 1.46351 52.1609 1.83901C52.5282 2.20625 52.7169 2.71395 52.6792 3.23181C52.6769 3.26119 52.6774 3.29011 52.6792 3.31857C52.4001 6.61772 51.6408 10.5889 50.246 14.6947Z" fill="white"></path>
  <path d="M38.6728 15.0771C37.2922 13.6967 35.4567 12.9365 33.5045 12.9365C31.5519 12.9365 29.7167 13.6967 28.3362 15.0771C26.9556 16.4574 26.1953 18.2927 26.1953 20.2446C26.1953 22.1969 26.9556 24.0318 28.3362 25.4122C29.7167 26.7925 31.5523 27.5527 33.5045 27.5527C35.4571 27.5527 37.2922 26.7925 38.6728 25.4122C40.0533 24.0318 40.8137 22.1966 40.8137 20.2446C40.8137 18.2927 40.0534 16.4574 38.6728 15.0771ZM37.7422 24.482C36.6104 25.6136 35.1054 26.237 33.5045 26.237C31.9036 26.237 30.399 25.6136 29.2668 24.482C26.9304 22.1459 26.9304 18.3445 29.2668 16.008C30.3985 14.8765 31.9036 14.2531 33.5045 14.2531C35.1054 14.2531 36.61 14.8764 37.7422 16.008C40.0786 18.3446 40.0786 22.1459 37.7422 24.482Z" fill="white"></path>
  <path d="M16.4414 46.123C16.08 46.0808 15.7536 46.3401 15.7123 46.701C15.524 48.3291 14.6825 49.6637 13.212 50.6671C10.0749 52.8067 4.65039 53.0129 1.64917 52.3514C0.987587 49.3506 1.19373 43.9269 3.33366 40.7902C4.33729 39.3194 5.67199 38.478 7.30042 38.2898C7.66128 38.2481 7.92022 37.9217 7.87845 37.5609C7.83667 37.2001 7.51024 36.9412 7.14892 36.9829C5.12417 37.2171 3.47411 38.2489 2.24554 40.0489C-0.316341 43.8035 -0.332914 50.0195 0.462788 53.0509C0.463247 53.0523 0.463247 53.0537 0.463706 53.0551C0.464624 53.0583 0.465543 53.0619 0.466461 53.0652C0.469216 53.0748 0.472429 53.0844 0.475184 53.0936C0.47748 53.101 0.479316 53.1092 0.48253 53.1166C0.495844 53.1556 0.51329 53.1919 0.533033 53.2263C0.534869 53.229 0.536246 53.2313 0.538083 53.2345C0.546806 53.2492 0.555988 53.263 0.565171 53.2768C0.567925 53.2809 0.571139 53.285 0.574353 53.2892C0.583076 53.3011 0.592259 53.3126 0.601442 53.3236C0.605574 53.3287 0.609706 53.3332 0.613838 53.3383C0.622561 53.3484 0.631743 53.3576 0.640926 53.3668C0.645976 53.3718 0.651026 53.3769 0.656535 53.3819C0.666177 53.3906 0.675817 53.3989 0.685459 53.4067C0.690968 53.4113 0.696478 53.4163 0.702446 53.4205C0.717138 53.4315 0.732289 53.442 0.748357 53.4526C0.755243 53.4567 0.762589 53.4609 0.769935 53.465C0.780036 53.471 0.790137 53.4769 0.800696 53.482C0.808042 53.4861 0.815387 53.4893 0.823192 53.493C0.83467 53.498 0.846608 53.5036 0.858544 53.5081C0.864972 53.5109 0.871858 53.5132 0.878286 53.5155C0.894355 53.5215 0.910425 53.5265 0.926952 53.5311C0.929248 53.5316 0.931544 53.5329 0.934298 53.5334C0.935676 53.5339 0.937053 53.5339 0.93843 53.5343C0.940267 53.5348 0.942103 53.5352 0.94394 53.5357C2.02149 53.8189 3.5017 53.9998 5.13154 53.9998C8.08598 53.9998 11.5311 53.4062 13.9521 51.7546C15.7527 50.5262 16.7844 48.8769 17.0181 46.852C17.0617 46.4912 16.8027 46.1648 16.4414 46.123Z" fill="white"></path>
</svg>
