<?xml version="1.0" encoding="UTF-8"?>
<svg xmlns="http://www.w3.org/2000/svg" xmlns:xlink="http://www.w3.org/1999/xlink" id="Livello_1" viewBox="0 0 595.28 841.89">
  <defs>
    <style>.cls-1{fill:none;}.cls-2{clip-path:url(#clippath);}.cls-3{fill:#fff;}.cls-4{clip-path:url(#clippath-1);}.cls-5{clip-path:url(#clippath-2);}</style>
    <clipPath id="clippath">
      <rect class="cls-1" width="595.28" height="841.89"></rect>
    </clipPath>
    <clipPath id="clippath-1">
      <rect class="cls-1" width="595.28" height="841.89"></rect>
    </clipPath>
    <clipPath id="clippath-2">
      <rect class="cls-1" width="595.28" height="841.89"></rect>
    </clipPath>
  </defs>
  <g class="cls-2">
    <path class="cls-3" d="m89.07,460.84c-2.48.86-5.5,1.29-9.06,1.29-2.86,0-5.43-.3-7.72-.89-2.28-.6-4.21-1.42-5.78-2.47-1.57-1.05-2.77-2.28-3.61-3.69-.84-1.41-1.26-2.94-1.26-4.57s.42-3.23,1.26-4.67c.84-1.43,2.04-2.69,3.61-3.76,1.57-1.07,3.5-1.91,5.78-2.51,2.29-.61,4.86-.91,7.72-.91s5.48.31,7.75.91c2.27.61,4.18,1.45,5.76,2.51,1.57,1.07,2.77,2.32,3.61,3.76.84,1.43,1.25,2.99,1.25,4.67s-.42,3.15-1.25,4.56c-.84,1.4-2.04,2.64-3.61,3.71l4.66,2.55-3.82,2.39-5.29-2.86Zm-1.2-5.19c.69-.57,1.26-1.27,1.67-2.1.42-.84.63-1.86.63-3.05,0-.98-.18-1.94-.55-2.86-.37-.92-.95-1.74-1.75-2.47-.8-.72-1.85-1.3-3.14-1.73-1.29-.43-2.86-.64-4.71-.64s-3.42.22-4.71.64c-1.29.43-2.34,1.01-3.14,1.73-.8.72-1.39,1.55-1.75,2.47-.37.92-.55,1.88-.55,2.86s.18,1.86.55,2.75c.37.89.95,1.69,1.75,2.4.8.71,1.85,1.28,3.14,1.71s2.86.64,4.71.64c.59,0,1.22,0,1.89-.03.66-.02,1.13-.12,1.41-.28l-3.51-1.92,3.82-2.45,4.24,2.33Z"></path>
    <path class="cls-3" d="m121.52,461.62v-2.26h-.16c-.94.94-2.17,1.62-3.67,2.04-1.5.42-3.04.63-4.61.63-1.99,0-3.62-.16-4.9-.47-1.27-.31-2.28-.76-3.01-1.33-.73-.58-1.25-1.28-1.54-2.11-.3-.83-.44-1.74-.44-2.75v-10h7.43v9.18c0,1.34.35,2.34,1.05,3,.7.66,1.94.99,3.72.99,2.02,0,3.49-.36,4.4-1.08.91-.72,1.36-1.91,1.36-3.57v-8.52h7.43v16.25h-7.07Z"></path>
    <path class="cls-3" d="m135.24,447.76c.77-.69,1.75-1.25,2.93-1.67,1.19-.42,2.52-.72,4.01-.9,1.48-.18,2.98-.27,4.48-.27,1.36,0,2.74.06,4.13.17,1.4.11,2.67.34,3.82.68,1.15.33,2.09.8,2.82,1.4.73.6,1.1,1.39,1.1,2.37v8.46c0,.73.07,1.43.21,2.11.14.67.38,1.17.73,1.51h-7.54c-.14-.25-.25-.51-.34-.77-.09-.26-.15-.53-.18-.8-1.19.73-2.58,1.25-4.19,1.54-1.61.29-3.25.44-4.92.44-1.29,0-2.5-.1-3.61-.28-1.12-.19-2.1-.48-2.93-.88-.84-.4-1.49-.9-1.96-1.51-.47-.61-.71-1.33-.71-2.17,0-.92.27-1.68.81-2.28.54-.6,1.24-1.07,2.09-1.43.85-.36,1.83-.62,2.93-.8,1.1-.18,2.21-.32,3.32-.42,1.12-.1,2.22-.19,3.3-.25,1.08-.06,2.04-.16,2.88-.28.84-.13,1.5-.31,1.99-.55.49-.24.71-.59.68-1.05,0-.48-.13-.86-.39-1.15-.26-.28-.61-.5-1.05-.66-.44-.16-.94-.26-1.52-.32-.58-.05-1.19-.08-1.86-.08-1.47,0-2.62.19-3.46.57-.84.38-1.33,1-1.46,1.88h-7.43c.1-1.05.54-1.92,1.31-2.61m14.68,6.3c-.47.1-.98.17-1.52.24-.54.06-1.11.12-1.7.16-.59.04-1.19.09-1.78.16-.56.06-1.11.15-1.65.25-.54.11-1.01.25-1.41.42-.4.18-.72.4-.97.68-.24.27-.37.62-.37,1.04,0,.4.12.73.37,1.01.25.27.58.49,1,.64.42.16.91.27,1.47.33.56.06,1.13.09,1.73.09,1.46,0,2.6-.15,3.4-.44.8-.29,1.4-.64,1.78-1.05.38-.41.62-.82.71-1.24.09-.42.13-.76.13-1.01v-1.67c-.32.17-.71.3-1.18.39"></path>
    <path class="cls-3" d="m183.5,459.55c-.87.88-2.01,1.51-3.43,1.9-1.41.39-3.01.58-4.79.58-2.03,0-3.8-.24-5.34-.71-1.54-.47-2.8-1.11-3.79-1.92-.99-.81-1.75-1.73-2.25-2.78-.51-1.05-.76-2.14-.76-3.27s.25-2.14.76-3.16c.51-1.02,1.26-1.91,2.25-2.69.99-.77,2.24-1.4,3.74-1.87,1.5-.47,3.25-.71,5.24-.71,1.61,0,3.13.2,4.58.61,1.45.41,2.59,1.01,3.43,1.81h.1v-8.17h7.43v22.44h-7.07v-2.07h-.1Zm-.31-8.03c-.21-.62-.57-1.16-1.07-1.63-.51-.47-1.16-.85-1.96-1.15-.8-.29-1.82-.44-3.04-.44s-2.25.15-3.09.44c-.84.29-1.51.68-2.02,1.16-.51.48-.87,1.03-1.1,1.65-.23.62-.34,1.26-.34,1.93,0,.63.12,1.26.37,1.89.24.63.64,1.19,1.18,1.68.54.49,1.22.89,2.04,1.2.82.3,1.81.46,2.96.46,1.22,0,2.24-.15,3.06-.44.82-.29,1.48-.69,1.96-1.18.49-.49.84-1.05,1.05-1.68.21-.63.31-1.28.31-1.95s-.1-1.32-.31-1.93"></path>
    <path class="cls-3" d="m203.34,445.37v3.02h.1c.35-.5.82-.97,1.41-1.4.59-.43,1.27-.8,2.04-1.1.76-.3,1.59-.54,2.46-.71.87-.17,1.78-.25,2.72-.25.49,0,1.03.05,1.62.16v4.15c-.35-.04-.77-.08-1.26-.11-.49-.03-.96-.05-1.41-.05-1.36,0-2.51.14-3.46.41-.94.27-1.7.64-2.28,1.11-.58.47-.99,1.02-1.23,1.65-.24.63-.37,1.31-.37,2.04v7.32h-7.43v-16.25h7.07Z"></path>
  </g>
  <path class="cls-3" d="m216.84,439.18h7.43v3.68h-7.43v-3.68Zm7.43,22.44h-7.43v-16.25h7.43v16.25Z"></path>
  <g class="cls-4">
    <path class="cls-3" d="m227.31,448.36v-2.99h4.45v-1.26c0-1.45.75-2.63,2.25-3.55,1.5-.92,3.77-1.38,6.81-1.38.66,0,1.33.02,1.99.05.66.03,1.31.06,1.94.08v3.33c-.87-.06-1.78-.09-2.72-.09-1.01,0-1.74.14-2.17.42-.43.29-.65.76-.65,1.43v.97h5.13v2.99h-5.13v13.26h-7.43v-13.26h-4.45Z"></path>
    <path class="cls-3" d="m247.73,449.98c.66-1.06,1.61-1.96,2.83-2.7,1.22-.74,2.69-1.32,4.4-1.73,1.71-.41,3.63-.61,5.76-.61s4.06.2,5.78.61c1.73.41,3.2.98,4.43,1.73,1.22.74,2.16,1.64,2.83,2.7.66,1.06.99,2.24.99,3.54s-.33,2.47-.99,3.52c-.66,1.05-1.6,1.94-2.83,2.69-1.22.74-2.7,1.31-4.43,1.71-1.73.4-3.65.6-5.78.6s-4.05-.2-5.76-.6c-1.71-.4-3.18-.97-4.4-1.71-1.22-.74-2.17-1.64-2.83-2.69-.66-1.05-.99-2.22-.99-3.52s.33-2.48.99-3.54m6.75,5.44c.21.62.57,1.18,1.07,1.67.51.49,1.18.88,2.02,1.18.84.29,1.88.44,3.14.44s2.31-.15,3.17-.44c.85-.29,1.54-.69,2.04-1.18.5-.49.86-1.05,1.07-1.67.21-.62.32-1.25.32-1.9s-.11-1.29-.32-1.92c-.21-.63-.57-1.18-1.07-1.66-.51-.48-1.19-.88-2.04-1.18-.86-.3-1.91-.46-3.17-.46s-2.3.15-3.14.46c-.84.3-1.51.7-2.02,1.18-.5.48-.86,1.04-1.07,1.66-.21.63-.31,1.27-.31,1.92s.1,1.28.31,1.9"></path>
    <path class="cls-3" d="m305.12,462.81c-.3.84-.93,1.62-1.91,2.34-.98.72-2.39,1.33-4.24,1.84-1.85.5-4.33.75-7.43.75-1.33,0-2.68-.1-4.06-.3-1.38-.2-2.63-.51-3.77-.93-1.14-.42-2.08-.96-2.83-1.62-.75-.66-1.18-1.45-1.28-2.37h7.38c.35.84,1.03,1.42,2.04,1.74,1.01.32,2.18.49,3.51.49,2.09,0,3.62-.38,4.58-1.13.96-.76,1.42-1.71,1.39-2.86v-2.14h-.11c-.8.86-1.95,1.49-3.43,1.9-1.48.41-3.05.61-4.69.61-2.02,0-3.77-.22-5.23-.65-1.47-.43-2.67-1.02-3.61-1.76-.94-.74-1.63-1.61-2.07-2.61s-.65-2.05-.65-3.16c0-1.05.25-2.06.76-3.03.51-.98,1.25-1.83,2.23-2.58.98-.74,2.19-1.34,3.64-1.78,1.45-.44,3.11-.66,5-.66,1.78,0,3.34.2,4.68.6,1.34.4,2.47,1.07,3.38,2.01h.11v-2.17h7.07v15.21c0,.65-.15,1.39-.44,2.23m-10.18-5.41c.8-.25,1.46-.59,1.99-1.01.52-.42.92-.9,1.18-1.43.26-.53.39-1.1.39-1.68,0-.67-.11-1.3-.32-1.9-.21-.6-.56-1.13-1.05-1.59-.49-.46-1.14-.83-1.94-1.1-.8-.27-1.82-.41-3.04-.41-1.05,0-1.94.12-2.7.38-.75.25-1.38.59-1.88,1.02-.51.43-.87.92-1.1,1.48-.23.55-.34,1.14-.34,1.74s.1,1.17.29,1.74c.19.58.52,1.1.99,1.56.47.46,1.09.84,1.86,1.13.77.29,1.73.44,2.88.44,1.05,0,1.97-.13,2.78-.38"></path>
  </g>
  <rect class="cls-3" x="311.74" y="439.18" width="7.43" height="22.44"></rect>
  <path class="cls-3" d="m325.25,439.18h7.43v3.68h-7.43v-3.68Zm7.43,22.44h-7.43v-16.25h7.43v16.25Z"></path>
  <g class="cls-5">
    <path class="cls-3" d="m338.7,449.98c.66-1.06,1.61-1.96,2.83-2.7,1.22-.74,2.69-1.32,4.4-1.73,1.71-.41,3.63-.61,5.76-.61s4.06.2,5.78.61c1.73.41,3.2.98,4.43,1.73,1.22.74,2.16,1.64,2.83,2.7.66,1.06.99,2.24.99,3.54s-.33,2.47-.99,3.52c-.66,1.05-1.6,1.94-2.83,2.69-1.22.74-2.7,1.31-4.43,1.71-1.73.4-3.65.6-5.78.6s-4.05-.2-5.76-.6c-1.71-.4-3.18-.97-4.4-1.71-1.22-.74-2.16-1.64-2.83-2.69-.66-1.05-.99-2.22-.99-3.52s.33-2.48.99-3.54m6.75,5.44c.21.62.57,1.18,1.07,1.67.51.49,1.18.88,2.02,1.18.84.29,1.88.44,3.14.44s2.31-.15,3.17-.44c.85-.29,1.54-.69,2.04-1.18.5-.49.86-1.05,1.07-1.67.21-.62.32-1.25.32-1.9s-.11-1.29-.32-1.92c-.21-.63-.57-1.18-1.07-1.66-.51-.48-1.19-.88-2.04-1.18-.86-.3-1.91-.46-3.17-.46s-2.3.15-3.14.46c-.84.3-1.51.7-2.02,1.18-.5.48-.86,1.04-1.07,1.66-.21.63-.31,1.27-.31,1.92s.11,1.28.31,1.9"></path>
    <path class="cls-3" d="m408.01,461.45c-1.78.45-3.58.68-5.39.68-2.86,0-5.44-.3-7.72-.9-2.29-.6-4.21-1.42-5.78-2.47-1.57-1.05-2.77-2.28-3.61-3.69-.84-1.42-1.26-2.94-1.26-4.57s.42-3.23,1.26-4.67c.84-1.44,2.04-2.69,3.61-3.76,1.57-1.07,3.5-1.91,5.78-2.52,2.29-.61,4.86-.91,7.72-.91,1.92,0,3.78.17,5.58.52,1.79.35,3.42.85,4.87,1.53,1.45.67,2.64,1.5,3.59,2.48.94.98,1.52,2.12,1.73,3.39h-7.85c-.49-1.26-1.43-2.2-2.83-2.83-1.4-.63-3.09-.94-5.08-.94-1.85,0-3.42.22-4.71.65-1.29.43-2.34,1-3.14,1.73-.8.72-1.39,1.54-1.75,2.47-.37.92-.55,1.88-.55,2.86s.18,1.86.55,2.75c.37.89.95,1.69,1.75,2.4.8.71,1.85,1.28,3.14,1.71,1.29.43,2.86.64,4.71.64,2.72,0,4.82-.41,6.31-1.24,1.48-.83,2.35-2.03,2.59-3.6h-8.27v-3.68h15.7v12.13h-5.23l-.84-2.55c-1.46,1.13-3.09,1.92-4.87,2.37"></path>
    <path class="cls-3" d="m431.88,445.37v3.02h.1c.35-.5.82-.97,1.41-1.4.59-.43,1.27-.8,2.04-1.1.77-.3,1.59-.54,2.46-.71s1.78-.25,2.72-.25c.49,0,1.03.05,1.62.16v4.15c-.35-.04-.77-.08-1.26-.11-.49-.03-.96-.05-1.41-.05-1.36,0-2.51.14-3.45.41-.94.27-1.7.64-2.28,1.11-.58.47-.99,1.02-1.23,1.65-.24.63-.37,1.31-.37,2.04v7.32h-7.43v-16.25h7.07Z"></path>
    <path class="cls-3" d="m444.39,449.98c.66-1.06,1.61-1.96,2.83-2.7,1.22-.74,2.69-1.32,4.4-1.73,1.71-.41,3.63-.61,5.76-.61s4.06.2,5.78.61c1.73.41,3.2.98,4.42,1.73,1.22.74,2.16,1.64,2.83,2.7.66,1.06.99,2.24.99,3.54s-.33,2.47-.99,3.52c-.66,1.05-1.6,1.94-2.83,2.69-1.22.74-2.7,1.31-4.42,1.71-1.73.4-3.65.6-5.78.6s-4.05-.2-5.76-.6c-1.71-.4-3.18-.97-4.4-1.71-1.22-.74-2.16-1.64-2.83-2.69-.66-1.05-.99-2.22-.99-3.52s.33-2.48.99-3.54m6.75,5.44c.21.62.57,1.18,1.07,1.67.51.49,1.18.88,2.02,1.18.84.29,1.88.44,3.14.44s2.31-.15,3.17-.44c.85-.29,1.54-.69,2.04-1.18.5-.49.86-1.05,1.07-1.67.21-.62.32-1.25.32-1.9s-.11-1.29-.32-1.92c-.21-.63-.57-1.18-1.07-1.66-.51-.48-1.19-.88-2.04-1.18-.86-.3-1.91-.46-3.17-.46s-2.3.15-3.14.46c-.84.3-1.51.7-2.02,1.18-.51.48-.86,1.04-1.07,1.66-.21.63-.31,1.27-.31,1.92s.11,1.28.31,1.9"></path>
    <path class="cls-3" d="m494.53,461.62v-2.26h-.16c-.94.94-2.17,1.62-3.67,2.04-1.5.42-3.04.63-4.61.63-1.99,0-3.62-.16-4.9-.47-1.27-.31-2.28-.76-3.01-1.33-.73-.58-1.25-1.28-1.54-2.11-.3-.83-.45-1.74-.45-2.75v-10h7.43v9.18c0,1.34.35,2.34,1.05,3,.7.66,1.94.99,3.72.99,2.02,0,3.49-.36,4.4-1.08.91-.72,1.36-1.91,1.36-3.57v-8.52h7.43v16.25h-7.07Z"></path>
    <path class="cls-3" d="m514.32,445.37v2.07h.1c.91-.88,2.06-1.52,3.46-1.92,1.39-.4,2.93-.6,4.61-.6,2.13,0,3.96.24,5.5.72,1.53.48,2.81,1.12,3.82,1.92,1.01.8,1.76,1.72,2.25,2.78.49,1.06.73,2.17.73,3.32,0,1.09-.25,2.14-.73,3.14-.49,1-1.23,1.9-2.22,2.67-.99.77-2.23,1.39-3.72,1.85-1.49.46-3.22.69-5.21.69-1.67,0-3.22-.2-4.63-.61-1.41-.41-2.57-1.01-3.48-1.81h-.1v7.7h-7.43v-21.94h7.07Zm9.66,12.89c.82-.29,1.48-.68,1.99-1.15.51-.47.86-1.02,1.08-1.65.21-.63.31-1.27.31-1.92s-.11-1.29-.34-1.92c-.23-.63-.6-1.19-1.13-1.68-.52-.49-1.2-.89-2.02-1.19-.82-.3-1.83-.45-3.01-.45s-2.24.15-3.06.45c-.82.3-1.48.7-1.99,1.18-.51.48-.86,1.04-1.07,1.66-.21.63-.32,1.28-.32,1.95s.11,1.29.34,1.92c.23.63.59,1.18,1.1,1.65.51.47,1.18.85,2.02,1.15.84.29,1.85.44,3.03.44s2.24-.15,3.06-.44"></path>
    <path class="cls-3" d="m298.51,412.56c.12-.12.18-.2.34-.2.17,0,.22.08.34.19,1.1,1.12,2.64,1.82,4.36,1.82,3.34,0,6.03-2.62,6.03-5.85,0-1.62-.68-3.09-1.79-4.15h0l-8.94-8.53-8.94,8.53c-1.1,1.06-1.79,2.53-1.79,4.15,0,3.23,2.7,5.85,6.03,5.85,1.72,0,3.27-.7,4.36-1.82"></path>
    <path class="cls-3" d="m317.31,394.9c-.12-.12-.2-.18-.2-.33,0-.16.08-.21.2-.32,1.15-1.06,1.87-2.57,1.87-4.24,0-3.23-2.7-5.85-6.02-5.85-1.68,0-3.19.66-4.28,1.73l-8.8,8.67,8.8,8.67c1.09,1.07,2.6,1.73,4.28,1.73,3.32,0,6.02-2.62,6.02-5.85,0-1.66-.72-3.17-1.87-4.23"></path>
    <path class="cls-3" d="m299.1,376.67c-.12.12-.19.2-.34.2-.17,0-.22-.07-.34-.19-1.1-1.12-2.65-1.82-4.36-1.82-3.33,0-6.03,2.62-6.03,5.85,0,1.62.68,3.09,1.79,4.14h0s8.95,8.54,8.95,8.54l8.94-8.54h0c1.11-1.06,1.79-2.52,1.79-4.15,0-3.23-2.69-5.85-6.02-5.85-1.71,0-3.27.7-4.36,1.81"></path>
    <path class="cls-3" d="m280.31,394.33c.12.12.21.18.21.33s-.08.21-.2.32c-1.15,1.07-1.88,2.57-1.88,4.23,0,3.23,2.69,5.85,6.03,5.85,1.67,0,3.18-.66,4.28-1.73h0s8.79-8.67,8.79-8.67l-8.79-8.68h0c-1.1-1.07-2.61-1.73-4.28-1.73-3.33,0-6.03,2.62-6.03,5.85,0,1.67.72,3.16,1.87,4.23"></path>
  </g>
</svg>
