<?xml version="1.0" encoding="UTF-8"?>
<svg xmlns="http://www.w3.org/2000/svg" id="Livello_1" data-name="Livello 1" viewBox="0 0 100 125">
  <defs>
    <style>
      .cls-1 {
        fill: #5458f6;
      }
    </style>
  </defs>
  <path class="cls-1" d="m84.52,28.55l-2.1-3.96-.37,4.46c-.42,5.18-5.13,8.02-9.18,9.92-1.69.79-3.43,1.55-5.12,2.28-3.51,1.53-7.14,3.11-10.56,5.08-5.7,3.26-9.68,7.08-11.85,11.36-.43.85-.8,1.66-1.15,2.47-2.02-1.75-4.5-3.16-7.39-4.18-12.05-4.28-19.84-8.27-21.4-13.47-.71,1.3-1.01,2.68-1.01,2.68-.06.25-3.78,25.65,10.05,32.38,4.79,2.33,9.05,3.82,12.47,5.02,5.9,2.06,9.8,3.42,11.57,7.21l.35.75.85.02h.81l.38-.75c.32-.64.33-3.87-1.63-8.18l.27.37.65-2.76s.18-.8.3-2h.1s.29,0,.29,0c9,0,17.34-3.09,23.48-8.71,6.45-5.9,10.77-14.53,12.18-24.3.96-5.61.21-11.49-2.02-15.7Zm-34.82,60.71s-.01,0-.02-.02c-3.15-6.7-11.58-6.48-24.65-12.85-12.86-6.26-9.38-30.91-9.35-30.91,0,0,0,0,0,.02-.23,2.11,9,7.57,20.7,11.72,4,1.42,6.79,3.45,8.73,5.7,1.32,1.54,2.24,3.16,2.88,4.78.53,1.36.87,2.7,1.07,3.97.18,1.16.25,2.25.25,3.22,0,2.42-.38,4.07-.38,4.07-1.18-1.61-2.38-2.99-3.57-4.22-4.31-4.44-8.35-6.47-10.44-7.24-.62-.23-1.07-.36-1.29-.4-.07-.01-.12-.02-.15-.02s-.03,0-.01.02c.5.3.98.61,1.45.91,3.34,2.16,5.93,4.39,7.95,6.56.75.8,1.43,1.6,2.03,2.38,5.18,6.75,5,12.31,4.81,12.31Zm35.55-45.2c-1.27,8.82-5.11,17.44-11.76,23.52-6.22,5.69-14.31,8.37-22.59,8.37-.09,0-.19,0-.28,0,.02-.38.03-.78.03-1.21,0-1.13-.09-2.27-.27-3.38-.12-.78-.29-1.53-.49-2.27,1.08-1.75,2.44-3.33,4.02-4.75,3.3-2.95,7.15-5.13,10.68-7.79-3.94,2.28-8.07,4.23-11.81,6.85-1.34.94-2.64,1.98-3.8,3.13-.72-1.63-1.64-3.14-2.8-4.49-.29-.34-.6-.67-.92-.99.39-.94.82-1.85,1.28-2.76,2.37-4.68,6.87-8.27,11.33-10.82,4.99-2.87,10.38-4.88,15.57-7.31,4.7-2.2,9.47-5.35,9.93-11,2.32,4.37,2.71,10.08,1.88,14.9Z"></path>
</svg>
