<?xml version="1.0" encoding="UTF-8"?>
<svg xmlns="http://www.w3.org/2000/svg" width="90" height="90" viewBox="0 0 90 90" fill="none">
  <path d="M44.8666 89.4741C48.7085 89.4741 51.823 69.5686 51.823 45.0139C51.823 20.4592 48.7085 0.553711 44.8666 0.553711C41.0247 0.553711 37.9102 20.4592 37.9102 45.0139C37.9102 69.5686 41.0247 89.4741 44.8666 89.4741Z" stroke="#5458F6" stroke-miterlimit="10"></path>
  <path d="M44.866 51.9934C69.3396 51.9934 89.1793 48.8686 89.1793 45.0139C89.1793 41.1592 69.3396 38.0344 44.866 38.0344C20.3925 38.0344 0.552734 41.1592 0.552734 45.0139C0.552734 48.8686 20.3925 51.9934 44.866 51.9934Z" stroke="#5458F6" stroke-miterlimit="10"></path>
  <path d="M51.3334 47.5485C60.2633 24.6867 64.6026 5.01335 61.0255 3.60687C57.4485 2.2004 47.3097 19.5934 38.3798 42.4552C29.45 65.3169 25.1107 84.9903 28.6877 86.3967C32.2648 87.8032 42.4036 70.4102 51.3334 47.5485Z" stroke="#5458F6" stroke-miterlimit="10"></path>
  <path d="M84.927 60.7118C86.3101 57.127 68.9804 47.0549 46.22 38.2152C23.4596 29.3756 3.8874 25.1157 2.50431 28.7005C1.12122 32.2853 18.451 42.3574 41.2114 51.1971C63.9718 60.0368 83.5439 64.2967 84.927 60.7118Z" stroke="#5458F6" stroke-width="0.997246" stroke-miterlimit="10"></path>
  <path d="M49.7854 49.9458C67.0908 32.583 78.9173 16.2981 76.2007 13.5724C73.484 10.8468 57.2529 22.7125 39.9475 40.0753C22.6421 57.4381 10.8156 73.723 13.5322 76.4487C16.2489 79.1743 32.48 67.3086 49.7854 49.9458Z" stroke="#5458F6" stroke-miterlimit="10"></path>
  <path d="M76.2007 76.4486C78.9173 73.7229 67.0908 57.438 49.7854 40.0752C32.48 22.7124 16.2489 10.8467 13.5322 13.5723C10.8156 16.298 22.6421 32.5829 39.9475 49.9457C57.2529 67.3085 73.484 79.1742 76.2007 76.4486Z" stroke="#5458F6" stroke-miterlimit="10"></path>
  <path d="M47.48 51.4742C70.1571 42.2401 87.3692 31.859 85.9244 28.2873C84.4796 24.7156 64.925 29.3058 42.2479 38.5399C19.5709 47.774 2.35874 58.1552 3.80355 61.7269C5.24835 65.2986 24.803 60.7083 47.48 51.4742Z" stroke="#5458F6" stroke-miterlimit="10"></path>
  <path d="M61.5288 86.2037C65.0887 84.7541 60.5136 65.1347 51.31 42.3824C42.1064 19.6302 31.7596 2.36099 28.1997 3.81058C24.6398 5.26017 29.2149 24.8796 38.4185 47.6319C47.6221 70.3841 57.9689 87.6533 61.5288 86.2037Z" stroke="#5458F6" stroke-miterlimit="10"></path>
  <path d="M54.1121 88.5567C57.8748 87.7783 56.9189 67.6518 51.9769 43.603C47.0348 19.5541 39.9782 0.689674 36.2155 1.46806C32.4527 2.24644 33.4086 22.3729 38.3506 46.4217C43.2927 70.4706 50.3493 89.335 54.1121 88.5567Z" stroke="#5458F6" stroke-miterlimit="10"></path>
  <path d="M46.5692 51.8482C70.5386 46.8898 89.3407 39.8098 88.5649 36.0345C87.7891 32.2593 67.7292 33.2184 43.7598 38.1768C19.7904 43.1352 0.988293 50.2152 1.7641 53.9905C2.53991 57.7657 22.5999 56.8066 46.5692 51.8482Z" stroke="#5458F6" stroke-miterlimit="10"></path>
  <path d="M52.0054 46.1819C56.15 21.9819 56.4403 1.83468 52.6539 1.1819C48.8674 0.529115 42.4381 19.6179 38.2935 43.818C34.1489 68.018 33.8586 88.1652 37.645 88.818C41.4314 89.4707 47.8608 70.3819 52.0054 46.1819Z" stroke="#5458F6" stroke-miterlimit="10"></path>
  <path d="M88.8214 52.5293C89.472 48.7303 70.4463 42.2797 46.3262 38.1213C22.2062 33.963 2.12557 33.6717 1.47494 37.4707C0.824314 41.2697 19.85 47.7204 43.9701 51.8787C68.0902 56.037 88.1708 56.3283 88.8214 52.5293Z" stroke="#5458F6" stroke-miterlimit="10"></path>
  <path d="M51.5571 47.8855C65.0176 27.2596 73.3133 8.82031 70.0861 6.70025C66.8588 4.58018 53.3308 19.5822 39.8704 40.2081C26.4099 60.8341 18.1142 79.2733 21.3414 81.3934C24.5686 83.5135 38.0967 68.5115 51.5571 47.8855Z" stroke="#5458F6" stroke-width="1.00404" stroke-miterlimit="10"></path>
  <path d="M82.1808 69.4527C84.2929 66.2328 69.4324 52.6795 48.989 39.1805C28.5455 25.6815 10.2606 17.3486 8.14852 20.5685C6.03642 23.7884 20.8969 37.3418 41.3403 50.8408C61.7838 64.3398 80.0687 72.6726 82.1808 69.4527Z" stroke="#5458F6" stroke-miterlimit="10"></path>
  <path d="M49.0262 50.8102C69.3776 37.1719 84.1458 23.5174 82.0119 20.312C79.878 17.1066 61.6501 25.5641 41.2987 39.2024C20.9473 52.8407 6.17909 66.4952 8.31299 69.7006C10.4469 72.906 28.6748 64.4485 49.0262 50.8102Z" stroke="#5458F6" stroke-miterlimit="10"></path>
  <path d="M69.7758 81.978C72.9706 79.8371 64.541 61.5487 50.9478 41.1298C37.3546 20.711 23.7452 5.89382 20.5504 8.0348C17.3555 10.1758 25.7851 28.4641 39.3783 48.883C52.9716 69.3019 66.581 84.119 69.7758 81.978Z" stroke="#5458F6" stroke-miterlimit="10"></path>
</svg>
