<?xml version="1.0" encoding="UTF-8"?>
<svg xmlns="http://www.w3.org/2000/svg" width="35" height="48" viewBox="0 0 35 48" fill="none">
  <path d="M17.5005 48C16.6929 48 15.939 47.6759 15.3468 47.0821C15.2389 46.9739 0 31.8564 0 18.5195C0 12.4185 1.93837 7.50513 5.65398 4.2113C8.66943 1.5118 12.8694 0 17.5 0C22.1311 0 26.331 1.5118 29.346 4.2113C33.0074 7.50465 35 12.418 35 18.5195C35 31.4236 20.7303 46.0559 19.7069 47.0821C19.168 47.6221 18.3604 48 17.4987 48H17.5005ZM17.5005 2.10658C13.4079 2.10658 9.6928 3.40247 7.10752 5.77788C3.87674 8.63943 2.20741 13.0128 2.20741 18.4666C2.20741 30.7225 16.7466 45.3548 16.854 45.4625C17.0694 45.6785 17.2847 45.7866 17.5 45.7866C17.7154 45.7866 17.9848 45.6785 18.0923 45.5707L18.1461 45.4625C18.3077 45.3005 32.7927 30.6687 32.7927 18.4666C32.7927 13.0132 31.1234 8.6399 27.8926 5.77788C25.3078 3.45633 21.5935 2.10658 17.5005 2.10658ZM17.5005 26.8348C12.5466 26.8348 8.50782 22.7313 8.50782 17.7102C8.50782 12.6887 12.5462 8.53124 17.5005 8.53124C22.4543 8.53124 26.4931 12.6348 26.4931 17.6559C26.4931 22.7313 22.4544 26.8348 17.5005 26.8348ZM17.5005 10.7446C13.7312 10.7446 10.662 13.8764 10.662 17.7636C10.662 21.5969 13.7312 24.7287 17.5005 24.7287C21.2698 24.7287 24.339 21.5969 24.339 17.7097C24.339 13.8764 21.2698 10.7446 17.5005 10.7446Z" fill="white"></path>
</svg>
