<?xml version="1.0" encoding="UTF-8"?>
<svg xmlns="http://www.w3.org/2000/svg" width="33" height="39" viewBox="0 0 33 39" fill="none">
  <path d="M9.14957 38.476C8.65253 38.476 8.25696 38.0819 8.25696 37.5868V36.6975C8.25696 33.6451 7.05174 30.6935 4.93544 28.6126C1.62297 25.3401 -0.14378 20.812 0.0957691 16.1828C0.491341 7.8687 7.89837 0.74638 16.2627 0.626953H16.4928C20.8359 0.626953 24.9304 2.29536 28.0222 5.33875C31.1877 8.44635 32.9265 12.5803 32.9265 16.9891C32.9265 21.4623 31.1412 25.6331 27.9117 28.7495C25.8965 30.7019 24.7372 33.4886 24.7372 36.3946V37.5862C24.7372 38.0814 24.3417 38.4754 23.8446 38.4754C23.3476 38.4754 22.952 38.0814 22.952 37.5862V36.3946C22.952 33.012 24.3046 29.7578 26.6695 27.4662C29.5495 24.6888 31.1412 20.967 31.1412 16.9891C31.1412 13.066 29.586 9.37191 26.7706 6.60352C24.0102 3.89945 20.3572 2.40536 16.4927 2.40536H16.2717C8.82768 2.51544 2.23103 8.85879 1.88085 16.2745C1.66931 20.3995 3.24254 24.4418 6.19642 27.3571C8.64376 29.7679 10.0425 33.1778 10.0425 36.707V37.5962C10.0429 38.0729 9.63825 38.476 9.15026 38.476L9.14957 38.476Z" fill="white"></path>
</svg>
