<?xml version="1.0" encoding="UTF-8"?>
<svg xmlns="http://www.w3.org/2000/svg" width="44" height="56" viewBox="0 0 44 56" fill="none">
  <path d="M18.7921 36.853H25.2048C25.7067 36.853 26.1276 37.2706 26.1276 37.8645V39.9265L17.8697 39.9261V37.8641C17.8697 37.2702 18.2893 36.853 18.7921 36.853ZM20.7409 24.2447H23.3996V26.8696L22.07 28.1901L20.7409 26.8696V24.2447ZM5.90556 23.2075H16.5818C17.0134 23.8262 17.7151 24.2442 18.5196 24.2442H19.2729V27.1706C19.2729 27.3615 19.3503 27.548 19.4869 27.6836L21.3398 29.5229V32.6984C21.3109 33.1209 21.6504 33.4793 22.0748 33.4793C22.5029 33.4793 22.8388 33.1209 22.809 32.6984V29.5229L24.6623 27.6836C24.7984 27.548 24.8763 27.3606 24.8763 27.1706V24.2442H25.4779C26.2832 24.2442 26.9841 23.8262 27.4201 23.2075H38.0919V39.927H27.6004V37.8649C27.6004 36.5268 26.545 35.3898 25.2048 35.3898H18.7922C17.4524 35.3898 16.393 36.5268 16.393 37.8649V39.927H5.90598L5.90556 23.2075ZM27.8739 20.176H38.0913V21.7417L27.8739 21.7412V20.176ZM5.90556 20.176H16.123V21.7417L5.90556 21.7412V20.176ZM18.5197 19.1419H25.4775C25.9798 19.1419 26.4012 19.556 26.4012 20.1499V21.7708C26.4012 22.3648 25.9803 22.7788 25.4775 22.7788H18.5197C18.0174 22.7788 17.596 22.3648 17.596 21.7708V20.1499C17.5965 19.5555 18.0174 19.1419 18.5197 19.1419ZM22.0006 5.84123C27.3646 5.83681 32.7285 5.84123 38.0913 5.86642V18.7168H27.4195C26.9834 18.0973 26.2826 17.6783 25.4772 17.6783H18.5195C17.7141 17.6783 17.0133 18.0973 16.5817 18.7168H5.90545V5.86529C11.2694 5.8591 16.6355 5.84805 22.0006 5.84098V5.84123ZM22.0006 4.37495C16.3902 4.38114 10.7789 4.39263 5.16846 4.40014C4.75821 4.40014 4.42939 4.72672 4.42939 5.13284V40.6601C4.42939 41.0662 4.75821 41.3937 5.16846 41.3937H38.8306C39.2404 41.3937 39.5692 41.0671 39.5692 40.6601V5.13284C39.5692 4.73026 39.2404 4.40014 38.8386 4.40014C33.2237 4.37053 27.6123 4.37053 22.0006 4.37495ZM4.71738 1.46322H39.2816C41.0939 1.46322 42.5262 2.88571 42.5262 4.68561V51.3064C42.5262 52.857 42.3709 53.7475 42.1604 54.082C42.0532 54.2495 41.9611 54.3268 41.7395 54.4037C41.5175 54.4842 41.1598 54.5323 40.6503 54.5323H37.1214L33.3522 48.7221C33.216 48.5131 32.9829 48.384 32.7284 48.3876L11.2624 48.3885C11.015 48.3885 10.7827 48.5131 10.6457 48.723L6.87738 54.5328H3.34851C2.83903 54.5328 2.4804 54.485 2.25926 54.4042C2.03723 54.3273 1.94246 54.2499 1.83477 54.0824C1.62521 53.7479 1.47258 52.8575 1.47258 51.3068V4.68604C1.47302 2.88615 2.90577 1.4632 4.71805 1.4632L4.71738 1.46322ZM4.71738 0C2.11481 0 0 2.10127 0 4.68606V51.3068C0 52.9194 0.0480555 54.0078 0.590898 54.8629C0.860097 55.2881 1.28058 55.6098 1.75754 55.783C2.23008 55.9514 2.75068 56 3.34872 56H7.27593C7.52732 56 7.76359 55.8745 7.9002 55.6628L11.6659 49.8477H32.3345L36.1002 55.6628C36.2368 55.8718 36.4695 56 36.7169 56H40.6521C41.2501 56 41.7636 55.9523 42.2397 55.783C42.7118 55.6098 43.1408 55.2881 43.4091 54.8629C43.9519 54.0078 44 52.9185 44 51.3068V4.68606C44 2.10127 41.8852 0 39.2826 0H4.71738Z" fill="white"></path>
</svg>
