<?xml version="1.0" encoding="UTF-8"?>
<svg xmlns="http://www.w3.org/2000/svg" width="88" height="88" viewBox="0 0 88 88" fill="none">
  <path d="M44 88C35.2976 88 26.7907 85.4194 19.5549 80.5847C12.3191 75.7499 6.67956 68.878 3.34931 60.8381C0.0190518 52.7981 -0.852278 43.9512 0.845472 35.416C2.54322 26.8809 6.73378 19.0408 12.8873 12.8873C19.0408 6.73381 26.8809 2.54322 35.416 0.845468C43.9512 -0.852281 52.7981 0.0190618 60.8381 3.34932C68.878 6.67957 75.7499 12.3192 80.5847 19.5549C85.4194 26.7907 88 35.2976 88 44C87.9872 55.6656 83.3474 66.8498 75.0986 75.0986C66.8497 83.3474 55.6656 87.9872 44 88ZM44 0.442603C35.3841 0.442603 26.9617 2.99757 19.7979 7.78439C12.6341 12.5712 7.05066 19.3749 3.7537 27.335C0.456744 35.2952 -0.405652 44.0542 1.27554 52.5045C2.95674 60.9548 7.10605 68.7167 13.1987 74.8088C19.2914 80.9008 27.0537 85.0493 35.5042 86.7297C43.9546 88.41 52.7136 87.5467 60.6734 84.249C68.6332 80.9512 75.4363 75.3671 80.2224 68.2028C85.0085 61.0386 87.5627 52.6159 87.5618 44C87.549 32.451 82.9553 21.3788 74.7885 13.2128C66.6217 5.04686 55.549 0.454202 44 0.442603Z" fill="#5458F6"></path>
  <path d="M44.0003 86.7073C35.5536 86.7073 27.2965 84.2026 20.2734 79.5099C13.2502 74.8171 7.7763 68.1471 4.54388 60.3434C1.31147 52.5397 0.465728 43.9527 2.1136 35.6683C3.76147 27.3839 7.8289 19.7741 13.8016 13.8014C19.7743 7.8287 27.3841 3.76122 35.6685 2.11335C43.9529 0.465482 52.5399 1.31123 60.3437 4.54364C68.1474 7.77606 74.8173 13.25 79.5101 20.2731C84.2028 27.2963 86.7075 35.5533 86.7075 44C86.6948 55.3228 82.1912 66.1782 74.1848 74.1846C66.1784 82.191 55.323 86.6946 44.0003 86.7073ZM44.0003 1.73095C35.6402 1.73095 27.4679 4.20999 20.5168 8.85457C13.5657 13.4992 8.14795 20.1007 4.94871 27.8244C1.74946 35.548 0.912388 44.0469 2.54335 52.2463C4.17431 60.4457 8.20006 67.9774 14.1115 73.8888C20.0229 79.8002 27.5546 83.826 35.754 85.4569C43.9534 87.0879 52.4523 86.2508 60.176 83.0516C67.8996 79.8523 74.5012 74.4346 79.1457 67.4835C83.7903 60.5324 86.2693 52.3601 86.2693 44C86.2566 32.7935 81.7992 22.0496 73.8749 14.1254C65.9507 6.20114 55.2068 1.74371 44.0003 1.73095Z" fill="#5458F6"></path>
  <path d="M44.0005 84.5864C35.9732 84.5864 28.1263 82.206 21.4519 77.7463C14.7775 73.2866 9.57543 66.9479 6.50354 59.5317C3.43165 52.1155 2.6279 43.955 4.19393 36.082C5.75997 28.209 9.62547 20.9772 15.3016 15.3011C20.9777 9.62496 28.2095 5.75948 36.0825 4.19345C43.9555 2.62741 52.116 3.43116 59.5322 6.50304C66.9484 9.57493 73.2871 14.777 77.7468 21.4514C82.2065 28.1258 84.5869 35.9728 84.5869 44C84.5753 54.7606 80.2955 65.0772 72.6866 72.6861C65.0777 80.295 54.7611 84.5748 44.0005 84.5864ZM44.0005 3.85618C36.0597 3.85618 28.2973 6.21094 21.6949 10.6227C15.0925 15.0344 9.94653 21.305 6.90794 28.6413C3.86935 35.9777 3.07458 44.0504 4.62406 51.8385C6.17354 59.6266 9.99769 66.7803 15.6129 72.395C21.2282 78.0096 28.3824 81.833 36.1706 83.3817C43.9589 84.9303 52.0315 84.1346 59.3675 81.0952C66.7036 78.0558 72.9736 72.9092 77.3846 66.3063C81.7956 59.7034 84.1495 51.9407 84.1487 44C84.1359 33.3563 79.9018 23.1524 72.3752 15.6266C64.8485 8.10078 54.6441 3.86778 44.0005 3.85618Z" fill="#5458F6"></path>
  <path d="M43.9988 81.909C36.5012 81.909 29.1718 79.6857 22.9377 75.5202C16.7036 71.3547 11.8448 65.4341 8.97553 58.5072C6.10629 51.5802 5.35554 43.958 6.81826 36.6044C8.28099 29.2508 11.8915 22.496 17.1932 17.1944C22.4948 11.8927 29.2495 8.28222 36.6031 6.81949C43.9568 5.35677 51.579 6.10749 58.506 8.97673C65.4329 11.846 71.3535 16.7049 75.519 22.939C79.6845 29.1731 81.9078 36.5024 81.9078 44C81.8962 54.0506 77.8985 63.6861 70.7917 70.7929C63.6849 77.8997 54.0494 81.8974 43.9988 81.909ZM43.9988 6.53805C36.5878 6.53805 29.3432 8.73567 23.1812 12.853C17.0192 16.9704 12.2164 22.8225 9.38035 29.6694C6.54428 36.5163 5.80225 44.0504 7.24807 51.319C8.69389 58.5876 12.2626 65.2643 17.503 70.5046C22.7434 75.745 29.4201 79.3138 36.6887 80.7596C43.9573 82.2054 51.4914 81.4633 58.3383 78.6273C65.1852 75.7912 71.0373 70.9885 75.1546 64.8265C79.272 58.6644 81.4696 51.4198 81.4696 44.0088C81.4603 34.073 77.5098 24.5466 70.4849 17.5201C63.4601 10.4936 53.9347 6.54088 43.9988 6.52928V6.53805Z" fill="#5458F6"></path>
  <path d="M43.9985 77.1677C25.4976 77.1677 10.4453 62.2688 10.4453 44.0001C10.4453 25.7314 25.4976 10.8369 43.9985 10.8369C62.4995 10.8369 77.5561 25.7139 77.5561 44.0001C77.5561 62.2864 62.5038 77.1677 43.9985 77.1677ZM43.9985 11.2751C25.7386 11.2751 10.8835 25.9549 10.8835 44.0001C10.8835 62.0454 25.7386 76.7295 43.9985 76.7295C62.2584 76.7295 77.1179 62.0454 77.1179 44.0001C77.1179 25.9549 62.2628 11.2751 43.9985 11.2751Z" fill="#5458F6"></path>
  <path d="M44 72.2597C38.4107 72.2597 32.947 70.6023 28.2997 67.4971C23.6524 64.3919 20.0303 59.9783 17.8914 54.8145C15.7525 49.6507 15.1928 43.9686 16.2832 38.4868C17.3736 33.0049 20.0651 27.9695 24.0173 24.0173C27.9695 20.0651 33.0049 17.3737 38.4868 16.2832C43.9686 15.1928 49.6507 15.7525 54.8145 17.8914C59.9783 20.0303 64.3919 23.6524 67.4971 28.2997C70.6023 32.947 72.2597 38.4107 72.2597 44C72.2516 51.4924 69.2716 58.6757 63.9736 63.9737C58.6757 69.2716 51.4924 72.2516 44 72.2597ZM44 16.1697C38.4974 16.1697 33.1184 17.8014 28.5431 20.8585C23.9679 23.9155 20.402 28.2607 18.2962 33.3444C16.1905 38.4281 15.6395 44.0221 16.713 49.4189C17.7865 54.8158 20.4363 59.7731 24.3272 63.664C28.2181 67.5549 33.1754 70.2047 38.5723 71.2781C43.9691 72.3517 49.5631 71.8007 54.6468 69.6949C59.7306 67.5892 64.0757 64.0233 67.1327 59.448C70.1898 54.8728 71.8215 49.4938 71.8215 43.9912C71.8099 36.6169 68.8747 29.548 63.6594 24.3343C58.4441 19.1207 51.3743 16.1877 44 16.1785V16.1697Z" fill="#5458F6"></path>
  <path d="M43.9991 65.7218C39.7029 65.7218 35.5033 64.4479 31.9312 62.061C28.3591 59.6742 25.5749 56.2817 23.9308 52.3126C22.2867 48.3435 21.8566 43.976 22.6947 39.7624C23.5329 35.5488 25.6017 31.6783 28.6395 28.6405C31.6774 25.6026 35.5478 23.5338 39.7614 22.6957C43.975 21.8576 48.3425 22.2877 52.3116 23.9318C56.2808 25.5759 59.6732 28.36 62.0601 31.9321C64.4469 35.5042 65.7208 39.7039 65.7208 44.0001C65.7139 49.7589 63.4231 55.2799 59.351 59.352C55.2789 63.4241 49.7579 65.7148 43.9991 65.7218ZM43.9991 22.7165C39.7896 22.7165 35.6747 23.9648 32.1746 26.3034C28.6746 28.6421 25.9466 31.9661 24.3357 35.8552C22.7248 39.7443 22.3033 44.0237 23.1245 48.1523C23.9458 52.2809 25.9728 56.0732 28.9494 59.0498C31.926 62.0263 35.7183 64.0534 39.8469 64.8746C43.9755 65.6959 48.2549 65.2744 52.1439 63.6635C56.033 62.0526 59.3571 59.3246 61.6957 55.8246C64.0344 52.3245 65.2826 48.2096 65.2826 44.0001C65.2757 38.3575 63.0311 32.9479 59.0412 28.958C55.0512 24.9681 49.6417 22.7235 43.9991 22.7165Z" fill="#5458F6"></path>
  <path d="M44.0011 58.6887C41.096 58.6887 38.2561 57.8272 35.8406 56.2132C33.425 54.5992 31.5424 52.3052 30.4306 49.6212C29.3189 46.9372 29.028 43.9838 29.5947 41.1345C30.1615 38.2852 31.5604 35.6679 33.6147 33.6137C35.6689 31.5595 38.2862 30.1605 41.1355 29.5938C43.9848 29.027 46.9382 29.3179 49.6222 30.4296C52.3061 31.5414 54.6002 33.4241 56.2142 35.8396C57.8282 38.2551 58.6897 41.095 58.6897 44.0001C58.685 47.8943 57.136 51.6277 54.3824 54.3814C51.6287 57.135 47.8953 58.684 44.0011 58.6887ZM44.0011 29.7673C41.1826 29.7673 38.4275 30.603 36.084 32.1689C33.7406 33.7347 31.914 35.9603 30.8355 38.5642C29.7569 41.1682 29.4747 44.0334 30.0245 46.7977C30.5744 49.562 31.9316 52.1012 33.9246 54.0942C35.9175 56.0871 38.4567 57.4443 41.221 57.9942C43.9853 58.544 46.8505 58.2618 49.4545 57.1833C52.0584 56.1047 54.284 54.2782 55.8499 51.9347C57.4157 49.5913 58.2515 46.8361 58.2515 44.0176C58.2515 40.2366 56.7507 36.6101 54.0787 33.9349C51.4067 31.2597 47.7821 29.7544 44.0011 29.7497V29.7673Z" fill="#5458F6"></path>
  <path d="M44.0011 51.6599C42.4864 51.6591 41.0059 51.2091 39.7468 50.3669C38.4877 49.5247 37.5066 48.3281 36.9275 46.9284C36.3484 45.5286 36.1974 43.9887 36.4934 42.5031C36.7895 41.0175 37.5194 39.6531 38.5908 38.5823C39.6622 37.5115 41.027 36.7824 42.5128 36.4872C43.9985 36.192 45.5384 36.3439 46.9378 36.9238C48.3372 37.5037 49.5332 38.4855 50.3747 39.745C51.2162 41.0046 51.6653 42.4853 51.6653 44.0001C51.663 46.0317 50.8546 47.9793 49.4177 49.4154C47.9808 50.8515 46.0327 51.6588 44.0011 51.6599ZM44.0011 36.761C42.573 36.7619 41.1772 37.1861 39.9902 37.9802C38.8032 38.7742 37.8783 39.9024 37.3324 41.222C36.7865 42.5417 36.6441 43.9936 36.9232 45.3941C37.2024 46.7947 37.8905 48.0811 38.9007 49.0906C39.9108 50.1001 41.1975 50.7875 42.5983 51.0657C43.999 51.344 45.4508 51.2008 46.7701 50.6541C48.0894 50.1073 49.217 49.1817 50.0103 47.9942C50.8037 46.8067 51.2271 45.4107 51.2271 43.9826C51.2213 42.0699 50.4575 40.2376 49.1029 38.8872C47.7484 37.5368 45.9138 36.7785 44.0011 36.7785V36.761Z" fill="#5458F6"></path>
  <path d="M44.0002 49.3987C42.9325 49.3987 41.8887 49.082 41.0009 48.4888C40.1131 47.8956 39.4211 47.0524 39.0125 46.066C38.6039 45.0795 38.497 43.994 38.7053 42.9468C38.9136 41.8995 39.4278 40.9376 40.1828 40.1826C40.9378 39.4275 41.8997 38.9134 42.947 38.7051C43.9942 38.4967 45.0798 38.6037 46.0662 39.0123C47.0527 39.4209 47.8958 40.1128 48.489 41.0006C49.0822 41.8885 49.3989 42.9322 49.3989 44C49.3977 45.4314 48.8286 46.8039 47.8164 47.8161C46.8042 48.8283 45.4317 49.3975 44.0002 49.3987ZM44.0002 39.0395C43.0191 39.0395 42.0601 39.3304 41.2443 39.8755C40.4286 40.4206 39.7928 41.1953 39.4174 42.1017C39.0419 43.0081 38.9437 44.0055 39.1351 44.9677C39.3265 45.93 39.7989 46.8138 40.4927 47.5076C41.1864 48.2013 42.0703 48.6737 43.0325 48.8651C43.9947 49.0565 44.9921 48.9583 45.8985 48.5829C46.8049 48.2074 47.5796 47.5716 48.1247 46.7559C48.6698 45.9401 48.9607 44.9811 48.9607 44C48.9595 42.6847 48.4366 41.4237 47.5065 40.4937C46.5765 39.5637 45.3155 39.0407 44.0002 39.0395Z" fill="#5458F6"></path>
  <path d="M22.3033 5.97743L21.9238 6.19653L65.7025 82.0235L66.082 81.8044L22.3033 5.97743Z" fill="#5458F6"></path>
  <path d="M13.2005 12.8916L12.8906 13.2014L74.803 75.1138L75.1129 74.804L13.2005 12.8916Z" fill="#5458F6"></path>
  <path d="M6.19566 21.9254L5.97656 22.3049L81.8035 66.0836L82.0226 65.7041L6.19566 21.9254Z" fill="#5458F6"></path>
  <path d="M1.77162 32.4576L1.6582 32.8809L86.2322 55.5424L86.3456 55.1191L1.77162 32.4576Z" fill="#5458F6"></path>
  <path d="M87.7801 43.7808H0.222656V44.219H87.7801V43.7808Z" fill="#5458F6"></path>
  <path d="M86.2221 32.4285L1.66797 55.1638L1.78175 55.587L86.3359 32.8517L86.2221 32.4285Z" fill="#5458F6"></path>
  <path d="M81.8287 21.9774L5.99414 65.7429L6.21318 66.1225L82.0478 22.357L81.8287 21.9774Z" fill="#5458F6"></path>
  <path d="M74.7796 12.8534L12.8672 74.7659L13.177 75.0757L75.0895 13.1633L74.7796 12.8534Z" fill="#5458F6"></path>
  <path d="M65.6841 5.96055L21.8789 81.7722L22.2583 81.9915L66.0635 6.17978L65.6841 5.96055Z" fill="#5458F6"></path>
  <path d="M55.1507 1.67354L32.5039 86.2515L32.9272 86.3648L55.574 1.78688L55.1507 1.67354Z" fill="#5458F6"></path>
  <path d="M44.2195 0.223633H43.7812V87.781H44.2195V0.223633Z" fill="#5458F6"></path>
  <path d="M32.8803 1.65929L32.457 1.77271L55.1186 86.3467L55.5418 86.2332L32.8803 1.65929Z" fill="#5458F6"></path>
  <path d="M87.7801 43.7808H0.222656V44.219H87.7801V43.7808Z" fill="#5458F6"></path>
</svg>
