<?xml version="1.0" encoding="UTF-8"?>
<svg xmlns="http://www.w3.org/2000/svg" width="42" height="54" viewBox="0 0 42 54" fill="none">
  <path d="M38.9601 0H3.03986C2.23375 0.000837684 1.46125 0.324577 0.891522 0.900449C0.32136 1.4759 0.000827999 2.25653 0 3.0703V50.9297C0.000829379 51.7439 0.32136 52.5241 0.891522 53.0996C1.46127 53.6754 2.23415 53.9992 3.03986 54H38.9601C39.7658 53.9992 40.5388 53.6754 41.1085 53.0996C41.6786 52.5241 41.9992 51.7438 42 50.9297V3.0703C41.9992 2.25655 41.6786 1.47588 41.1085 0.900449C40.5387 0.324577 39.7662 0.00083629 38.9601 0ZM14.9567 8.86714H27.1973C27.8474 8.86631 28.4707 8.60538 28.9301 8.14092C29.39 7.67688 29.6483 7.04742 29.6491 6.39115V5.38054H37.5804V48.6189H4.42011V5.38054H12.5039V6.39115C12.5048 7.04743 12.7631 7.67689 13.2229 8.14092C13.6824 8.60538 14.3056 8.86631 14.9558 8.86714H14.9567ZM28.4605 1.20072V6.39108C28.4596 7.09511 27.8945 7.66557 27.1975 7.66642H14.9569C14.2598 7.66559 13.6946 7.09516 13.6939 6.39108V1.20072H28.4605ZM40.8115 50.9289C40.8106 51.4244 40.6157 51.8997 40.2687 52.2502C39.9216 52.6008 39.451 52.7976 38.9604 52.7985H3.04015C2.5496 52.7976 2.07896 52.6008 1.73191 52.2502C1.38486 51.8997 1.18994 51.4243 1.18911 50.9289V3.06951C1.18994 2.57405 1.38484 2.09869 1.73191 1.74817C2.07898 1.39764 2.54962 1.20036 3.04015 1.19994H12.504V4.17895H3.82547C3.49748 4.17895 3.23126 4.44783 3.23126 4.77954V49.2187C3.23126 49.5504 3.49747 49.8189 3.82547 49.8189H38.1747C38.5027 49.8189 38.7689 49.5504 38.7689 49.2187V4.77954C38.7689 4.62039 38.7063 4.46752 38.5947 4.35486C38.4832 4.2422 38.3322 4.17896 38.1747 4.17896H29.6488V1.19995H38.9601C39.4507 1.20037 39.9213 1.39763 40.2684 1.74818C40.6154 2.09872 40.8103 2.57408 40.8111 3.06952L40.8115 50.9289Z" fill="white"></path>
  <path d="M9.46681 13.3941V17.5521C9.46681 17.7112 9.52942 17.8641 9.64096 17.9767C9.75251 18.089 9.90345 18.1522 10.061 18.1522H14.1778C14.3353 18.1522 14.4867 18.089 14.5982 17.9767C14.7094 17.8641 14.772 17.7112 14.772 17.5521V13.3941C14.772 13.235 14.7094 13.0825 14.5982 12.9698C14.4867 12.8572 14.3353 12.7939 14.1778 12.7939H10.061C9.73302 12.7939 9.46681 13.0628 9.46681 13.3941ZM10.6556 13.9947H13.5831V16.9515H10.6556V13.9947Z" fill="white"></path>
  <path d="M14.1778 21.6191H10.061C9.73302 21.6191 9.4668 21.888 9.4668 22.2193V26.3773C9.4668 26.709 9.73301 26.9774 10.061 26.9774H14.1778C14.5062 26.9774 14.772 26.709 14.772 26.3773V22.2193C14.772 22.0602 14.7094 21.9077 14.5982 21.795C14.4867 21.6824 14.3353 21.6191 14.1778 21.6191ZM13.5831 25.7767H10.6556V22.8199H13.5831V25.7767Z" fill="white"></path>
  <path d="M14.1778 30.4463H10.061C9.73302 30.4463 9.4668 30.7152 9.4668 31.0465V35.2044C9.4668 35.5357 9.73301 35.8046 10.061 35.8046H14.1778C14.5062 35.8046 14.772 35.5357 14.772 35.2044V31.0465C14.772 30.7152 14.5062 30.4463 14.1778 30.4463ZM13.5831 34.6038H10.6556V31.647H13.5831V34.6038Z" fill="white"></path>
  <path d="M14.1778 39.2725H10.061C9.73302 39.2725 9.4668 39.5409 9.4668 39.8726V44.0306C9.4668 44.1898 9.52941 44.3422 9.64095 44.4549C9.7525 44.5675 9.90344 44.6308 10.061 44.6308H14.1777C14.3353 44.6308 14.4867 44.5675 14.5982 44.4549C14.7093 44.3422 14.772 44.1897 14.772 44.0306V39.8726C14.772 39.7135 14.7093 39.5606 14.5982 39.448C14.4867 39.3357 14.3353 39.2725 14.1778 39.2725ZM13.5831 43.43H10.6556V40.4732H13.5831V43.43Z" fill="white"></path>
  <path d="M17.87 16.0728H32.6986C33.027 16.0728 33.2928 15.8039 33.2928 15.4722C33.2928 15.1405 33.027 14.8721 32.6986 14.8721H17.87C17.5416 14.8721 17.2754 15.1405 17.2754 15.4722C17.2754 15.8039 17.5416 16.0728 17.87 16.0728Z" fill="white"></path>
  <path d="M17.87 24.8994H32.6986C33.027 24.8994 33.2928 24.6305 33.2928 24.2988C33.2928 23.9671 33.027 23.6982 32.6986 23.6982H17.87C17.5416 23.6982 17.2754 23.9671 17.2754 24.2988C17.2754 24.6305 17.5416 24.8994 17.87 24.8994Z" fill="white"></path>
  <path d="M17.87 33.7266H32.6986C33.027 33.7266 33.2928 33.4577 33.2928 33.126C33.2928 32.7943 33.027 32.5254 32.6986 32.5254H17.87C17.5416 32.5254 17.2754 32.7943 17.2754 33.126C17.2754 33.4577 17.5416 33.7266 17.87 33.7266Z" fill="white"></path>
  <path d="M17.87 42.5523H32.6986C33.027 42.5523 33.2928 42.2839 33.2928 41.9522C33.2928 41.6204 33.027 41.3516 32.6986 41.3516H17.87C17.5416 41.3516 17.2754 41.6204 17.2754 41.9522C17.2754 42.2839 17.5416 42.5523 17.87 42.5523Z" fill="white"></path>
</svg>
